<svg width="638" height="302" viewBox="0 0 638 302" fill="none" xmlns="http://www.w3.org/2000/svg">
<path d="M57.6601 44.1063C58.5532 44.6788 58.5227 46.2971 57.6067 47.7245C56.6907 49.152 55.225 49.8466 54.3396 49.2512C53.4541 48.6558 53.477 47.0604 54.393 45.633C55.309 44.2055 56.7746 43.5338 57.6601 44.1063Z" fill="#3F468E"/>
<path d="M65.141 39.8102C66.0264 40.3827 66.0035 42.0009 65.0799 43.4284C64.1563 44.8558 62.6983 45.5581 61.8128 44.9551C60.9273 44.352 60.9502 42.7643 61.8739 41.3368C62.7975 39.9094 64.2555 39.2453 65.141 39.8102Z" fill="#3F468E"/>
<path d="M57.9276 44.8454C57.752 44.5706 57.4314 34.6014 57.4314 34.6014L65.3854 27.6016V40.8837" stroke="#3F468E" stroke-width="0.84" stroke-linecap="round" stroke-linejoin="round"/>
<path d="M140.894 105.952C141.78 106.517 141.757 108.143 140.841 109.57C139.925 110.998 138.459 111.693 137.574 111.097C136.688 110.502 136.711 108.906 137.627 107.471C138.543 106.036 140.009 105.38 140.894 105.952Z" fill="#3F468E"/>
<path d="M148.375 101.653C149.261 102.226 149.23 103.844 148.314 105.271C147.398 106.699 145.933 107.401 145.047 106.798C144.162 106.195 144.185 104.607 145.101 103.18C146.017 101.752 147.482 101.081 148.375 101.653Z" fill="#3F468E"/>
<path d="M141.162 106.693C140.986 106.418 140.666 96.449 140.666 96.449L148.589 89.4492V102.716" stroke="#3F468E" stroke-width="0.84" stroke-linecap="round" stroke-linejoin="round"/>
<path d="M99.5444 13.9845C100.43 14.557 100.399 16.1753 99.4834 17.6027C98.5674 19.0302 97.1018 19.7248 96.2163 19.1294C95.3308 18.534 95.3537 16.9386 96.2697 15.5112C97.1857 14.0837 98.6513 13.4043 99.5444 13.9845Z" fill="#3F468E"/>
<path d="M99.804 14.7248C99.6285 14.45 99.3079 4.48083 99.3079 4.48083L103.331 1" stroke="#3F468E" stroke-width="0.84" stroke-linecap="round" stroke-linejoin="round"/>
<path d="M111.01 263.903C105.941 263.14 102.247 259.399 101.17 258.025C101.17 258.071 79.5451 216.095 71.0796 206.118C75.7589 194.126 91.5066 184.546 98.6896 178.172C100.354 176.699 109.842 168.928 111.804 167.882C121.437 162.753 126.017 154.035 122.918 137.265C119.201 140.143 111.14 134.128 98.4454 131.242C98.4454 131.242 61.1333 167.119 51.9427 184.928C42.5384 203.133 40.943 207.065 67.7973 238.972C75.2398 248.896 98.5293 277.445 98.5293 277.445C98.5293 277.445 105.399 296.131 105.506 296.414C105.613 296.696 111.155 278.284 113.735 269.773C114.453 267.407 113.476 264.262 111.01 263.903Z" fill="#FFC56B"/>
<path d="M93.9264 245.69C93.9798 245.354 94.0409 245.018 94.0943 244.675C87.0182 231.492 76.4306 212.424 71.0796 206.126C75.7589 194.134 91.5066 184.554 98.6896 178.18C100.354 176.707 109.842 168.936 111.804 167.89C121.437 162.761 126.017 154.043 122.918 137.273C119.201 140.151 111.14 134.135 98.4454 131.25C98.4454 131.25 61.1333 167.127 51.9427 184.936C42.5384 203.141 40.943 207.073 67.7973 238.98C71.385 243.766 78.652 252.88 85.2167 261.033C88.0105 255.858 90.9137 250.743 93.9264 245.69Z" fill="#1E2046"/>
<path d="M78.8889 257.675C82.9117 254.766 94.2778 246.675 98.5143 244.095C94.461 235.278 85.1635 223.164 78.034 214.431C75.743 211.618 74.5644 208.062 74.722 204.437C74.8796 200.812 76.3624 197.372 78.8889 194.768C86.2093 187.203 95.9343 181.089 100.171 176.753C103.678 173.301 107.607 170.305 111.865 167.837C121.453 162.7 125.315 151.708 122.224 135.014C118.506 137.884 111.14 134.151 98.4456 131.266C98.4456 131.266 61.1336 167.143 51.943 184.951C42.5387 203.157 43.4013 203.584 44.8287 208.287C49.6301 218.019 73.7822 251.293 78.8889 257.675Z" fill="#0096C8"/>
<g style="mix-blend-mode:multiply">
<path d="M69.0184 165.547C74.2167 170.653 79.1861 175.997 84.1707 181.34C85.6592 182.951 87.163 184.554 88.6591 186.157C93.3231 182.462 97.6894 179.287 100.17 176.768C103.678 173.315 107.607 170.32 111.865 167.852C121.452 162.715 125.315 151.142 122.223 134.41C118.506 137.28 111.139 134.128 98.4451 131.242C98.4451 131.242 81.2852 147.746 67.3772 163.921L69.0184 165.547Z" fill="#1E2046"/>
</g>
<path d="M101.537 292.022L99.7964 284.114L105.338 287.007L105.063 261.816L115.544 265.335L105.506 296.38C104.523 296.061 103.64 295.491 102.944 294.727C102.248 293.963 101.763 293.03 101.537 292.022Z" fill="#FF937E"/>
<path d="M27.4625 234.461C25.0052 228.103 23.9103 221.3 24.2488 214.492C24.203 214.492 39.5156 178.386 40.653 165.34C52.6374 160.172 68.8965 163.982 78.6215 164.577C80.8733 164.714 102.888 172.6 110.85 168.668C127.323 160.546 120.659 142.364 121.842 135.211C117.109 134.608 112.277 134.288 99.0103 130.562C99.0103 130.562 61.6677 130.761 42.2865 136.837C22.4397 143.051 18.4703 144.722 14.6231 186.271C12.7682 198.568 8.7912 235.232 8.7912 235.232C8.7912 235.232 0.234165 253.323 0.0967639 253.552C-0.0406372 253.781 17.1956 244.728 25.1725 240.537C26.2383 239.987 27.0623 239.061 27.4853 237.939C27.9082 236.817 27.9001 235.577 27.4625 234.461Z" fill="#FFC56B"/>
<path d="M122.636 135.188C114.638 134.394 106.735 132.838 99.0332 130.539C99.0332 130.539 61.6907 130.738 42.3095 136.814C22.4627 143.027 18.4933 144.699 14.6461 186.248C13.3866 194.576 11.1652 214.071 9.85229 225.796C14.5392 222.041 19.3024 218.392 24.2565 215.01C24.2565 214.842 24.2565 214.667 24.2565 214.491C24.2107 214.491 39.5233 178.385 40.6607 165.34C52.6451 160.172 68.9042 163.981 78.6292 164.576C80.881 164.714 102.896 172.599 110.857 168.668C127.323 160.523 121.43 142.34 122.636 135.188Z" fill="#1E2046"/>
<path d="M122.635 135.379C117.903 134.776 112.3 134.264 99.033 130.539C99.033 130.539 61.6905 130.738 42.3093 136.814C22.4624 143.027 18.4473 144.233 13.3024 162.515C12.7146 166.156 5.08121 210.652 4.31787 216.98C9.41698 218.613 26.0807 214.445 31.0729 216.354C31.2027 206.988 36.0499 188.049 38.8284 175.439C39.6353 171.828 41.695 168.621 44.6422 166.385C47.5893 164.149 51.2332 163.03 54.9273 163.225C63.1408 163.653 71.3162 166.103 77.3465 167.042C85.7891 168.324 105.811 170.385 113.773 166.454C130.215 158.294 125.307 140.974 122.635 135.379Z" fill="#0096C8"/>
<path d="M0.0967225 253.558C-0.842185 251.673 5.36376 238.49 5.36376 238.49L8.41712 244.238L25.2564 226.574C25.2564 226.574 30.3937 237.91 28.5464 238.788C26.6991 239.665 0.0967225 253.558 0.0967225 253.558Z" fill="#FF937E"/>
<path d="M6.76831 203.431C10.1575 204.026 13.9055 204.629 17.1879 203.286C18.3619 202.808 19.3967 202.042 20.1971 201.059C20.9975 200.075 21.5377 198.907 21.7679 197.66C23.0885 192.156 21.6153 185.63 18.4474 181.004C16.9589 178.829 14.6307 177.745 12.6842 176.111C12.4934 175.958 12.2109 176.233 12.4094 176.394C13.9361 177.653 15.7986 178.554 17.1574 180.004C18.9424 182.079 20.2203 184.541 20.8901 187.195C21.6634 189.867 21.9479 192.658 21.7298 195.431C21.5084 197.973 20.7222 200.721 18.4779 202.194C15.0811 204.416 10.6537 203.721 6.89808 203.057C6.64618 203.011 6.53931 203.385 6.79122 203.431H6.76831Z" fill="#FFF8ED"/>
<path d="M34.5385 186.078C29.1591 180.524 25.843 173.297 25.1418 165.597C24.9586 163.429 25.1418 161.323 26.951 159.849C28.5208 158.669 30.3081 157.811 32.2104 157.323C36.0027 156.323 39.9673 156.161 43.8284 156.849C48.1232 157.587 52.3363 158.74 56.4082 160.292C56.6449 160.376 56.7517 159.994 56.5151 159.91C48.9199 157.201 40.2941 154.62 32.2485 156.91C28.9814 157.842 25.0884 159.529 24.722 163.353C24.6184 165.375 24.8113 167.402 25.2945 169.368C26.6007 175.773 29.71 181.671 34.2561 186.368C34.4317 186.543 34.7141 186.269 34.5385 186.085V186.078Z" fill="#FFF8ED"/>
<path d="M47.21 137.469L57.5609 146.507C60.4005 148.988 63.2706 152.117 66.8354 153.553C72.8505 155.972 79.5221 151.972 81.8274 146.301C83.2572 142.534 83.3595 138.393 82.1175 134.561C82.0488 134.316 81.6671 134.423 81.7435 134.66C83.6747 141.072 82.2702 148.896 76.0184 152.385C74.6807 153.166 73.1891 153.647 71.6469 153.795C70.1048 153.942 68.549 153.753 67.0873 153.24C65.3203 152.47 63.6948 151.409 62.2783 150.102C60.7516 148.827 59.3165 147.522 57.8357 146.232L47.4924 137.194C47.3016 137.026 47.0268 137.301 47.21 137.469Z" fill="#FFF8ED"/>
<path d="M91.4457 169.127C89.6824 166.035 87.4687 161.661 90.4076 158.516C91.9953 156.807 94.3082 157.265 96.3082 157.845C98.3081 158.425 100.392 159.043 102.415 159.646C104.438 160.249 108.644 161.829 109.705 158.837C110.247 157.31 109.384 155.616 109.491 154.043C109.696 152.222 110.609 150.555 112.033 149.402C115.682 146.219 120.857 146.822 125.3 147.387C125.552 147.425 125.544 147.028 125.3 146.998C121.346 146.494 116.903 145.937 113.277 148.028C110.43 149.685 108.697 152.532 109.232 155.837C109.407 156.929 109.751 158.211 109.086 159.211C108.422 160.211 107.27 160.272 106.247 160.188C104.163 160.013 102.064 159.135 100.064 158.547C96.9418 157.623 92.293 155.364 89.7893 158.616C87.2016 161.982 89.2855 166.165 91.0946 169.302C91.1251 169.337 91.1668 169.36 91.2125 169.368C91.2582 169.375 91.305 169.366 91.3449 169.343C91.3847 169.319 91.4151 169.282 91.4307 169.239C91.4463 169.195 91.4462 169.147 91.4305 169.104L91.4457 169.127Z" fill="#FFF8ED"/>
<path d="M60.7211 172.486C62.0188 174.105 63.7745 175.158 65.3012 176.547C66.8279 177.937 68.3545 180.364 67.3393 182.555C66.1867 185.028 62.9577 185.898 60.8051 187.219C58.6525 188.539 57.1182 190.707 58.1716 193.379C58.8357 195.051 60.0723 196.432 60.8738 198.02C61.344 199.012 61.6018 200.092 61.6308 201.189C61.6597 202.287 61.4591 203.378 61.0417 204.394C59.2479 209.18 54.4083 211.569 50.0878 213.653C49.8588 213.76 50.0878 214.096 50.2863 213.989C54.103 212.149 58.225 210.172 60.4998 206.394C61.5337 204.758 62.0646 202.855 62.0265 200.921C61.9425 198.951 61.0112 197.364 59.9654 195.753C58.9197 194.142 57.6754 192.234 58.4388 190.226C58.9807 188.799 60.3395 187.936 61.6143 187.173C63.7592 185.975 66.7363 184.997 67.7668 182.54C69.7438 177.807 63.3165 175.074 60.9807 172.181C60.8204 171.983 60.5456 172.265 60.7059 172.456L60.7211 172.486Z" fill="#FFF8ED"/>
<path d="M57.7898 225.834C60.5231 224.696 63.4675 224.155 66.4266 224.246C69.3857 224.336 72.2914 225.057 74.9497 226.36C80.2757 229.019 84.4478 233.53 86.6822 239.047C87.9895 242.155 88.7636 245.461 88.9722 248.826C88.9722 249.077 89.3768 249.077 89.3615 248.826C89.0389 242.719 86.7947 236.871 82.9495 232.116C81.0287 229.794 78.6685 227.874 76.0042 226.466C73.3399 225.057 70.4238 224.189 67.4232 223.91C64.0695 223.606 60.6933 224.152 57.6066 225.498C57.3776 225.597 57.6066 225.933 57.8051 225.834H57.7898Z" fill="#FFF8ED"/>
<path d="M77.232 193.268C75.1685 193.549 73.2505 194.487 71.7628 195.944C70.2751 197.402 69.2971 199.3 68.974 201.357C68.6508 203.414 68.9997 205.521 69.969 207.364C70.9382 209.207 72.4761 210.688 74.3542 211.588C74.5832 211.703 74.7816 211.367 74.5526 211.252C72.7311 210.397 71.2365 208.973 70.2939 207.195C69.3513 205.417 69.0115 203.381 69.3257 201.393C69.6399 199.405 70.5912 197.573 72.0363 196.173C73.4814 194.772 75.3422 193.879 77.3388 193.627C77.5831 193.589 77.4762 193.215 77.232 193.253V193.268Z" fill="#FFF8ED"/>
<path d="M26.1727 101.019C23.5261 98.5479 20.3558 96.7058 16.8981 95.6302C16.7472 95.5733 16.5857 95.5499 16.4249 95.5615C16.2358 95.626 16.0796 95.762 15.9896 95.9404C15.8997 96.1188 15.8833 96.3253 15.944 96.5157C16.1027 96.8956 16.3677 97.2217 16.7073 97.4546C18.1195 98.7064 19.5088 100.119 20.9209 101.371" fill="#FFC56B"/>
<path d="M20.6456 100.183L24.3401 99.9234L24.2485 99.7325C23.844 99.0837 23.4852 98.2058 23.8898 97.5875C23.9467 97.479 24.0255 97.3835 24.1212 97.307C24.2169 97.2305 24.3274 97.1748 24.4458 97.1432C24.5642 97.1116 24.6878 97.105 24.8089 97.1236C24.93 97.1423 25.0459 97.1859 25.1493 97.2517C26.0195 97.8394 31.0194 100.923 31.1339 104.45C31.1339 104.45 55.2172 110.625 57.8507 110.961C60.4843 111.297 70.3084 103.19 70.3084 103.19L82.6593 112.946C82.6593 112.946 63.1712 126.129 60.3163 126.068C57.5836 125.999 27.6988 113.183 25.2485 112.129C23.1035 112.572 21.0502 111.725 19.18 110.129C18.4313 109.485 17.9238 108.605 17.7408 107.634C17.5577 106.663 17.7099 105.659 18.1724 104.786L20.6456 100.183Z" fill="#FFC56B"/>
<path d="M77.1027 93.3633C69.9426 100.775 59.5459 111.172 57.8665 110.958C57.4543 110.905 56.5154 110.706 55.2254 110.416C54.3094 115.485 53.546 120.584 52.8132 125.683C57.3933 127.668 60.981 129.118 61.7977 129.141C64.645 129.21 85.9803 110.89 85.9803 110.89L93.5679 84.875C87.0566 85.6536 81.6522 88.6459 77.1027 93.3633Z" fill="#FF937E"/>
<path d="M20.8901 101.373C20.8901 101.373 26.1114 101.075 25.2641 104.838C24.4168 108.602 23.3481 111.708 23.3481 111.708C23.3481 111.708 27.9281 105.373 27.5846 103.678C27.2411 101.983 20.8901 101.373 20.8901 101.373Z" fill="#753231"/>
<path d="M98.8499 49.2805C98.4348 47.4601 98.5341 45.5602 99.1366 43.7929C99.7392 42.0257 100.821 40.4608 102.262 39.2732C107.292 35.1053 110.544 39.8228 114.437 38.4106C118.33 36.9984 117.109 35.7618 120.605 31.0749C124.101 26.388 132.948 37.3725 134.406 31.8382C135.864 26.304 141.62 41.7617 136.177 46.1661C130.735 50.5706 125.842 48.876 122.567 48.6546C119.292 48.4332 118.368 56.059 112.727 56.059C109.254 56.0895 101.071 55.8453 98.8499 49.2805Z" fill="#3F468E"/>
<path d="M81.148 62.4855C79.9114 61.0657 79.5145 56.0887 80.3847 54.4017C82.6747 49.8217 85.896 47.5317 90.957 46.5164C94.8653 45.7531 116.628 50.9209 101.163 72.4013" fill="#3F468E"/>
<path d="M80.5527 66.1743C78.6902 56.2509 85.3465 53.5945 87.1098 53.0525C88.5907 52.6021 93.4684 50.4877 98.7431 61.6248C98.7684 61.6777 98.8039 61.725 98.8476 61.7641C98.8913 61.8031 98.9424 61.8331 98.9978 61.8523C99.0531 61.8714 99.1118 61.8794 99.1703 61.8758C99.2288 61.8721 99.286 61.8568 99.3385 61.8309C100.262 61.35 102.293 60.0676 103.835 62.3271C105.377 64.5865 103.758 67.1819 102.392 67.9758C102.003 68.2048 101.109 68.7391 100.987 69.2048C100.934 69.4109 100.606 69.7086 100.102 70.0597L107.01 82.3189C87.3007 101.906 91.6212 84.1586 91.6212 84.1586L90.5754 74.8077C90.2472 74.9451 88.8808 75.7084 88.8655 75.716C86.3083 76.3496 82.568 76.9145 80.5527 66.1743Z" fill="#FFC56B"/>
<path d="M103.056 63.0237C103.056 63.0237 100.003 60.6955 100.293 65.7488L103.056 63.0237Z" fill="#DB8F42"/>
<path d="M90.6364 65.1597C90.2027 65.3688 89.8407 65.7019 89.5962 66.1167C89.3518 66.5316 89.2358 67.0096 89.2629 67.4903C89.2901 67.9711 89.4592 68.433 89.7488 68.8177C90.0384 69.2024 90.4356 69.4926 90.8902 69.6515C91.3447 69.8105 91.8361 69.8312 92.3024 69.7109C92.7687 69.5906 93.1888 69.3348 93.5097 68.9757C93.8306 68.6167 94.0378 68.1706 94.1052 67.6938C94.1726 67.217 94.0971 66.7309 93.8883 66.297C93.7495 66.0088 93.5553 65.7506 93.3168 65.5374C93.0782 65.3242 92.8 65.1601 92.498 65.0545C92.196 64.9489 91.8762 64.9038 91.5568 64.9218C91.2373 64.9399 90.9246 65.0207 90.6364 65.1597Z" fill="#FFA64D"/>
<path d="M81.7128 70.6543C82.1924 70.3263 82.5508 69.8497 82.7329 69.2979C82.915 68.7462 82.9106 68.1499 82.7204 67.6009C82.5266 67.1878 82.2308 66.8309 81.8608 66.5638C81.4909 66.2967 81.059 66.1282 80.606 66.0742C80.7748 67.6424 81.1468 69.182 81.7128 70.6543Z" fill="#FFA64D"/>
<path d="M85.2317 68.2733H84.0485C83.9894 68.2762 83.9305 68.2638 83.8775 68.2372C83.8246 68.2107 83.7794 68.1709 83.7464 68.1217C83.7133 68.0726 83.6936 68.0157 83.689 67.9566C83.6844 67.8976 83.6952 67.8384 83.7203 67.7847L84.4836 65.6016" fill="#DB8F42"/>
<path d="M87.9496 61.2269C88.4381 61.4788 87.5603 60.1659 86.9191 60.0819C86.6368 60.028 86.3447 60.0875 86.106 60.2475C85.8674 60.4076 85.7015 60.6553 85.6443 60.9369C86.423 60.7603 87.2389 60.8629 87.9496 61.2269Z" fill="#183350"/>
<path d="M81.1405 63.6561C80.7359 64.0301 81.2321 62.5263 81.8275 62.2821C82.0849 62.1541 82.3823 62.1329 82.6553 62.2229C82.9283 62.3129 83.1547 62.507 83.2855 62.763C82.4882 62.8012 81.7293 63.1172 81.1405 63.6561Z" fill="#183350"/>
<path d="M86.5682 65.509C86.6063 65.9899 86.4537 66.3945 86.2247 66.4097C85.9957 66.425 85.7667 66.0586 85.7285 65.5853C85.6903 65.1121 85.8354 64.7075 86.072 64.6846C86.3086 64.6617 86.5224 65.0357 86.5682 65.509Z" fill="#183350"/>
<path d="M83.5374 65.764C83.5832 66.222 83.4306 66.6037 83.2168 66.6266C83.0031 66.6495 82.7817 66.2907 82.7359 65.8633C82.6901 65.4358 82.8428 65.0236 83.0642 65.0083C83.2855 64.9931 83.4993 65.3137 83.5374 65.764Z" fill="#183350"/>
<path d="M88.6592 68.3633L82.8655 69.1266C82.8655 69.1266 84.3922 71.4624 85.7433 71.1571C87.0944 70.8518 88.6592 68.3633 88.6592 68.3633Z" fill="#FFF8ED"/>
<path d="M82.9419 52.7639C84.5527 55.3686 86.5529 57.7112 88.873 59.7102C90.4608 61.0079 95.9492 64.8323 99.5598 62.0003C103.17 59.1683 94.934 42.6649 82.9419 52.7639Z" fill="#3F468E"/>
<path d="M106.766 96.1507C117.124 94.2805 130.391 89.2807 135.933 84.3037C142.391 78.4603 147.091 70.9316 149.505 62.5638L157.703 34.7782C157.703 34.7782 165.291 18.916 164.711 18.4351C163.757 17.6336 161.589 21.6946 160.642 23.6029C160.638 23.6125 160.632 23.6211 160.625 23.6284C160.618 23.6356 160.609 23.6414 160.6 23.6453C160.59 23.6492 160.58 23.6512 160.569 23.6511C160.559 23.651 160.549 23.6489 160.539 23.6449C160.53 23.6409 160.521 23.6351 160.514 23.6277C160.507 23.6204 160.501 23.6117 160.497 23.6021C160.493 23.5925 160.491 23.5823 160.491 23.572C160.491 23.5616 160.493 23.5514 160.497 23.5419L162.444 17.1451C163.093 15.4352 162.009 15.7329 161.894 16.0001L158.352 23.1602C158.342 23.1752 158.327 23.1864 158.309 23.1921C158.292 23.1977 158.273 23.1975 158.256 23.1914C158.238 23.1854 158.224 23.1738 158.213 23.1585C158.203 23.1433 158.198 23.1251 158.2 23.1068L160.116 14.5726C160.345 13.046 159.284 13.6948 159.192 13.9238L155.963 21.9389C155.96 21.9489 155.955 21.9582 155.949 21.9663C155.942 21.9745 155.934 21.9812 155.925 21.9861C155.915 21.9911 155.905 21.9942 155.895 21.9953C155.884 21.9963 155.874 21.9953 155.864 21.9923C155.854 21.9893 155.844 21.9843 155.836 21.9777C155.828 21.9711 155.822 21.963 155.817 21.9538C155.812 21.9445 155.809 21.9344 155.807 21.924C155.806 21.9136 155.807 21.9031 155.81 21.8931C156.284 19.9389 157.398 16.0077 157.146 14.4887C156.971 13.3895 156.475 14.1299 156.299 14.3284C155.482 15.2444 151.757 27.0685 151.757 27.0685C151.757 27.0685 149.414 20.8778 148.704 21.9618C148.223 22.6564 149.62 26.1678 149.765 29.7173C149.856 32.0073 150.528 32.2287 149.765 34.3966L137.765 61.7547C136.83 63.9503 135.541 65.9773 133.948 67.7545C130.46 71.5712 124.025 76.51 113.285 78.3573L106.766 96.1507Z" fill="#FFC56B"/>
<path d="M139.269 58.2266L137.742 61.7761C136.808 63.9718 135.518 65.9988 133.926 67.7759C130.437 71.5926 124.002 76.5314 113.262 78.3787L106.827 96.1493C117.186 94.2791 133.201 92.5616 138.75 87.6075C143.13 83.6697 146.709 78.9241 149.292 73.6307C145.923 68.5011 142.582 63.3664 139.269 58.2266Z" fill="#FF937E"/>
<path d="M90.9876 85.2492C90.3693 85.8446 87.293 102.676 87.1709 108.34C87.0259 113.485 91.8731 121.836 93.728 131.134C93.728 131.134 113.575 140.294 122.842 135.958C123.376 128.004 121.75 93.5543 116.453 80.3867C116.453 80.3867 111.72 81.1043 109.063 81.2875C109.025 81.2875 93.2853 94.4322 90.9876 85.2492Z" fill="#FFC56B"/>
<path d="M91.6212 84.1578C91.3999 84.3639 89.2778 85.4936 88.6442 85.8524C87.4229 90.1042 84.3313 104.646 84.2321 108.317C84.0871 113.462 88.1022 127.004 89.0488 131.897C89.0488 131.897 98.5142 129.981 127.979 133.256C129.742 122.371 124.162 90.0737 118.88 76.8984C118.88 76.8984 108.72 79.3335 106.415 80.6693C106.445 80.6693 91.7663 121.302 91.6212 84.1578Z" fill="#FF937E"/>
<g style="mix-blend-mode:multiply" opacity="0.5">
<g style="mix-blend-mode:multiply" opacity="0.5">
<path d="M123.765 93.8008C117.28 106.865 109.818 119.422 101.445 131.365C107.514 131.464 116.14 131.937 128.01 133.258C129.216 125.808 126.987 108.312 123.765 93.8008Z" fill="#FF937E"/>
</g>
</g>
<path d="M305.242 275.558L304.165 295.191L283.494 296.985L292.731 287.992L290.303 275.352L305.242 275.558Z" fill="#FF937E"/>
<path d="M302.585 276.023L301.486 293.733L304.745 288.29L304.967 276.924L302.585 276.023Z" fill="#E0603D"/>
<path d="M287.235 292.266L282.517 296.533C282.006 296.93 282.372 297.594 283.105 297.602C283.105 297.602 307.532 297.472 307.532 297.144C307.73 295.106 305.326 287.984 304.975 286.091C304.921 285.824 292.708 296.655 291.005 296.014C289.868 295.633 287.578 292.022 287.235 292.266Z" fill="#8CD1B5"/>
<path d="M357.653 275.457L361.034 295.289L337.943 296.983L348.401 287.51L344.752 276.808L357.653 275.457Z" fill="#FF937E"/>
<path d="M352.286 275.596L359.095 287.511L360.82 288.206L358.385 274.848L352.286 275.596Z" fill="#E0603D"/>
<path d="M341.492 292.266L336.775 296.533C336.264 296.93 336.63 297.594 337.363 297.602C337.363 297.602 362.553 297.472 362.606 297.144C362.805 295.106 361.08 287.625 360.744 285.77C360.69 285.503 346.966 296.656 345.271 296.045C344.126 295.633 341.836 292.022 341.492 292.266Z" fill="#8CD1B5"/>
<path d="M328.92 42.8555C328.92 42.8555 327.729 56.9085 338.157 65.9847C346.614 73.3509 335.149 82.6484 335.149 82.6484C335.149 82.6484 336.729 89.0222 333.691 90.6405C319.516 98.2052 302.562 84.3659 299.753 67.206C292.57 67.8701 295.661 58.1681 299.753 51.4583L328.92 42.8555Z" fill="#FF616B"/>
<path d="M248.182 52.4999C248.617 51.7366 251.38 55.164 251.006 54.0877C250.632 53.0114 247.724 48.8359 248.449 48.3321C249.052 47.9122 251.815 53.0266 252.434 52.8358C253.052 52.645 249.144 47.2023 249.541 46.7291C250.648 45.3398 253.899 52.2404 254.884 51.7976C254.815 51.9579 251.464 46.1642 252.701 45.8665C253.273 45.7291 255.922 50.0191 258.334 54.164C258.371 54.2295 258.427 54.2816 258.495 54.3128C258.563 54.3439 258.64 54.3524 258.713 54.3371C258.787 54.3217 258.853 54.2833 258.903 54.2274C258.953 54.1716 258.984 54.1012 258.991 54.0266C259.243 52.0114 259.533 49.7901 260.479 50.729C263.105 59.3013 262.571 61.6753 262.571 61.6753H262.533L277.945 88.7356C278.471 89.6135 279.761 90.2013 280.486 89.4303C282.822 86.9494 299.287 69.5834 299.043 70.4079C298.669 71.6368 297.837 93.4149 296.982 92.8119C289.349 107.376 275.952 106.552 275.952 106.552C265.571 101.262 255.525 64.4538 255.525 64.4538H255.571C253.93 62.7897 247.823 53.2327 248.182 52.4999Z" fill="#FF937E"/>
<path d="M255.533 64.4469C256.431 68.1396 257.132 71.8777 257.632 75.6451C261.27 73.3474 264.694 70.7262 267.861 67.8132L262.517 61.7065H262.556C262.556 61.7065 263.09 59.3325 260.464 50.7602C259.517 49.8213 259.227 52.0426 258.975 54.0578C258.968 54.1325 258.938 54.2028 258.888 54.2587C258.838 54.3146 258.771 54.353 258.698 54.3683C258.625 54.3837 258.548 54.3752 258.48 54.344C258.412 54.3129 258.355 54.2608 258.319 54.1952C255.907 50.0503 253.258 45.7603 252.686 45.8977C251.449 46.1954 254.8 52.0045 254.869 51.8289C253.876 52.2716 250.625 45.371 249.525 46.7603C249.128 47.2565 253.037 52.7067 252.418 52.867C251.8 53.0273 249.037 47.9435 248.434 48.3633C247.709 48.8671 250.625 53.035 250.991 54.1189C251.357 55.2029 248.602 51.7297 248.167 52.5312C247.732 53.3327 253.922 62.821 255.563 64.4545L255.533 64.4469Z" fill="#FFC56B"/>
<path d="M300.066 69.526C300.066 69.526 298.188 66.1139 294.31 69.4039C290.432 72.6939 279.975 88.556 279.975 88.556L290.196 106.418L300.066 69.526Z" fill="#FFC56B"/>
<g style="mix-blend-mode:multiply">
<path d="M276.258 106.592L298.097 70.3789C298.097 70.3789 297.685 88.8288 296.662 92.3402C292.86 105.47 276.258 106.592 276.258 106.592Z" fill="#FFF8ED"/>
</g>
<path d="M258.915 46.0527H253.93C253.573 46.0524 253.221 45.9711 252.9 45.8148C252.579 45.6586 252.298 45.4316 252.077 45.1508C251.857 44.87 251.703 44.5429 251.627 44.194C251.551 43.8451 251.556 43.4836 251.64 43.1367L254.488 31.5111C254.589 31.077 254.834 30.69 255.184 30.4128C255.533 30.1357 255.965 29.9847 256.411 29.9844C256.857 29.9847 257.29 30.1357 257.639 30.4128C257.988 30.69 258.233 31.077 258.335 31.5111L261.205 43.1749C261.283 43.5192 261.282 43.8765 261.203 44.2205C261.124 44.5645 260.969 44.8865 260.75 45.1627C260.53 45.4388 260.251 45.6622 259.933 45.8162C259.616 45.9702 259.268 46.051 258.915 46.0527Z" fill="#FFC56B"/>
<path d="M256.693 38.2891V54.7314" stroke="#020C2B" stroke-width="0.77" stroke-miterlimit="10" stroke-linecap="round"/>
<path d="M256.869 59.4941C255.464 59.4941 254.357 58.5858 254.441 57.5094L255.579 48.9219H258.166L259.273 57.5094C259.388 58.5858 258.273 59.4941 256.869 59.4941Z" fill="#020C2B" stroke="#020C2B" stroke-width="0.66" stroke-miterlimit="10"/>
<path d="M307.157 65.097L300.402 42.4106C300.211 37.0214 300.959 34.4795 302.18 33.1589C305.524 29.5483 308.043 28.5789 312.646 29.3957C333.073 33.1284 331.63 46.128 323.256 52.2958C318.447 55.7996 307.157 65.097 307.157 65.097Z" fill="#FF616B"/>
<path d="M316.775 46.1601C316.784 46.213 316.804 46.2635 316.834 46.3082C316.863 46.3528 316.902 46.3905 316.948 46.4188C316.993 46.447 317.045 46.4651 317.098 46.4718C317.151 46.4786 317.205 46.4738 317.256 46.4578C318.165 46.1677 320.394 45.7479 321.294 48.1676C322.195 50.5874 319.256 53.6637 317.623 52.6408C317.264 52.4194 316.905 53.0988 316.707 53.4881C314.88 57.276 313.548 61.2834 312.745 65.4115C311.982 69.106 313.05 73.9151 313.05 73.9151C313.05 73.9151 303.89 72.9685 298.951 71.1899C298.951 71.1899 302.554 59.6254 303.844 56.3201C302.448 55.6331 296.249 55.9766 298.005 45.4272C299.608 35.7786 304.875 34.6031 306.554 34.4046C307.951 34.2291 314.348 34.6336 316.775 46.1601Z" fill="#FF937E"/>
<path d="M306.295 57.1818C306.063 57.4084 305.774 57.5687 305.458 57.6464C305.143 57.7241 304.813 57.7162 304.502 57.6236C304.191 57.531 303.91 57.3571 303.688 57.1198C303.467 56.8824 303.313 56.5903 303.242 56.2734H307.242L306.287 57.1818" fill="#1E2046"/>
<path d="M317.234 49.5184C318.287 46.0986 320.615 48.6253 320.615 48.6253L317.234 49.5184Z" fill="#D86859"/>
<path d="M307.646 46.6185C307.143 46.6021 306.646 46.7354 306.219 47.0014C305.792 47.2675 305.453 47.6544 305.246 48.1131C305.039 48.5719 304.973 49.0817 305.056 49.5781C305.139 50.0745 305.367 50.5352 305.712 50.9016C306.057 51.268 306.503 51.5238 306.994 51.6365C307.484 51.7492 307.997 51.7137 308.468 51.5346C308.938 51.3555 309.345 51.0408 309.636 50.6304C309.927 50.2199 310.09 49.7323 310.104 49.2292C310.122 48.5575 309.874 47.9058 309.414 47.4166C308.953 46.9274 308.317 46.6405 307.646 46.6185Z" fill="#FF8169"/>
<path d="M297.745 49.1958C298.32 49.0959 298.843 48.8005 299.226 48.3596C299.608 47.9188 299.827 47.3594 299.845 46.776C299.845 45.8295 299.013 45.0127 298.257 44.5547C298.257 44.5547 297.326 47.318 297.745 49.1958Z" fill="#FF8169"/>
<path d="M299.31 47.7539L303.509 48.7768C303.509 48.7768 301.982 50.5325 300.806 50.0287C299.631 49.5249 299.31 47.7539 299.31 47.7539Z" fill="white"/>
<path d="M306.852 42.9014C307.257 43.3136 306.814 41.7259 306.211 41.4434C305.608 41.161 304.684 41.0159 304.562 41.5579C304.44 42.0999 305.883 41.9167 306.852 42.9014Z" fill="black"/>
<path d="M299.058 40.9748C298.532 41.2191 299.516 39.8908 300.18 39.845C300.844 39.7992 301.707 40.0512 301.47 40.784C301.257 41.3641 300.318 40.4023 299.058 40.9748Z" fill="black"/>
<path d="M304.448 45.3804C304.333 45.8689 304.051 46.2124 303.822 46.1437C303.593 46.075 303.486 45.6552 303.593 45.1666C303.7 44.6781 303.99 44.3346 304.226 44.4033C304.463 44.472 304.562 44.8918 304.448 45.3804Z" fill="black"/>
<path d="M300.669 44.5405C300.562 45.0061 300.295 45.3038 300.066 45.3038C299.837 45.3038 299.746 44.8305 299.853 44.3649C299.959 43.8993 300.234 43.6016 300.456 43.6016C300.677 43.6016 300.776 44.0748 300.669 44.5405Z" fill="black"/>
<path d="M322.737 38.9526C324.34 41.1281 317.394 34.2428 316.409 35.258C318.142 35.6931 317.402 42.3418 317.402 42.3418C312.226 44.4486 312.738 36.9145 312.898 35.9985C301.036 44.5784 301.776 33.7619 303.074 30.2582C305.494 23.6934 316.89 26.0979 322.287 31.1436C324.34 33.0672 320.829 36.3725 322.737 38.9526Z" fill="#FF616B"/>
<path d="M301.509 46.9904L299.936 46.6546C300.5 45.8697 301.115 45.1225 301.776 44.418L301.509 46.9904Z" fill="#D86859"/>
<path d="M320.562 67.6013C317.768 67.1527 315.026 66.4239 312.379 65.4258C312.211 65.7693 306.119 70.7692 302.722 69.7768C301.959 69.5878 301.287 69.1345 300.826 68.4974C300.365 67.8602 300.144 67.0803 300.203 66.296C300.455 66.9525 289.516 80.2117 288.234 86.5703C287.028 92.5854 290.272 111.47 290.272 113.829H320.806C320.806 113.829 323.226 75.6774 320.562 67.6013Z" fill="#FFC56B"/>
<g style="mix-blend-mode:multiply">
<path d="M326.447 75.5L296.249 114.659L319.806 115.11C319.806 115.11 326.63 83.7288 326.447 75.5Z" fill="#FFF8ED"/>
</g>
<path d="M337.439 100.823C346.691 97.5563 356.683 97.854 362.958 96.2434C367.469 93.0603 366.981 93.6938 370.53 91.6099C370.53 91.6099 374.347 89.068 373.996 90.8084C373.935 91.1672 369.919 95.251 370.301 95.2205C370.683 95.19 381.232 94.0373 381.347 95.0297C381.461 96.022 374.782 96.0602 374.843 96.5564C374.904 97.0525 381.614 96.1823 381.973 96.9915C382.331 97.8006 375.461 98.5181 375.759 98.8235C376.057 99.1288 382.24 98.1365 382.446 98.8235C382.652 99.5105 375.935 100.35 375.851 100.678C375.767 101.007 381.957 100.022 382.537 100.678C382.98 101.144 377.049 102.022 375.331 102.747C371.763 104.265 368.077 105.487 364.309 106.403C361.752 108.006 335.699 118.777 324.386 116.518C324.386 116.518 322.478 113.732 321.608 106.419L337.439 100.823Z" fill="#FF937E"/>
<path d="M382.537 100.647C381.942 100.021 375.759 101.021 375.851 100.647C375.942 100.273 382.652 99.4411 382.446 98.7922C382.24 98.1434 376.049 99.1357 375.759 98.7922C375.469 98.4487 382.324 97.7694 381.973 96.9602C381.621 96.1511 374.896 97.0213 374.843 96.5251C374.79 96.0289 381.469 95.9908 381.347 94.9984C381.225 94.0061 370.66 95.1587 370.301 95.1893C369.942 95.2198 373.935 91.1359 373.996 90.7772C374.309 89.0368 370.53 91.5787 370.53 91.5787C366.981 93.6626 367.477 93.029 362.958 96.2121C361.385 96.6091 358.988 95.3801 357.019 95.6244C357.401 99.4869 357.966 106.761 358.584 110.593C361.263 109.502 363.706 106.685 364.309 106.311C368.065 105.413 371.741 104.211 375.301 102.716C377.049 101.991 382.98 101.113 382.537 100.647Z" fill="#FFC56B"/>
<path d="M338.485 100.905L320.997 107.431C320.997 107.431 306.234 70.478 317.676 67.6537C329.119 64.8293 338.485 100.905 338.485 100.905Z" fill="#FFC56B"/>
<path d="M286.99 76.3387C287.317 78.3662 288.132 80.284 289.364 81.9263C290.288 83.1553 291.532 84.3232 293.181 83.7812C293.96 83.4665 294.666 82.9964 295.257 82.3996C296.151 81.6362 297.021 80.7737 297.876 79.9416C298.731 79.1096 299.402 78.4149 300.166 77.6516C300.911 76.7637 301.753 75.9622 302.677 75.2624C304.807 73.9036 307.333 75.1173 308.99 76.644C310.517 78.0333 311.654 79.7737 313.295 81.0256C313.948 81.5897 314.712 82.0093 315.538 82.2567C316.365 82.504 317.234 82.5735 318.089 82.4606C319.738 82.1324 320.921 80.8729 321.852 79.5523C324.264 76.1173 326.325 71.7968 330.89 70.9571C331.264 70.8884 331.104 70.3159 330.73 70.3846C327.447 70.9877 325.135 73.5449 323.325 76.1784C322.318 77.6516 321.516 79.3157 320.272 80.5828C318.623 82.2164 316.455 82.2622 314.509 81.1172C311.249 79.2012 309.7 74.9494 305.723 74.1708C304.978 74.0272 304.21 74.0654 303.483 74.282C302.756 74.4986 302.092 74.8873 301.547 75.415C300.021 76.7814 298.7 78.3615 297.235 79.7813C296.349 80.6286 295.471 81.4912 294.532 82.2851C293.303 83.3232 291.975 83.766 290.716 82.5217C289.058 80.7824 287.99 78.5659 287.662 76.186C287.594 75.812 287.021 75.9723 287.09 76.3463L286.99 76.3387Z" fill="#1E2046"/>
<path d="M281.983 82.3377C282.945 84.8597 284.104 87.3023 285.448 89.6429C286.616 91.8226 288.058 93.844 289.738 95.658C290.468 96.4724 291.353 97.1325 292.341 97.5993C293.33 98.066 294.402 98.3299 295.494 98.3755C297.906 98.3755 300.074 97.1236 301.96 95.6962C302.833 94.9245 303.812 94.2819 304.868 93.7878C305.59 93.5462 306.356 93.4667 307.112 93.5551C307.868 93.6435 308.595 93.8976 309.242 94.2992C311.471 95.5206 312.99 97.6045 314.921 99.2151C316.547 100.566 318.471 101.559 320.646 101.238C322.936 100.902 324.905 99.3755 326.57 97.8564C327.631 96.8872 328.613 95.8356 329.508 94.7115C330.336 93.4787 331.252 92.3077 332.249 91.2077C334.539 89.0551 337.76 89.3757 340.646 89.7345C341.027 89.7803 341.02 89.1849 340.646 89.1391C338.417 88.8643 336.004 88.5971 333.867 89.4749C331.73 90.3528 330.646 92.3146 329.287 94.055C327.679 96.2292 325.69 98.0939 323.417 99.5586C322.352 100.287 321.087 100.667 319.797 100.648C318.507 100.629 317.254 100.211 316.211 99.4518C312.944 97.1618 309.982 91.8947 305.288 93.0397C303.089 93.5741 301.471 95.5359 299.563 96.5969C297.158 97.9175 294.448 98.2457 292.044 96.7572C289.639 95.2687 288.021 92.7268 286.586 90.3757C285.003 87.772 283.66 85.0307 282.571 82.185C282.433 81.8263 281.861 81.9789 281.998 82.3377H281.983Z" fill="#1E2046"/>
<path d="M320.562 114.318C321.951 114.631 329.317 123.799 332.325 138.524C333.409 143.867 337.378 165.172 344.538 189.309C354.645 223.522 361.332 263.918 362.171 277.505C358.469 278.474 347.057 279.093 344.714 278.948C339.241 261.444 316.47 194.164 306.417 161.287C306.323 160.936 306.101 160.633 305.796 160.436C305.49 160.239 305.123 160.163 304.764 160.222C304.406 160.281 304.082 160.471 303.856 160.755C303.629 161.039 303.517 161.397 303.539 161.76C303.219 196.27 307.165 270.04 305.562 279.039C303.616 280.108 290.257 279.612 288.005 279.306C285.57 250.773 266.632 130.692 291.204 113.082C303.478 112.822 311.898 112.357 320.562 114.318Z" fill="#8064A2"/>
<path d="M292.86 113.34C292.86 113.34 288.715 114.439 283.395 135.927C277.067 161.491 289.807 279.488 289.807 279.488" stroke="white" stroke-width="0.48" stroke-miterlimit="10"/>
<path d="M317.882 113.051C317.882 113.051 322.31 123.982 339.645 188.82C345.752 211.72 352.324 239.048 360.881 277.955" stroke="white" stroke-width="0.48" stroke-miterlimit="10"/>
<path d="M287.082 279.846C286.898 279.663 286.356 272.289 286.356 272.289L306.883 273.182L305.982 280.205L287.082 279.846Z" fill="#B5E8D3"/>
<path d="M342.164 273.008L344.324 279.664L362.866 278.229L362.507 271.023L342.164 273.008Z" fill="#B5E8D3"/>
<g style="mix-blend-mode:multiply" opacity="0.28">
<path d="M291.204 112.777L331.241 135.181C331.241 135.181 329.714 123.433 319.264 112.762L291.204 112.777Z" fill="#8CD1B5"/>
</g>
<path d="M288.845 116.625H321.417V112.007H288.845V116.625Z" fill="#8CD1B5"/>
<path d="M228.427 85.9918C225.959 83.5049 224.096 80.4851 222.979 77.1648C221.862 73.8444 221.521 70.3121 221.984 66.8397C222.976 66.687 223.847 67.4656 224.534 68.206C226.88 70.5694 228.769 73.3463 230.106 76.3967C231.441 79.4801 231.577 82.9508 230.488 86.1292" fill="#8CD1B5"/>
<path d="M228.893 86.0524C227.073 83.8767 224.807 82.1175 222.248 80.894C219.689 79.6705 216.897 79.0113 214.061 78.9609C215.475 81.6938 217.67 83.9443 220.366 85.4264C221.715 86.1523 223.202 86.5834 224.73 86.6913C226.258 86.7992 227.791 86.5814 229.229 86.0524" fill="#8CD1B5"/>
<path d="M241.037 87.1912C240.321 82.9447 240.417 78.6008 241.319 74.39C242.235 70.161 244.412 66.3094 247.564 63.3445C247.691 63.1938 247.85 63.0733 248.03 62.9914C248.209 62.9096 248.404 62.8686 248.602 62.8712C249.75 67.7312 249.645 72.803 248.296 77.6113C247.327 81.0311 245.617 84.4127 242.678 86.405" fill="#8CD1B5"/>
<path d="M256.014 83.3488C255.381 86.136 255.61 89.05 256.67 91.7042C257.731 94.3585 259.573 96.6277 261.953 98.211C262.958 96.9648 263.611 95.4719 263.843 93.8876C264.076 92.3034 263.879 90.6859 263.273 89.2036C262.642 87.7327 261.723 86.4026 260.571 85.2911C259.418 84.1796 258.056 83.3091 256.564 82.7305" fill="#8CD1B5"/>
<path d="M235.648 70.1282C230.77 67.1512 226.236 63.4185 223.106 58.6323C219.977 53.8462 218.343 47.9456 219.465 42.2969C226.967 46.0834 232.712 52.627 235.495 60.556C236.518 63.5253 237.068 66.9375 235.595 69.716" fill="#8CD1B5"/>
<path d="M243.923 86.3341C246.213 83.7158 249.266 80.4488 253.083 81.6472C257.075 82.8914 258.625 87.2272 259.678 90.8073C259.721 90.9294 259.808 91.0309 259.922 91.0912C260.037 91.1515 260.17 91.1662 260.295 91.1323C260.42 91.0985 260.527 91.0185 260.595 90.9086C260.664 90.7987 260.688 90.6671 260.663 90.5401C259.495 86.5402 257.731 81.9831 253.358 80.6167C249.129 79.2961 245.724 82.6472 243.175 85.5631C242.747 86.0593 243.465 86.7845 243.9 86.2883L243.923 86.3341Z" fill="#5BC29C"/>
<path d="M235.61 85.996C239.495 73.92 233.472 61.9279 227.938 51.4701C227.625 50.89 226.747 51.4014 227.053 51.9816C232.457 62.2027 238.419 73.92 234.625 85.7288C234.419 86.3548 235.388 86.6219 235.61 85.996Z" fill="#5BC29C"/>
<path d="M243.472 119.511H230.32C228.766 119.512 227.226 119.206 225.79 118.612C224.354 118.018 223.048 117.147 221.949 116.048C220.849 114.949 219.977 113.644 219.382 112.208C218.787 110.772 218.481 109.233 218.481 107.679L224.053 85.3359H248.854L255.312 107.679C255.312 109.233 255.006 110.772 254.41 112.208C253.815 113.644 252.943 114.949 251.844 116.048C250.744 117.147 249.439 118.018 248.003 118.612C246.566 119.206 245.027 119.512 243.472 119.511Z" fill="#0096C8"/>
<path d="M227.595 91.4626C227.771 91.4443 227.935 91.3612 228.054 91.2294C228.173 91.0976 228.238 90.9264 228.238 90.7489C228.238 90.5714 228.173 90.4002 228.054 90.2683C227.935 90.1365 227.771 90.0534 227.595 90.0352C227.418 90.0534 227.255 90.1365 227.136 90.2683C227.017 90.4002 226.951 90.5714 226.951 90.7489C226.951 90.9264 227.017 91.0976 227.136 91.2294C227.255 91.3612 227.418 91.4443 227.595 91.4626Z" fill="#FCFCFC"/>
<path d="M236.198 98.5485C236.374 98.5303 236.538 98.4472 236.657 98.3153C236.775 98.1835 236.841 98.0123 236.841 97.8348C236.841 97.6573 236.775 97.4861 236.657 97.3543C236.538 97.2225 236.374 97.1394 236.198 97.1211C236.021 97.1394 235.858 97.2225 235.739 97.3543C235.62 97.4861 235.554 97.6573 235.554 97.8348C235.554 98.0123 235.62 98.1835 235.739 98.3153C235.858 98.4472 236.021 98.5303 236.198 98.5485Z" fill="#FCFCFC"/>
<path d="M225.312 106.904C225.489 106.886 225.652 106.803 225.771 106.671C225.89 106.539 225.956 106.368 225.956 106.19C225.956 106.013 225.89 105.842 225.771 105.71C225.652 105.578 225.489 105.495 225.312 105.477C225.136 105.495 224.972 105.578 224.853 105.71C224.734 105.842 224.669 106.013 224.669 106.19C224.669 106.368 224.734 106.539 224.853 106.671C224.972 106.803 225.136 106.886 225.312 106.904Z" fill="#FCFCFC"/>
<path d="M246.831 91.4626C247.007 91.4443 247.171 91.3612 247.29 91.2294C247.409 91.0976 247.475 90.9264 247.475 90.7489C247.475 90.5714 247.409 90.4002 247.29 90.2683C247.171 90.1365 247.007 90.0534 246.831 90.0352C246.654 90.0534 246.491 90.1365 246.372 90.2683C246.253 90.4002 246.187 90.5714 246.187 90.7489C246.187 90.9264 246.253 91.0976 246.372 91.2294C246.491 91.3612 246.654 91.4443 246.831 91.4626Z" fill="#FCFCFC"/>
<path d="M249.35 106.396C249.526 106.378 249.69 106.295 249.809 106.163C249.928 106.031 249.994 105.86 249.994 105.682C249.994 105.505 249.928 105.334 249.809 105.202C249.69 105.07 249.526 104.987 249.35 104.969C249.173 104.987 249.01 105.07 248.891 105.202C248.772 105.334 248.706 105.505 248.706 105.682C248.706 105.86 248.772 106.031 248.891 106.163C249.01 106.295 249.173 106.378 249.35 106.396Z" fill="#FCFCFC"/>
<path d="M237.465 116.021C237.641 116.003 237.805 115.92 237.924 115.788C238.043 115.656 238.109 115.485 238.109 115.307C238.109 115.13 238.043 114.959 237.924 114.827C237.805 114.695 237.641 114.612 237.465 114.594C237.288 114.612 237.125 114.695 237.006 114.827C236.887 114.959 236.821 115.13 236.821 115.307C236.821 115.485 236.887 115.656 237.006 115.788C237.125 115.92 237.288 116.003 237.465 116.021Z" fill="#FCFCFC"/>
<path d="M221.42 97.8999C225.771 98.5105 228.641 102.052 230.412 105.808C232.183 109.564 233.786 114.754 230.503 118.22C230.137 118.602 230.717 119.182 231.083 118.8C234.488 115.205 233.175 110.014 231.389 105.991C229.549 101.839 226.427 97.7854 221.641 97.1136C221.122 97.0449 220.878 97.8312 221.42 97.877V97.8999Z" fill="#FCFCFC"/>
<path d="M237.358 85.9224C237.218 88.1842 237.531 90.4513 238.279 92.5903C239.028 94.7293 240.196 96.6972 241.716 98.3783C243.236 100.059 245.076 101.42 247.129 102.38C249.182 103.34 251.406 103.879 253.67 103.968C254.197 103.968 254.197 103.204 253.67 103.151C251.513 103.064 249.395 102.546 247.441 101.627C245.487 100.709 243.737 99.4084 242.293 97.8028C240.85 96.1971 239.742 94.3187 239.036 92.2783C238.33 90.2379 238.04 88.0768 238.182 85.9224C238.182 85.3957 237.419 85.3957 237.358 85.9224Z" fill="#FCFCFC"/>
<path d="M264.014 119.598H209.58V126.132H264.014V119.598Z" fill="#A94846"/>
<path d="M213.939 126.133L272.731 298.151" stroke="#A94846" stroke-width="2" stroke-miterlimit="10"/>
<path d="M258.579 126.133L199.786 298.151" stroke="#A94846" stroke-width="2" stroke-miterlimit="10"/>
<path d="M551.565 277.718L550.489 297.359L529.81 299.153L539.054 290.16L536.619 277.52L551.565 277.718Z" fill="#FF937E"/>
<path d="M548.901 278.184L547.809 295.893L551.069 290.45L551.29 279.092L548.901 278.184Z" fill="#E0603D"/>
<path d="M533.55 294.434L528.84 298.701C528.321 299.098 528.688 299.762 529.42 299.77C529.42 299.77 553.847 299.64 553.847 299.312C554.046 297.274 551.641 290.114 551.29 288.259C551.244 287.992 539.023 298.823 537.321 298.182C536.191 297.801 533.894 294.167 533.55 294.434Z" fill="#45A2B9"/>
<path d="M541.123 29.8241C541.123 29.8241 539.39 35.4194 537.649 43.1291C536.932 46.3351 532.222 46.3962 530.329 51.0373C528.589 55.2738 529.169 60.0981 528.589 62.7927C526.711 71.5635 520.108 63.3728 520.49 68.7696C520.871 74.1665 568.694 105.769 585.892 74.7466C585.892 74.7466 586.465 68.9605 578.374 63.953C570.282 58.9455 570.465 60.0981 570.855 53.9227C571.244 47.7473 572.778 48.1442 566.221 40.8162C562.336 36.4728 563.527 30.9844 559.282 29.4424C555.038 27.9005 541.123 29.8241 541.123 29.8241Z" fill="#FFC56B"/>
<path d="M540.527 50.875C540.527 50.875 545.206 58.0886 543.626 70.5081C543.626 70.5081 546.908 97.8814 560.48 68.9814L554.832 53.9207L540.527 50.875Z" fill="#FF937E"/>
<path d="M555.977 54.1838C555.733 57.1074 552.619 62.1912 549.871 62.1302C546.55 62.0462 543.344 58.4661 543.252 53.3289C543.252 51.2984 548.68 51.1304 551.397 51.3594C554.115 51.5884 556.222 51.2678 555.977 54.1838Z" fill="#1E2046"/>
<path d="M562.084 48.5193L558.435 48.0842L558.916 44.0156L562.565 44.4507C562.833 44.4829 563.092 44.5676 563.328 44.7002C563.563 44.8328 563.77 45.0106 563.937 45.2233C564.104 45.4361 564.227 45.6796 564.299 45.94C564.371 46.2004 564.392 46.4725 564.359 46.7407C564.292 47.2778 564.015 47.7665 563.589 48.0999C563.162 48.4332 562.621 48.584 562.084 48.5193Z" fill="#FF937E"/>
<path d="M538.214 44.5263L541.886 44.4805L541.939 48.572L538.267 48.6254C537.724 48.6315 537.2 48.4221 536.811 48.0429C536.422 47.6638 536.199 47.1458 536.191 46.6026C536.185 46.0593 536.394 45.5357 536.774 45.1465C537.153 44.7573 537.671 44.5343 538.214 44.5263Z" fill="#FF937E"/>
<path d="M538.084 45.6172H539.611V47.3118H538.084C537.859 47.3139 537.641 47.2268 537.48 47.0695C537.318 46.9123 537.225 46.6976 537.221 46.4722C537.221 46.3592 537.244 46.2474 537.287 46.1432C537.331 46.039 537.394 45.9444 537.475 45.8649C537.555 45.7854 537.65 45.7226 537.754 45.6801C537.859 45.6376 537.971 45.6162 538.084 45.6172Z" fill="#D9634C"/>
<path d="M562.481 45.6163L560.954 45.4102L560.725 47.0819L562.252 47.288C562.365 47.3028 562.48 47.2947 562.59 47.264C562.699 47.2334 562.802 47.1808 562.891 47.1095C562.98 47.0382 563.054 46.9497 563.108 46.8492C563.162 46.7487 563.195 46.6383 563.206 46.5246C563.225 46.3089 563.161 46.094 563.026 45.9247C562.891 45.7554 562.695 45.6449 562.481 45.6163Z" fill="#D9634C"/>
<path d="M551.809 30.6645C558.817 31.5118 562.717 37.9162 561.862 44.9237L561.794 45.458C560.649 52.9693 554.443 59.0149 548.817 58.5111C543.191 58.0073 538.13 49.3511 538.962 42.336L539.031 41.8016C539.878 34.7789 544.802 29.8172 551.809 30.6645Z" fill="#FF937E"/>
<path d="M549.763 53.0971H549.359C548.667 53.0752 548.013 52.7799 547.54 52.2762C547.066 51.7724 546.811 51.1013 546.832 50.4102L552.45 50.5781C552.439 50.92 552.361 51.2564 552.22 51.568C552.079 51.8797 551.878 52.1605 551.629 52.3945C551.379 52.6284 551.086 52.8109 550.766 52.9315C550.446 53.052 550.105 53.1083 549.763 53.0971Z" fill="white"/>
<path d="M553.488 47.2032C553.488 47.7452 553.19 48.1803 552.847 48.1726C552.503 48.165 552.229 47.7223 552.236 47.1803C552.244 46.6383 552.534 46.1956 552.877 46.2032C553.221 46.2109 553.496 46.6536 553.488 47.2032Z" fill="#1E2046"/>
<path d="M548.092 47.0901C548.092 47.6397 547.794 48.0748 547.45 48.0672C547.107 48.0595 546.832 47.6168 546.84 47.0672C546.847 46.5176 547.137 46.0901 547.481 46.0978C547.824 46.1054 548.099 46.5481 548.092 47.0901Z" fill="#1E2046"/>
<path d="M550.481 49.5341H549.252C549.099 49.5341 549 49.2898 549.061 49.0761L549.779 46.5952C549.847 46.351 550.061 46.3357 550.145 46.5952L550.641 49.0761C550.779 49.2822 550.641 49.5341 550.481 49.5341Z" fill="#D9634C"/>
<path d="M545.695 49.4878C545.651 49.1997 545.522 48.9311 545.325 48.7162C545.128 48.5013 544.872 48.3496 544.588 48.2804C544.305 48.2112 544.008 48.2276 543.734 48.3274C543.46 48.4273 543.222 48.6062 543.05 48.8415C542.878 49.0767 542.779 49.3578 542.767 49.6491C542.754 49.9403 542.829 50.2287 542.98 50.4777C543.132 50.7267 543.354 50.9251 543.618 51.0479C543.883 51.1706 544.178 51.2121 544.466 51.1672C544.849 51.1033 545.193 50.8918 545.423 50.5779C545.652 50.2641 545.75 49.8728 545.695 49.4878Z" fill="#FF7C6B"/>
<path d="M557.389 50.0442C557.366 49.8472 557.303 49.6568 557.205 49.4846C557.107 49.3123 556.974 49.1617 556.816 49.0418C556.658 48.9219 556.478 48.8351 556.285 48.7867C556.093 48.7383 555.893 48.7293 555.697 48.7601C555.501 48.791 555.313 48.8611 555.145 48.9663C554.977 49.0715 554.831 49.2096 554.718 49.3723C554.604 49.5349 554.525 49.7189 554.484 49.9131C554.443 50.1072 554.442 50.3076 554.481 50.5022C554.555 50.8755 554.771 51.2057 555.083 51.4235C555.395 51.6414 555.779 51.73 556.155 51.6707C556.531 51.6115 556.87 51.4091 557.1 51.1059C557.33 50.8027 557.433 50.4222 557.389 50.0442Z" fill="#FF7C6B"/>
<path d="M555.008 44.623C555.473 45.0199 554.862 43.3787 554.198 43.0963C554.055 43.0296 553.9 42.9919 553.742 42.9854C553.584 42.9789 553.427 43.0036 553.278 43.0583C553.13 43.1129 552.994 43.1963 552.878 43.3037C552.762 43.4111 552.669 43.5404 552.603 43.684C553.49 43.7031 554.342 44.0357 555.008 44.623Z" fill="#1E2046"/>
<path d="M545.328 43.5785C544.802 43.8838 545.718 42.3877 546.412 42.2732C546.722 42.197 547.049 42.2466 547.322 42.4111C547.596 42.5756 547.793 42.8417 547.87 43.151C546.999 42.9945 546.1 43.1456 545.328 43.5785Z" fill="#1E2046"/>
<path d="M538.825 44.3188C538.825 44.3188 545.695 37.5709 546.138 35.3191C546.138 35.3191 544.977 40.8151 555.97 38.3114C559.344 37.548 557.496 46.647 561.885 44.2883C561.885 44.2883 569.275 26.5941 549.672 25.9682C539.176 25.6781 537.565 34.1664 538.825 44.3188Z" fill="#FFC56B"/>
<path d="M560.221 88.4481C571.618 87.3336 586.442 83.0436 592.884 78.1659C600.417 72.4065 606.191 64.6575 609.556 55.7924L620.845 26.381C620.845 26.381 630.463 9.85467 629.876 9.27453C628.914 8.32035 626.212 12.534 625.013 14.5187C625.008 14.5287 625.001 14.5376 624.993 14.545C624.984 14.5523 624.974 14.5579 624.964 14.5615C624.953 14.565 624.942 14.5664 624.931 14.5656C624.92 14.5648 624.909 14.5619 624.899 14.5568C624.889 14.5518 624.88 14.5449 624.872 14.5364C624.865 14.528 624.859 14.5181 624.856 14.5075C624.852 14.4969 624.851 14.4856 624.852 14.4745C624.853 14.4633 624.856 14.4524 624.861 14.4423L627.532 7.67915C628.387 5.8853 627.189 6.15247 627.044 6.38911L622.532 13.8622C622.522 13.8807 622.505 13.8947 622.485 13.9014C622.465 13.9082 622.444 13.9071 622.424 13.8984C622.405 13.8897 622.39 13.8741 622.381 13.8547C622.373 13.8352 622.373 13.8134 622.38 13.7935L625.212 4.70213C625.586 3.06858 624.38 3.67925 624.265 3.93879L620.059 12.3355C620.006 12.4271 619.861 12.3355 619.891 12.2745C620.578 10.1982 622.135 6.03797 621.998 4.36626C621.899 3.15255 621.296 3.91589 621.09 4.11436C620.128 5.038 615.044 17.5339 615.044 17.5339C615.044 17.5339 613.044 10.6104 612.143 11.7172C611.563 12.4348 612.769 16.366 612.617 20.2208C612.517 22.7017 613.243 23.0223 612.189 25.297L596.77 53.907C595.548 56.2067 593.957 58.2903 592.06 60.0748C587.945 63.8915 580.556 68.7005 568.725 69.7539L560.221 88.4481Z" fill="#FF937E"/>
<path d="M534.039 90.0067C499.52 98.0523 481.101 46.5803 481.101 46.5803L475.88 34.7791C475.88 34.7791 463.666 20.039 464.178 19.3749C464.941 18.2833 468.33 22.0008 469.834 23.7641C469.903 23.848 470.025 23.7641 469.972 23.6572L466.231 17.4207C465.101 15.7872 466.315 15.8177 466.506 16.0696L472.155 22.6801C472.167 22.6994 472.186 22.713 472.208 22.718C472.23 22.723 472.254 22.719 472.273 22.7068C472.292 22.6947 472.306 22.6754 472.311 22.6532C472.316 22.631 472.312 22.6078 472.3 22.5885L468.025 14.0849C467.384 12.5583 468.674 12.9399 468.788 13.1537L474.307 20.7871C474.376 20.871 474.513 20.7871 474.46 20.6955C473.452 18.7642 471.231 14.9093 471.094 13.2376C471.002 12.0239 471.712 12.6804 471.949 12.8407C473.055 13.604 480.101 25.0999 480.101 25.0999C480.101 25.0999 480.948 17.9474 482.017 18.8863C482.704 19.497 482.154 23.5732 482.941 27.3518C483.437 29.7868 482.773 30.2143 484.185 32.2906L494.421 47.4581C502.894 60.4349 518.55 74.8544 540.718 69.2362L542.756 68.9156L534.039 90.0067Z" fill="#FF937E"/>
<path d="M480.124 25.0781C480.124 25.0781 478.902 26.4063 479.498 29.0628" stroke="#A94846" stroke-width="0.12" stroke-miterlimit="10" stroke-linecap="round"/>
<path d="M475.513 20.8867C475.513 20.8867 471.59 22.4134 470.407 24.337" stroke="#A94846" stroke-width="0.12" stroke-miterlimit="10" stroke-linecap="round"/>
<path d="M540.741 69.2109C532.703 71.3858 524.162 70.7392 516.543 67.3789C513.619 73.0658 506.62 79.5923 503.91 82.0732C510.467 90.3631 523.604 93.1263 533.794 90.7524L543.435 67.6003L540.741 69.2109Z" fill="#FF616B"/>
<path d="M586.335 64.3438C580.964 67.4429 574.962 69.2903 568.778 69.7482L559.152 88.7935C568.419 93.03 580.969 85.5722 588.571 81.1143C587.251 75.9312 587.648 69.5192 586.335 64.3438Z" fill="#FF616B"/>
<path d="M544.58 68.8748C543.817 69.3862 532.68 86.2178 531.374 92.2406C530.191 97.7137 536.214 115.614 539.962 123.041C539.962 123.041 554.939 126.965 565.702 124.202C567.87 115.805 572.106 84.5079 569.076 69.348C569.076 69.348 563.076 68.0275 560.206 67.6992C560.206 67.6992 545.191 79.1493 544.58 68.8748Z" fill="#FF937E"/>
<path d="M543.626 67.2266C542.863 67.738 531.061 86.5314 529.764 92.5542C528.581 98.0273 532.413 103.447 532.443 108.874C532.443 108.874 561.595 111.065 572.358 108.294C574.518 99.8975 572.488 84.1116 569.465 68.9593C569.465 68.9593 562.939 66.7304 560.206 67.6998C560.206 67.6998 546.137 81.8827 543.626 67.2266Z" fill="#FF616B"/>
<g style="mix-blend-mode:multiply" opacity="0.5">
<g style="mix-blend-mode:multiply" opacity="0.5">
<path d="M554.656 109.692C561.473 109.692 568.252 109.348 572.358 108.295C573.259 104.806 573.427 100.028 573.122 94.5547C567.8 100.539 561.568 105.647 554.656 109.692Z" fill="#FF616B"/>
</g>
</g>
<path d="M593.434 277.617L598.327 297.456L621.418 299.151L607.929 289.243L605.181 277.907L593.434 277.617Z" fill="#FF937E"/>
<path d="M598.8 277.764L598.67 294.969L596.793 292.801L592.701 277.008L598.8 277.764Z" fill="#E0603D"/>
<path d="M617.868 294.435L622.586 298.702C623.097 299.099 622.731 299.763 621.998 299.77C621.998 299.77 596.808 299.641 596.754 299.312C596.556 297.274 596.151 293.206 596.503 291.358C596.556 291.091 612.395 298.824 614.059 298.228C615.235 297.801 617.525 294.167 617.868 294.435Z" fill="#45A2B9"/>
<path d="M566.282 115.233C567.664 115.546 575.633 125.92 578.641 140.69C579.725 145.995 583.702 167.338 590.854 191.467C600.961 225.68 607.648 266.084 608.495 279.671C604.785 280.641 593.373 281.251 591.03 281.114C585.564 263.611 562.786 196.33 552.733 163.453C552.638 163.103 552.417 162.801 552.113 162.605C551.808 162.409 551.442 162.332 551.084 162.39C550.727 162.448 550.403 162.636 550.176 162.918C549.949 163.201 549.835 163.557 549.855 163.919C549.534 198.437 553.489 272.206 551.878 281.206C549.931 282.274 536.611 281.778 534.321 281.473C531.878 252.932 512.948 132.858 537.52 115.248C549.802 114.989 557.649 113.271 566.282 115.233Z" fill="#0096C8"/>
<path d="M539.176 115.508C539.176 115.508 535.031 116.599 529.703 138.095C523.382 163.621 536.13 281.656 536.13 281.656" stroke="white" stroke-width="0.48" stroke-miterlimit="10"/>
<path d="M564.198 115.219C564.198 115.219 568.625 126.15 585.968 190.988C592.075 213.888 598.64 241.216 607.205 280.123" stroke="white" stroke-width="0.48" stroke-miterlimit="10"/>
<g style="mix-blend-mode:multiply" opacity="0.28">
<path d="M537.519 114.93L577.556 137.334C577.556 137.334 575.969 125.616 565.587 114.93H537.519Z" fill="#8CD1B5"/>
</g>
<path d="M574.755 27.6693C575.641 28.2418 575.618 29.8601 574.702 31.2875C573.786 32.715 572.32 33.4173 571.427 32.8142C570.534 32.2112 570.572 30.6234 571.488 29.196C572.404 27.7685 573.87 27.1426 574.755 27.6693Z" fill="#3F468E"/>
<path d="M582.228 23.3836C583.121 23.9485 583.091 25.5668 582.175 27.0019C581.259 28.437 579.793 29.124 578.908 28.5286C578.022 27.9331 578.045 26.3378 578.961 24.9103C579.877 23.4829 581.312 22.8111 582.228 23.3836Z" fill="#3F468E"/>
<path d="M575.022 28.412C574.839 28.1372 574.526 18.168 574.526 18.168L582.48 11.1758V24.4274" stroke="#3F468E" stroke-width="0.84" stroke-linecap="round" stroke-linejoin="round"/>
<path d="M492.849 110.446C493.734 111.011 493.711 112.629 492.795 114.064C491.879 115.499 490.414 116.186 489.528 115.591C488.643 114.996 488.666 113.4 489.582 111.973C490.498 110.545 492.001 109.874 492.849 110.446Z" fill="#3F468E"/>
<path d="M500.33 106.149C501.215 106.722 501.185 108.34 500.269 109.768C499.353 111.195 497.887 111.89 497.001 111.294C496.116 110.699 496.139 109.103 497.055 107.676C497.971 106.249 499.436 105.577 500.33 106.149Z" fill="#3F468E"/>
<path d="M493.116 111.189C492.94 110.914 492.62 100.945 492.62 100.945L500.574 93.9453V107.197" stroke="#3F468E" stroke-width="0.84" stroke-linecap="round" stroke-linejoin="round"/>
<path d="M589.419 95.5698C589.42 94.7101 589.167 93.8693 588.69 93.1538C588.213 92.4384 587.535 91.8805 586.741 91.5508C585.947 91.2211 585.073 91.1345 584.23 91.3018C583.387 91.4692 582.612 91.883 582.004 92.4909C581.396 93.0988 580.983 93.8734 580.815 94.7167C580.648 95.5599 580.735 96.4339 581.064 97.2278C581.394 98.0218 581.952 98.7001 582.667 99.1767C583.383 99.6534 584.224 99.9071 585.083 99.9056C585.653 99.9056 586.216 99.7934 586.742 99.5755C587.268 99.3576 587.746 99.0382 588.149 98.6356C588.552 98.233 588.871 97.755 589.089 97.229C589.307 96.703 589.419 96.1392 589.419 95.5698Z" fill="#3F468E"/>
<path d="M507.864 27.8942C510.258 27.8942 512.2 25.953 512.2 23.5584C512.2 21.1638 510.258 19.2227 507.864 19.2227C505.469 19.2227 503.528 21.1638 503.528 23.5584C503.528 25.953 505.469 27.8942 507.864 27.8942Z" fill="#3F468E"/>
<path d="M489.643 169.316C492.037 169.316 493.979 167.375 493.979 164.98C493.979 162.586 492.037 160.645 489.643 160.645C487.248 160.645 485.307 162.586 485.307 164.98C485.307 167.375 487.248 169.316 489.643 169.316Z" fill="#3F468E"/>
<path d="M613.709 206.621C613.709 205.763 613.454 204.925 612.978 204.212C612.501 203.499 611.824 202.943 611.032 202.615C610.24 202.287 609.368 202.201 608.527 202.368C607.686 202.536 606.913 202.949 606.307 203.555C605.701 204.161 605.288 204.934 605.12 205.775C604.953 206.616 605.039 207.488 605.367 208.28C605.695 209.072 606.251 209.75 606.964 210.226C607.677 210.702 608.515 210.957 609.373 210.957C610.523 210.957 611.626 210.5 612.439 209.687C613.252 208.874 613.709 207.771 613.709 206.621Z" fill="#3F468E"/>
<path d="M633.662 30.4958C636.057 30.4958 637.998 28.5546 637.998 26.16C637.998 23.7654 636.057 21.8242 633.662 21.8242C631.267 21.8242 629.326 23.7654 629.326 26.16C629.326 28.5546 631.267 30.4958 633.662 30.4958Z" fill="#3F468E"/>
<path d="M534.703 56.7857C534.185 55.8961 533.415 55.1801 532.49 54.7281C531.565 54.276 530.527 54.1083 529.507 54.2461C528.487 54.3838 527.531 54.8209 526.759 55.502C525.987 56.1832 525.435 57.0778 525.171 58.0729C524.908 59.0679 524.945 60.1188 525.279 61.0926C525.613 62.0663 526.228 62.9193 527.046 63.5438C527.864 64.1682 528.849 64.5361 529.877 64.6009C530.904 64.6656 531.927 64.4244 532.817 63.9076C534.011 63.2125 534.88 62.072 535.234 60.7367C535.587 59.4014 535.396 57.9804 534.703 56.7857Z" fill="#1E2046"/>
<path d="M527.205 54.0176L527.007 54.1327C526.614 54.3614 526.48 54.866 526.709 55.2597L531.982 64.3347C532.211 64.7284 532.715 64.8621 533.109 64.6333L533.307 64.5183C533.701 64.2895 533.834 63.7849 533.606 63.3913L528.332 54.3162C528.103 53.9226 527.599 53.7889 527.205 54.0176Z" fill="#272B4F"/>
<path d="M523.269 60.6035L521.405 61.6875L523.767 65.7511L525.631 64.6671L523.269 60.6035Z" fill="#1E2046"/>
<path d="M526.154 64.5466L514.368 71.0349C514.04 71.2161 513.655 71.2656 513.292 71.1735C512.929 71.0813 512.615 70.8544 512.413 70.5388C512.201 70.2087 512.128 69.8079 512.211 69.4243C512.295 69.0407 512.526 68.7057 512.856 68.493L524.207 61.2031L526.154 64.5466Z" fill="#1E2046"/>
<path d="M521.65 289.048V65.0156" stroke="#1E2046" stroke-width="2.28" stroke-miterlimit="10"/>
<path d="M495.818 301.002L521.65 274.781" stroke="#1E2046" stroke-width="2.28" stroke-miterlimit="10"/>
<path d="M547.87 301.002L522.039 274.781" stroke="#1E2046" stroke-width="2.28" stroke-miterlimit="10"/>
<path d="M524.321 54.9908L516.566 47.9375" stroke="#45A2B9" stroke-width="0.57" stroke-miterlimit="10" stroke-linecap="round"/>
<path d="M523.932 56.8157L513.482 55.9531" stroke="#45A2B9" stroke-width="0.57" stroke-miterlimit="10" stroke-linecap="round"/>
</svg>
