<svg width="16" height="16" viewBox="0 0 16 16" fill="none" xmlns="http://www.w3.org/2000/svg">
<path d="M14.8871 4.52675C14.7217 3.90428 14.2346 3.414 13.6161 3.24759C12.4951 2.94531 7.99996 2.94531 7.99996 2.94531C7.99996 2.94531 3.50481 2.94531 2.38375 3.24763C1.76528 3.41403 1.27819 3.90428 1.11287 4.52678C0.8125 5.65506 0.8125 8.00922 0.8125 8.00922C0.8125 8.00922 0.8125 10.3634 1.11287 11.4917C1.27819 12.1142 1.76528 12.584 2.38375 12.7504C3.50481 13.0527 7.99996 13.0527 7.99996 13.0527C7.99996 13.0527 12.4951 13.0527 13.6161 12.7504C14.2346 12.584 14.7217 12.1141 14.8871 11.4916C15.1874 10.3634 15.1874 8.00919 15.1874 8.00919C15.1874 8.00919 15.1874 5.65506 14.8871 4.52675Z" fill="#6D747A"/>
<path d="M6.52979 10.1459V5.87109L10.2869 8.00853L6.52979 10.1459Z" fill="#EBEDF0"/>
</svg>
