<svg width="16" height="16" viewBox="0 0 16 16" fill="none" xmlns="http://www.w3.org/2000/svg">
<path d="M5.55035 7.27774C5.54823 7.7839 5.55035 8.29003 5.55249 8.79617C6.40104 8.82382 7.25168 8.81104 8.10023 8.82382C7.72595 10.7059 5.16546 11.3162 3.81077 10.0871C2.41779 9.00885 2.48372 6.64401 3.93199 5.64236C4.94428 4.83422 6.38402 5.03412 7.39629 5.7338C7.79399 5.3659 8.16613 4.97245 8.52554 4.56414C7.68339 3.89212 6.64985 3.41361 5.55035 3.46467C3.2557 3.3881 1.14605 5.39779 1.10778 7.69246C0.96103 9.56815 2.1945 11.4077 3.93625 12.0712C5.67159 12.739 7.89607 12.2839 9.00407 10.7251C9.73564 9.74042 9.89301 8.47294 9.80794 7.282C8.38731 7.27136 6.96884 7.27348 5.55035 7.27774Z" fill="#6D747A"/>
<path d="M13.8485 7.27174C13.8442 6.84852 13.8421 6.42319 13.84 6C13.4168 6 12.9957 6 12.5746 6C12.5704 6.42322 12.5661 6.84641 12.564 7.27174C12.1386 7.27386 11.7154 7.276 11.2922 7.28026C11.2922 7.70345 11.2922 8.12452 11.2922 8.54562C11.7154 8.54988 12.1408 8.55415 12.564 8.55838C12.5682 8.9816 12.5682 9.40478 12.5725 9.828C12.9957 9.828 13.4168 9.828 13.84 9.828C13.8421 9.40478 13.8442 8.9816 13.8485 8.55626C14.2738 8.552 14.697 8.54988 15.1202 8.54562C15.1202 8.12452 15.1202 7.70133 15.1202 7.28026C14.697 7.276 14.2717 7.276 13.8485 7.27174Z" fill="#6D747A"/>
</svg>
