<svg width="40" height="40" viewBox="0 0 40 40" fill="none" xmlns="http://www.w3.org/2000/svg">
<g clip-path="url(#clip0_784_491)">
<g clip-path="url(#clip1_784_491)">
<path d="M19.9999 3.33203C10.7999 3.33203 3.33325 10.7987 3.33325 19.9987C3.33325 29.1987 10.7999 36.6654 19.9999 36.6654C29.1999 36.6654 36.6666 29.1987 36.6666 19.9987C36.6666 10.7987 29.1999 3.33203 19.9999 3.33203ZM26.6666 21.6654H21.6666V26.6654C21.6666 27.582 20.9166 28.332 19.9999 28.332C19.0833 28.332 18.3333 27.582 18.3333 26.6654V21.6654H13.3333C12.4166 21.6654 11.6666 20.9154 11.6666 19.9987C11.6666 19.082 12.4166 18.332 13.3333 18.332H18.3333V13.332C18.3333 12.4154 19.0833 11.6654 19.9999 11.6654C20.9166 11.6654 21.6666 12.4154 21.6666 13.332V18.332H26.6666C27.5833 18.332 28.3333 19.082 28.3333 19.9987C28.3333 20.9154 27.5833 21.6654 26.6666 21.6654Z" fill="#0096C8"/>
</g>
</g>
<defs>
<clipPath id="clip0_784_491">
<rect width="40" height="40" fill="white"/>
</clipPath>
<clipPath id="clip1_784_491">
<rect width="40" height="40" fill="white"/>
</clipPath>
</defs>
</svg>
