<svg width="40" height="40" viewBox="0 0 40 40" fill="none" xmlns="http://www.w3.org/2000/svg">
<g clip-path="url(#clip0_777_3886)">
<path d="M28.6834 15.0005L21.3834 4.06719C21.0667 3.60052 20.5334 3.36719 20.0001 3.36719C19.4667 3.36719 18.9334 3.60052 18.6167 4.08385L11.3167 15.0005H3.33341C2.41675 15.0005 1.66675 15.7505 1.66675 16.6672C1.66675 16.8172 1.68341 16.9672 1.73341 17.1172L5.96675 32.5672C6.35008 33.9672 7.63341 35.0005 9.16675 35.0005H30.8334C32.3667 35.0005 33.6501 33.9672 34.0501 32.5672L38.2834 17.1172L38.3334 16.6672C38.3334 15.7505 37.5834 15.0005 36.6667 15.0005H28.6834ZM15.0001 15.0005L20.0001 7.66719L25.0001 15.0005H15.0001ZM20.0001 28.3339C18.1667 28.3339 16.6667 26.8339 16.6667 25.0005C16.6667 23.1672 18.1667 21.6672 20.0001 21.6672C21.8334 21.6672 23.3334 23.1672 23.3334 25.0005C23.3334 26.8339 21.8334 28.3339 20.0001 28.3339Z" fill="#C0504D"/>
</g>
<defs>
<clipPath id="clip0_777_3886">
<rect width="40" height="40" fill="white"/>
</clipPath>
</defs>
</svg>
