<svg width="531" height="280" viewBox="0 0 531 280" fill="none" xmlns="http://www.w3.org/2000/svg">
<path d="M138.885 252.164L143.653 271.494L118.108 277.881L129.165 265.197L125.331 254.572L138.885 252.164Z" fill="#FF957D"/>
<path d="M144.236 271.22L117.017 279.966C117.017 279.966 116.544 266.933 129.097 264.601L132.636 268.394L141.945 261.98L144.236 271.22Z" fill="#FFC56B"/>
<path d="M125.324 265.863L129.001 270.192" stroke="#0D344F" stroke-width="0.86" stroke-miterlimit="10"/>
<path d="M123.582 266.969L127.259 271.29" stroke="#0D344F" stroke-width="0.86" stroke-miterlimit="10"/>
<path d="M123.822 257.94L140.737 252.466L108.683 120.852L71.9978 146.842L123.822 257.94Z" fill="#1E2046"/>
<path d="M120.063 249.901L138.412 242.863" stroke="#FFF8ED" stroke-width="1.5" stroke-miterlimit="10"/>
<path d="M135.703 244.027C136.448 247.132 137.2 250.242 137.959 253.356C138.076 253.843 138.817 253.637 138.7 253.15C137.95 250.041 137.198 246.931 136.443 243.821C136.327 243.334 135.586 243.54 135.703 244.027Z" fill="#FFF8ED"/>
<path d="M132.479 245.387C133.329 248.469 134.178 251.554 135.024 254.64C135.051 254.739 135.116 254.822 135.205 254.872C135.294 254.922 135.399 254.935 135.497 254.908C135.595 254.881 135.678 254.815 135.729 254.727C135.779 254.638 135.792 254.533 135.764 254.435C134.923 251.348 134.077 248.263 133.226 245.181C133.19 245.093 133.122 245.022 133.037 244.981C132.951 244.939 132.854 244.93 132.762 244.955C132.671 244.981 132.591 245.038 132.539 245.118C132.487 245.197 132.465 245.293 132.479 245.387Z" fill="#FFF8ED"/>
<path d="M128.843 246.62L132.225 256.113C132.389 256.58 133.137 256.381 132.972 255.907C131.838 252.743 130.711 249.578 129.591 246.414C129.419 245.947 128.672 246.146 128.843 246.62Z" fill="#FFF8ED"/>
<path d="M125.125 248.357L128.027 257.274C128.184 257.748 128.932 257.549 128.774 257.069L125.873 248.151C125.715 247.678 124.974 247.884 125.125 248.357Z" fill="#FFF8ED"/>
<path d="M121.195 249.666C122.038 251.82 122.937 253.954 123.842 256.087C124.069 256.615 124.295 257.15 124.528 257.678C124.665 257.994 124.878 258.364 125.29 258.296C126.058 258.172 125.571 256.89 124.912 257.438C124.528 257.761 125.077 258.303 125.461 257.987L125.495 257.953L125.118 258.056C125.331 257.836 125.379 257.63 125.255 257.438L125.132 257.137C125.063 256.986 125.002 256.835 124.933 256.677L124.48 255.621C124.192 254.935 123.904 254.249 123.623 253.563C123.047 252.191 122.486 250.819 121.942 249.447C121.764 248.994 121.016 249.193 121.195 249.653V249.666Z" fill="#FFF8ED"/>
<path d="M128.864 246.311L88.7969 136.078" stroke="#FFF8ED" stroke-width="1.5" stroke-miterlimit="10"/>
<path d="M34.1125 259.166L26.3338 276.884L0.00683594 277.172L13.7054 267.397L20.366 258.363L34.1125 259.166Z" fill="#FF957D"/>
<path d="M27.8292 277.475L30.1683 268.674L16.5933 273.475L12.4775 268.31C12.4775 268.31 2.50374 263.68 0 277.228L27.8292 277.475Z" fill="#FFC56B"/>
<path d="M10.7901 271.637L8.6499 267.672" stroke="#0D344F" stroke-width="0.86" stroke-miterlimit="10"/>
<path d="M8.93803 271.746L6.79785 267.781" stroke="#0D344F" stroke-width="0.86" stroke-miterlimit="10"/>
<path d="M17.3752 258.603L73.0817 107.865V103.063L101.446 102.59C101.384 104.689 118.176 122.661 104.615 138.033C87.1643 161.966 35.8892 259.68 35.8892 259.68L17.3752 258.603Z" fill="#0096C8"/>
<path d="M91.9725 115.133C91.9725 115.133 95.2377 132.824 89.7912 140.177C84.3447 147.53 30.4424 250.163 30.4424 250.163" stroke="#FFF8ED" stroke-width="1.5" stroke-miterlimit="10"/>
<path d="M20.366 249.344L42.1519 250.16" stroke="#FFF8ED" stroke-width="1.5" stroke-miterlimit="10"/>
<path d="M39.4288 250.16L34.7986 259.688" stroke="#FFF8ED" stroke-width="1.5" stroke-miterlimit="10"/>
<path d="M34.2567 250.16L29.6265 259.688" stroke="#FFF8ED" stroke-width="1.5" stroke-miterlimit="10"/>
<path d="M29.0843 250.16L24.4541 259.688" stroke="#FFF8ED" stroke-width="1.5" stroke-miterlimit="10"/>
<path d="M23.9058 250.16L19.2825 259.688" stroke="#FFF8ED" stroke-width="1.5" stroke-miterlimit="10"/>
<path d="M46.5833 55.0091C46.5833 55.0091 53.4429 103.465 64.9944 96.9484C72.3341 92.8326 74.0215 83.7094 74.7075 82.3856C74.7075 80.1562 74.7075 78.6059 74.7829 78.2698C74.7829 78.2698 78.7752 65.5454 82.5274 60.8603C82.9389 60.3527 86.7117 52.1349 86.5471 52.0938C75.1671 49.1991 67.9234 57.6157 66.5583 75.7043C66.5172 76.2668 56.3719 50.3995 56.3719 50.3995C56.6669 49.2334 59.0403 40.9333 57.1402 41.9416C55.2401 42.95 55.5213 44.857 54.9383 45.2891C54.3552 45.7213 53.3743 32.4755 51.9269 32.8802C49.8691 33.4564 52.1807 41.7976 50.8706 41.043C49.5604 40.2885 49.0322 32.647 47.8455 33.0105C45.9454 33.5867 48.9705 41.6193 48.0993 41.6124C47.2281 41.6055 46.5559 34.3001 45.2114 34.6019C43.3113 35.0341 46.3364 43.9378 45.3212 43.3547C44.306 42.7717 43.4485 37.6544 42.5774 38.0934C41.7062 38.5325 46.5833 55.0091 46.5833 55.0091Z" fill="#FF937E"/>
<path d="M53.278 34.6338L54.7459 37.7892C55.471 39.3401 56.7819 40.5399 58.3908 41.1251C59.9998 41.7102 61.7752 41.633 63.3272 40.9103C64.8745 40.1816 66.0694 38.8686 66.6494 37.2597C67.2295 35.6507 67.1473 33.8773 66.4209 32.329L64.9529 29.1804C64.5946 28.4119 64.0883 27.7214 63.4631 27.1486C62.8378 26.5758 62.1058 26.1317 61.3089 25.8419C60.512 25.552 59.6658 25.4221 58.8186 25.4594C57.9715 25.4967 57.14 25.7006 56.3716 26.0593C54.826 26.788 53.6325 28.0998 53.0525 29.7071C52.4726 31.3145 52.5537 33.0861 53.278 34.6338Z" fill="#FF616B"/>
<path d="M29.4619 45.5954L30.9299 48.744C31.2882 49.5125 31.7944 50.2029 32.4197 50.7758C33.0449 51.3486 33.7769 51.7927 34.5739 52.0825C35.3708 52.3723 36.217 52.5023 37.0641 52.465C37.9113 52.4277 38.7428 52.2238 39.5112 51.865C40.2795 51.5074 40.9698 51.0018 41.5425 50.3772C42.1153 49.7526 42.5593 49.0212 42.8492 48.2248C43.1391 47.4285 43.2691 46.5828 43.2319 45.7361C43.1947 44.8895 42.9909 44.0585 42.6323 43.2906L41.1643 40.1352C40.4392 38.5843 39.1283 37.3845 37.5194 36.7993C35.9104 36.2142 34.135 36.2914 32.583 37.0141C31.8145 37.3724 31.124 37.8787 30.5512 38.5039C29.9784 39.1292 29.5343 39.8612 29.2445 40.6581C28.9546 41.455 28.8247 42.3012 28.862 43.1484C28.8993 43.9956 29.1032 44.8271 29.4619 45.5954Z" fill="#FF616B"/>
<path d="M38.5425 40.8753L41.3748 46.9492L58.925 38.7654L56.0927 32.6915L38.5425 40.8753Z" fill="#FF616B"/>
<path d="M71.1677 94.7516L73.157 103.353L101.295 103.024L103.613 92.5977L71.1677 94.7516Z" fill="#FF7859"/>
<path d="M68.9797 36.0177L71.5315 28.3693C70.5437 26.6956 72.9034 20.2888 74.0421 18.7248C77.2455 14.4582 78.4596 10.0132 83.6935 8.93622C89.7162 7.7015 98.0985 9.49185 100.438 15.3156C101.398 17.6684 112.305 27.5187 108.484 33.8913" fill="#3F468E"/>
<path d="M92.021 26.1485C92.0435 26.2051 92.0772 26.2566 92.12 26.2998C92.1628 26.3431 92.2139 26.3773 92.2703 26.4003C92.3267 26.4234 92.3871 26.4348 92.448 26.434C92.5088 26.4332 92.5689 26.4201 92.6246 26.3955C93.6056 25.9702 95.7938 24.7766 97.2274 27.2186C98.661 29.6606 96.8227 32.2329 95.3616 32.96C94.9432 33.1658 93.9897 33.6872 93.8251 34.133C93.3517 35.5049 96.9187 44.9231 97.3783 47.8521C98.3867 54.403 100.561 51.4946 100.561 51.4946C100.561 51.4946 80.888 64.3288 80.9908 56.0424C81.1006 46.7683 81.6013 40.0734 81.4916 40.0597C77.3416 39.456 74.2685 40.8211 72.9103 29.5851C71.655 19.1723 78.7135 16.9087 80.5724 16.4697C82.1364 16.1336 87.3222 14.2746 92.021 26.1485Z" fill="#FF937E"/>
<path d="M96.4314 28.4538C96.4314 28.4538 93.4681 25.8471 93.3857 31.081L96.4314 28.4538Z" fill="#D95A4E"/>
<path d="M82.102 29.806C81.6392 29.9947 81.2428 30.3166 80.9632 30.7309C80.6835 31.1452 80.5331 31.6331 80.531 32.1329C80.529 32.6327 80.6753 33.1219 80.9516 33.5385C81.2278 33.955 81.6215 34.2802 82.0827 34.4728C82.5439 34.6653 83.052 34.7167 83.5424 34.6202C84.0328 34.5238 84.4836 34.2839 84.8375 33.931C85.1915 33.5782 85.4327 33.1281 85.5307 32.638C85.6286 32.1479 85.5789 31.6397 85.3877 31.1779C85.1311 30.5626 84.6421 30.0734 84.0269 29.8165C83.4117 29.5597 82.72 29.5559 82.102 29.806Z" fill="#FF7859"/>
<path d="M74.1584 34.8801C74.5855 34.5957 74.9157 34.1879 75.1051 33.711C75.2945 33.2342 75.3341 32.7109 75.2186 32.211C75.1031 31.7111 74.8381 31.2583 74.4587 30.9128C74.0793 30.5673 73.6037 30.3457 73.0952 30.2773C73.0952 30.2773 73.2118 33.2681 74.1584 34.8801Z" fill="#FF7859"/>
<path d="M74.9954 33.0351L79.2894 32.7812C79.2894 32.7812 78.336 34.9077 77.0807 34.7637C75.8254 34.6196 74.9954 33.0351 74.9954 33.0351Z" fill="white"/>
<path d="M76.4155 30.5234L77.1015 32.3687L76.0931 32.5127C76.0508 32.5189 76.0076 32.514 75.9678 32.4984C75.9279 32.4829 75.8928 32.4573 75.8658 32.4241C75.8389 32.3909 75.821 32.3513 75.8139 32.3091C75.8069 32.2669 75.8109 32.2236 75.8256 32.1834L76.4155 30.5234Z" fill="#D95A4E"/>
<path d="M80.1402 27.1007C80.6341 27.3956 79.8109 25.9757 79.1593 25.8522C78.8729 25.7784 78.5689 25.8196 78.3125 25.967C78.0561 26.1145 77.8676 26.3564 77.7874 26.6411C78.6012 26.5142 79.4339 26.6768 80.1402 27.1007Z" fill="black"/>
<path d="M72.8209 27.3919C72.375 27.7486 72.9924 26.2326 73.6166 26.0199C73.8904 25.9031 74.1994 25.8996 74.4759 26.0101C74.7523 26.1207 74.9737 26.3364 75.0914 26.6099C74.2661 26.5951 73.462 26.872 72.8209 27.3919Z" fill="black"/>
<path d="M80.9495 40.0321C82.732 39.8576 84.4742 39.3942 86.1078 38.6602C85.3876 42.3026 82.6026 42.5221 80.9495 40.0321Z" fill="#1E2046"/>
<path d="M81.6561 51.4611C80.3254 51.0221 78.1852 52.2362 78.4939 51.955C74.241 58.5607 69.1375 68.315 68.7396 74.5915C68.2594 82.281 68.6847 93.2769 68.6847 93.2769C68.8356 94.2372 100.012 94.7997 107.393 94.3813C111.9 81.8283 112.085 70.7501 109.78 60.8998C109.78 60.8998 110.068 59.6034 106.193 55.275C105.363 54.349 98.0505 46.8858 97.6115 46.3164C97.6115 46.3027 74.0489 63.7054 81.6561 51.4611Z" fill="#3F468E"/>
<path d="M76.7103 64.9859H77.0052C77.2908 64.9859 77.5648 64.8725 77.7667 64.6705C77.9687 64.4685 78.0822 64.1946 78.0822 63.909C78.0822 63.6234 77.9687 63.3494 77.7667 63.1475C77.5648 62.9455 77.2908 62.832 77.0052 62.832H76.7103C76.4246 62.832 76.1507 62.9455 75.9487 63.1475C75.7468 63.3494 75.6333 63.6234 75.6333 63.909C75.6333 64.1946 75.7468 64.4685 75.9487 64.6705C76.1507 64.8725 76.4246 64.9859 76.7103 64.9859H77.0052C77.2908 64.9859 77.5648 64.8725 77.7667 64.6705C77.9687 64.4685 78.0822 64.1946 78.0822 63.909C78.0822 63.6234 77.9687 63.3494 77.7667 63.1475C77.5648 62.9455 77.2908 62.832 77.0052 62.832H76.7103C76.4246 62.832 76.1507 62.9455 75.9487 63.1475C75.7468 63.3494 75.6333 63.6234 75.6333 63.909C75.6333 64.1946 75.7468 64.4685 75.9487 64.6705C76.1507 64.8725 76.4246 64.9859 76.7103 64.9859Z" fill="#FFF8ED"/>
<path d="M84.8255 75.9703C85.1111 75.9703 85.385 75.8568 85.587 75.6549C85.789 75.4529 85.9024 75.179 85.9024 74.8934C85.9024 74.6077 85.789 74.3338 85.587 74.1318C85.385 73.9299 85.1111 73.8164 84.8255 73.8164C84.5399 73.8164 84.2659 73.9299 84.064 74.1318C83.862 74.3338 83.7485 74.6077 83.7485 74.8934C83.7485 75.179 83.862 75.4529 84.064 75.6549C84.2659 75.8568 84.5399 75.9703 84.8255 75.9703Z" fill="#FFF8ED"/>
<path d="M72.8827 78.3717C73.1543 78.35 73.4079 78.2268 73.5928 78.0266C73.7776 77.8264 73.8803 77.5638 73.8803 77.2913C73.8803 77.0188 73.7776 76.7563 73.5928 76.556C73.4079 76.3558 73.1543 76.2326 72.8827 76.2109C72.611 76.2326 72.3575 76.3558 72.1726 76.556C71.9877 76.7563 71.885 77.0188 71.885 77.2913C71.885 77.5638 71.9877 77.8264 72.1726 78.0266C72.3575 78.2268 72.611 78.35 72.8827 78.3717Z" fill="#FFF8ED"/>
<path d="M87.6858 60.2125C87.9715 60.2125 88.2454 60.099 88.4474 59.8971C88.6493 59.6951 88.7628 59.4212 88.7628 59.1355C88.7628 58.8499 88.6493 58.576 88.4474 58.374C88.2454 58.1721 87.9715 58.0586 87.6858 58.0586C87.4002 58.0586 87.1263 58.1721 86.9243 58.374C86.7224 58.576 86.6089 58.8499 86.6089 59.1355C86.6089 59.4212 86.7224 59.6951 86.9243 59.8971C87.1263 60.099 87.4002 60.2125 87.6858 60.2125Z" fill="#FFF8ED"/>
<path d="M77.5332 30.3533C77.6086 30.9295 77.8487 31.3754 78.0751 31.3411C78.3014 31.3068 78.4249 30.8197 78.3494 30.2435C78.274 29.6673 78.0339 29.2215 77.8075 29.2558C77.5812 29.2901 77.4577 29.7496 77.5332 30.3533Z" fill="black"/>
<path d="M74.4258 30.3526C74.5013 30.9288 74.7414 31.3747 74.9677 31.3473C75.1941 31.3198 75.3176 30.8259 75.2421 30.2497C75.1667 29.6735 74.9197 29.2277 74.7002 29.2551C74.4807 29.2825 74.3504 29.7627 74.4258 30.3526Z" fill="black"/>
<path d="M89.7847 27.6593C85.3329 25.3408 83.8443 18.5704 83.8443 18.5704L72.6701 23.8591C72.6701 23.8591 69.6519 14.3998 75.167 13.3983C75.3773 12.1765 75.9703 11.053 76.8605 10.19C77.7506 9.32703 78.8919 8.76907 80.1196 8.59664C81.4273 8.35004 82.7751 8.42203 84.0491 8.80649C85.3231 9.19096 86.4858 9.87659 87.4388 10.8054C87.4388 10.8054 94.0376 16.2931 92.6794 24.7303C92.6794 24.8401 92.6451 24.9498 92.6246 25.0596C92.6246 25.0939 93.2899 29.484 89.7847 27.6593Z" fill="#3F468E"/>
<path d="M54.3619 81.9184L57.8328 81.9733C58.6805 81.9878 59.5228 81.8352 60.3115 81.5242C61.1002 81.2132 61.8199 80.7498 62.4295 80.1606C63.0391 79.5714 63.5267 78.8679 63.8643 78.0902C64.202 77.3125 64.3831 76.4759 64.3974 75.6282C64.412 74.7805 64.2594 73.9383 63.9483 73.1496C63.6373 72.3609 63.1739 71.6412 62.5847 71.0316C61.9955 70.4219 61.292 69.9344 60.5143 69.5967C59.7366 69.2591 58.9 69.0779 58.0523 69.0636L54.5745 69.0088C53.7272 68.9942 52.8853 69.1469 52.097 69.458C51.3086 69.7691 50.5894 70.2326 49.9803 70.8219C49.3713 71.4112 48.8844 72.1148 48.5475 72.8924C48.2105 73.67 48.0302 74.5065 48.0168 75.3538C48.0023 76.2015 48.1549 77.0438 48.4659 77.8325C48.7769 78.6212 49.2403 79.3409 49.8295 79.9505C50.4187 80.5601 51.1223 81.0477 51.9 81.3853C52.6776 81.723 53.5142 81.9041 54.3619 81.9184Z" fill="#FF616B"/>
<path d="M53.7857 108.125L57.2635 108.18C58.9743 108.208 60.6261 107.555 61.8558 106.365C63.0854 105.175 63.7924 103.546 63.8213 101.835C63.8358 100.988 63.6832 100.145 63.3722 99.3566C63.0611 98.5679 62.5978 97.8482 62.0086 97.2386C61.4193 96.629 60.7158 96.1414 59.9381 95.8038C59.1604 95.4661 58.3239 95.285 57.4762 95.2707L54.0052 95.2158C53.1575 95.2013 52.3153 95.3539 51.5266 95.6649C50.7379 95.9759 50.0182 96.4393 49.4086 97.0285C48.799 97.6177 48.3114 98.3213 47.9737 99.0989C47.6361 99.8766 47.4549 100.713 47.4406 101.561C47.4261 102.409 47.5787 103.251 47.8897 104.04C48.2008 104.828 48.6641 105.548 49.2533 106.158C49.8426 106.767 50.5461 107.255 51.3238 107.592C52.1014 107.93 52.938 108.111 53.7857 108.125Z" fill="#FF616B"/>
<path d="M53.8658 97.5613L60.5676 97.6953L60.9549 78.3308L54.2531 78.1968L53.8658 97.5613Z" fill="#FF616B"/>
<path d="M67.0107 95.3688C67.0107 95.3688 87.3424 106.577 100.547 101.762C103.661 100.623 105.479 98.6408 106.035 95.3688C107.791 84.9012 110.836 64.5009 109.965 63.6503C108.223 49.9312 97.3642 53.7451 96.0815 57.3464C91.808 69.3231 93.1593 82.1299 92.3979 86.328L65.6457 85.5528C64.7059 84.9766 58.1001 80.6551 58.4637 82.5895C58.8273 84.5239 60.5627 84.7914 60.7891 85.4225C61.0155 86.0536 52.4204 84.469 52.3861 85.8409C52.3313 87.7822 56.2549 87.2128 56.0217 87.5421C55.7885 87.8713 52.2833 86.1702 52.2695 87.3157C52.2695 89.1335 56.0766 89.4765 56.0766 89.8195C56.0766 89.9704 52.7703 87.7616 52.6468 89.0238C52.5096 90.8004 56.7625 91.7676 55.8845 91.1777C55.7199 91.0679 52.249 89.1198 52.9349 90.8964C53.2573 91.7333 67.0107 95.3688 67.0107 95.3688Z" fill="#FF937E"/>
<path d="M55.9465 90.8696L53.1067 90.1562" stroke="#FF7859" stroke-width="0.5" stroke-miterlimit="10" stroke-linecap="round"/>
<path d="M56.0286 89.6196L53.1887 88.9062" stroke="#FF7859" stroke-width="0.5" stroke-miterlimit="10" stroke-linecap="round"/>
<path d="M55.9192 87.6587L53.0793 86.9453" stroke="#FF7859" stroke-width="0.5" stroke-miterlimit="10" stroke-linecap="round"/>
<path d="M523.771 254.852L526.618 263.68C526.618 263.68 524.046 274.895 522.187 271.122C520.936 268.764 518.875 266.936 516.384 265.978L510.855 255.284L523.771 254.852Z" fill="#753231"/>
<path d="M511.108 255.772L522.344 255.648L521.24 267.776L515.67 265.218L511.108 255.772Z" fill="#A94846"/>
<path d="M515.443 265.217L502.129 273.764C501.532 274.148 501.848 274.957 502.596 274.964C508.714 274.964 525.232 274.909 529.526 274.882C529.638 274.894 529.751 274.879 529.856 274.837C529.96 274.795 530.053 274.728 530.125 274.642C530.198 274.556 530.248 274.453 530.272 274.343C530.295 274.233 530.291 274.119 530.26 274.011C529.362 271.658 526.906 265.093 526.625 263.303C526.577 262.981 522.818 268.372 521.02 267.775C519.47 267.268 515.793 264.901 515.443 265.217Z" fill="#5BC29C"/>
<path d="M514.854 266.008L517.09 267.476C517.328 267.631 517.525 267.84 517.665 268.087C517.805 268.333 517.884 268.61 517.896 268.893C517.907 269.176 517.85 269.458 517.731 269.715C517.611 269.972 517.431 270.197 517.207 270.37V270.37C516.914 270.595 516.559 270.724 516.191 270.739C515.822 270.753 515.458 270.654 515.149 270.453L511.884 268.306" stroke="white" stroke-width="1.6" stroke-miterlimit="10" stroke-linecap="round"/>
<path d="M528.895 279.625H503.302C502.844 279.625 502.404 279.443 502.08 279.119C501.755 278.795 501.573 278.355 501.573 277.896V275.633C501.573 275.405 501.664 275.187 501.824 275.026C501.985 274.866 502.203 274.775 502.431 274.775H529.766C529.993 274.775 530.212 274.866 530.372 275.026C530.533 275.187 530.624 275.405 530.624 275.633V277.896C530.624 278.355 530.441 278.795 530.117 279.119C529.793 279.443 529.353 279.625 528.895 279.625Z" fill="#5BC29C"/>
<path d="M473.696 254.852L473.978 263.68C473.978 263.68 471.364 274.895 469.505 271.122C468.255 268.764 466.194 266.936 463.702 265.978L460.848 254.872L473.696 254.852Z" fill="#753231"/>
<path d="M461.233 255.773H469.183L468.332 267.778L462.762 265.219L461.233 255.773Z" fill="#A94846"/>
<path d="M462.762 265.217L449.448 273.764C448.851 274.148 449.167 274.957 449.907 274.964C456.026 274.964 472.51 274.909 476.845 274.882C476.956 274.893 477.069 274.877 477.172 274.834C477.276 274.792 477.367 274.725 477.439 274.639C477.511 274.553 477.56 274.451 477.584 274.341C477.607 274.232 477.603 274.118 477.572 274.011C476.673 271.658 474.218 265.093 473.943 263.303C473.895 262.981 470.136 268.372 468.332 267.775C466.782 267.268 463.112 264.901 462.762 265.217Z" fill="#5BC29C"/>
<path d="M476.495 279.625H450.902C450.444 279.625 450.004 279.443 449.68 279.119C449.356 278.795 449.173 278.355 449.173 277.896V275.633C449.173 275.405 449.264 275.187 449.425 275.026C449.585 274.866 449.803 274.775 450.031 274.775H477.366C477.594 274.775 477.812 274.866 477.973 275.026C478.133 275.187 478.224 275.405 478.224 275.633V277.896C478.224 278.355 478.042 278.795 477.717 279.119C477.393 279.443 476.953 279.625 476.495 279.625Z" fill="#5BC29C"/>
<path d="M462.172 266.008L464.409 267.476C464.646 267.631 464.842 267.841 464.982 268.088C465.122 268.335 465.2 268.611 465.211 268.895C465.221 269.178 465.164 269.46 465.044 269.717C464.923 269.973 464.743 270.198 464.518 270.37C464.226 270.596 463.871 270.725 463.503 270.74C463.134 270.755 462.77 270.655 462.46 270.453L459.195 268.306" stroke="white" stroke-width="1.6" stroke-miterlimit="10" stroke-linecap="round"/>
<path d="M481.07 134.964C481.07 134.964 470.191 107.958 464.045 97.7917C461.301 93.2987 449.153 85.5337 449.153 93.676C449.153 93.676 444.008 141.171 444.351 161.469C444.674 181.663 456.184 254.169 456.184 254.169C456.184 254.169 471.323 255.081 473.401 252.31L481.07 134.964Z" fill="#FF937E"/>
<g style="mix-blend-mode:multiply" opacity="0.5">
<path d="M481.07 134.961C481.07 134.961 470.191 107.955 464.045 97.789C461.301 93.296 449.448 82.8764 449.448 90.9981C449.448 90.9981 444.008 141.148 444.331 161.446C444.653 181.64 456.163 254.146 456.163 254.146C456.163 254.146 471.302 255.058 473.381 252.287L481.07 134.961Z" fill="#FF937E"/>
</g>
<path d="M470.266 113.602C470.266 113.602 461.438 156.035 462.035 164.575C462.632 173.115 467.166 252.857 467.166 252.857" stroke="white" stroke-width="0.83" stroke-miterlimit="10"/>
<path d="M454.25 255.702H475.089L475.137 248.582H454.304L454.25 255.702Z" fill="#F4B1A8"/>
<path d="M447.383 90.7201C449.667 81.1167 471.899 82.9276 479.259 89.5402C484.342 94.1018 497.321 114.523 500.147 125.58C503.426 138.401 505.065 152.442 507.335 166.127C507.836 169.152 510.114 180.827 511.451 186.87C515.869 206.763 522.228 228.412 523.798 251.734C519.758 252.708 509.078 255.404 507.85 253.154C480.227 202.469 470.863 160.18 464.971 146.529C464.295 144.962 463.763 143.336 463.38 141.673L447.383 90.7201Z" fill="#FF937E"/>
<path d="M469.498 90.8047C469.498 90.8047 485.913 112.755 490.18 130.398C494.446 148.041 517.227 253.87 517.227 253.87" stroke="white" stroke-width="0.83" stroke-miterlimit="10"/>
<path d="M461.987 97.6523C461.987 97.6523 465.664 116.557 482.477 110.953" stroke="white" stroke-width="0.83" stroke-miterlimit="10"/>
<path d="M506.938 255.702H527.77L524.971 248.582H504.139L506.938 255.702Z" fill="#F4B1A8"/>
<path d="M415.877 49.1497C415.877 49.1497 431.133 93.1126 441.601 87.2065C448.254 83.4544 449.791 75.2023 450.408 74.0019C450.408 71.9783 450.408 70.5721 450.477 70.2566C450.477 70.2566 454.092 58.7188 457.494 54.4796C458.847 51.8943 460.065 49.2406 461.144 46.5294C454.209 42.1942 448.584 53.4507 438.452 68.528C438.164 68.9533 424.733 44.9586 424.733 44.9586C425.001 43.9022 427.148 36.3773 425.419 37.2964C423.69 38.2156 423.951 39.9305 423.423 40.3284C422.895 40.7262 422.003 28.7083 420.679 29.0787C418.827 29.6 420.905 37.1455 419.719 36.4802C418.532 35.8148 418.059 28.8661 416.975 29.1953C415.253 29.7166 417.997 37.0015 417.208 36.9946C416.419 36.9878 415.836 30.3614 414.588 30.6358C412.866 31.0268 415.61 39.1074 414.691 38.5723C413.772 38.0373 412.99 33.4071 412.194 33.7706C411.398 34.1342 415.877 49.1497 415.877 49.1497Z" fill="#A94846"/>
<path d="M451.945 66.0234C453.317 62.2849 455.443 57.106 457.494 54.5062C458.847 51.9208 460.065 49.2672 461.143 46.556C456.417 43.5995 452.295 47.9279 446.944 55.6997C448.542 59.1638 450.23 62.5936 451.945 66.0234Z" fill="#8064A2"/>
<path d="M451.499 50.8923L453.557 23.5707C452.631 21.993 453.166 14.9346 454.243 13.4666C457.261 9.44693 456.403 6.76485 461.322 5.75649C466.995 4.59723 476.769 6.29154 479.698 13.3432C482.627 20.3948 482.627 29.0584 487.93 53.2863" fill="#031F46"/>
<path d="M471.179 20.4394C471.2 20.493 471.231 20.5417 471.272 20.5827C471.312 20.6237 471.36 20.656 471.414 20.6778C471.467 20.6996 471.524 20.7104 471.581 20.7095C471.639 20.7086 471.696 20.6961 471.748 20.6726C472.674 20.2679 474.732 19.1498 476.076 21.4478C477.421 23.7457 475.699 26.1603 474.327 26.8462C473.929 27.0383 473.024 27.5322 472.88 27.9438C472.427 29.2334 475.034 41.8618 475.466 44.6536C476.413 50.8272 460.375 57.6319 460.375 57.6319C460.375 57.6319 456.314 54.3736 459.778 47.3906C462.92 41.0524 461.15 33.6715 461.075 33.6166C459.456 32.9718 454.455 34.3026 453.179 23.6977C451.999 13.9091 458.667 11.7827 460.389 11.3505C461.884 11.0213 466.761 9.27207 471.179 20.4394Z" fill="#A94846"/>
<path d="M475.329 22.6097C475.329 22.6097 472.544 20.1608 472.468 25.0791L475.329 22.6097Z" fill="#753231"/>
<path d="M461.85 23.8835C461.415 24.0601 461.042 24.3615 460.779 24.7498C460.515 25.138 460.373 25.5957 460.369 26.0649C460.366 26.5341 460.501 26.9938 460.759 27.3859C461.017 27.7781 461.385 28.085 461.817 28.268C462.249 28.451 462.726 28.5018 463.187 28.414C463.648 28.3262 464.072 28.1038 464.407 27.7748C464.741 27.4458 464.971 27.025 465.066 26.5656C465.162 26.1062 465.119 25.6288 464.943 25.1937C464.827 24.9038 464.655 24.6397 464.436 24.4167C464.217 24.1937 463.957 24.0162 463.669 23.8944C463.382 23.7726 463.073 23.7089 462.76 23.7071C462.448 23.7052 462.139 23.7652 461.85 23.8835Z" fill="#BD504E"/>
<path d="M454.558 29.1194C454.988 28.7929 455.292 28.3272 455.417 27.8018C455.542 27.2764 455.481 26.7238 455.244 26.2384C455.086 25.8491 454.828 25.5087 454.495 25.252C454.162 24.9953 453.767 24.8315 453.351 24.7773C453.351 24.7773 453.666 27.6103 454.558 29.1194Z" fill="#BD504E"/>
<path d="M455.176 26.9237L459.216 26.6836C459.216 26.6836 458.317 28.6797 457.158 28.5425C455.999 28.4053 455.176 26.9237 455.176 26.9237Z" fill="white"/>
<path d="M456.499 24.5547L457.117 26.2902L456.17 26.4273C456.13 26.434 456.089 26.4299 456.052 26.4155C456.014 26.4011 455.981 26.3769 455.956 26.3455C455.931 26.314 455.914 26.2764 455.909 26.2365C455.903 26.1967 455.908 26.156 455.923 26.1187L456.499 24.5547Z" fill="#753231"/>
<path d="M459.977 22.0054C460.436 22.2798 459.668 20.949 459.051 20.8324C458.781 20.7608 458.493 20.7983 458.251 20.937C458.008 21.0756 457.83 21.3042 457.754 21.5733C458.523 21.4513 459.31 21.6043 459.977 22.0054Z" fill="black"/>
<path d="M453.118 22.2717C452.692 22.6079 453.276 21.1811 453.865 20.9821C454.122 20.8801 454.407 20.881 454.663 20.9845C454.919 21.088 455.124 21.2862 455.237 21.5378C454.467 21.5285 453.717 21.7881 453.118 22.2717Z" fill="black"/>
<path d="M460.766 33.4956C462.443 33.3403 464.084 32.9116 465.623 32.2266C464.944 35.6358 462.323 35.8415 460.766 33.4956Z" fill="#031F46"/>
<path d="M460.396 46.1299C460.286 45.7938 458.379 45.7664 458.653 45.5126C454.798 51.501 449.605 62.1127 449.249 67.7992C448.81 74.7617 444.982 93.1384 444.982 93.1384C445.113 94.0096 474.005 91.4167 480.693 91.0325C484.774 79.6525 488.54 64.2803 486.448 55.3629C486.448 55.3629 486.716 54.1968 483.204 50.2662C482.449 49.4294 475.816 42.6659 475.418 42.1445C475.418 42.1514 454.448 61.3307 460.396 46.1299Z" fill="#8064A2"/>
<g style="mix-blend-mode:multiply" opacity="0.5">
<g style="mix-blend-mode:multiply" opacity="0.5">
<path d="M486.133 54.2734C484.596 57.4906 482.147 60.6048 480.446 62.9645C476.837 67.9342 472.757 72.5445 468.264 76.7316C462.09 82.5348 455.484 87.8098 449.002 93.2563C457.233 92.9339 475.542 91.3219 480.693 91.0269C484.775 79.6469 488.54 64.2747 486.448 55.3572C486.448 55.371 486.517 55.0486 486.133 54.2734Z" fill="#5BC29C"/>
</g>
</g>
<path d="M457.556 24.3661C457.624 24.9149 457.851 25.3333 458.063 25.3059C458.276 25.2785 458.392 24.812 458.324 24.2701C458.255 23.7282 458.022 23.3098 457.809 23.3372C457.597 23.3647 457.487 23.8242 457.556 24.3661Z" fill="black"/>
<path d="M454.634 24.3847C454.702 24.9266 454.929 25.3451 455.141 25.3176C455.354 25.2902 455.47 24.8237 455.402 24.2818C455.333 23.7399 455.1 23.3215 454.887 23.3489C454.675 23.3764 454.558 23.8428 454.634 24.3847Z" fill="black"/>
<path d="M469.08 23.0889L454.298 15.4062L452.981 19.5219C452.981 19.5219 449.174 13.4924 454.353 12.5526C454.353 12.5526 456.856 6.70144 461.082 5.89888C465.307 5.09631 476.392 11.3865 476.392 11.3865C476.392 11.3865 473.065 12.4086 471.796 20.3039C471.796 20.4068 471.796 20.5097 471.742 20.6126C471.748 20.6743 472.379 24.8038 469.08 23.0889Z" fill="#031F46"/>
<path d="M461.164 43.4813C459.463 46.2252 458.873 49.5795 456.801 52.0901C454.766 54.4358 451.976 55.9981 448.913 56.5076C442.142 57.7904 435.557 54.3606 430.618 49.9842C427.668 47.2435 424.917 44.2955 422.387 41.1628C422.161 40.8884 421.77 41.2863 421.996 41.5538C426.66 47.0895 431.599 52.8378 438.404 55.7119C444.187 58.1402 451.403 58.0236 456.184 53.5169C459.024 50.8485 459.614 46.966 461.61 43.7626C461.795 43.4608 461.315 43.1795 461.13 43.4813H461.164Z" fill="#031F46"/>
<path d="M414.155 41.6445H435.111V27.3492H414.155V41.6445Z" fill="#031F46"/>
<path d="M410.589 41.6719H431.544V27.2668H410.589V41.6719Z" fill="#FF937E"/>
<path d="M413.291 34.5525C413.291 33.6706 413.553 32.8086 414.042 32.0753C414.532 31.3421 415.229 30.7706 416.043 30.4332C416.858 30.0957 417.755 30.0074 418.62 30.1794C419.484 30.3515 420.279 30.7761 420.903 31.3997C421.526 32.0232 421.951 32.8177 422.123 33.6826C422.295 34.5475 422.206 35.444 421.869 36.2587C421.532 37.0735 420.96 37.7698 420.227 38.2597C419.494 38.7497 418.632 39.0112 417.75 39.0112C417.164 39.0112 416.584 38.8958 416.043 38.6718C415.503 38.4477 415.011 38.1193 414.597 37.7052C414.183 37.2912 413.854 36.7997 413.63 36.2587C413.406 35.7178 413.291 35.138 413.291 34.5525Z" fill="#031F46"/>
<path d="M416.186 39.0112C418.648 39.0112 420.645 37.0149 420.645 34.5525C420.645 32.09 418.648 30.0938 416.186 30.0938C413.724 30.0938 411.727 32.09 411.727 34.5525C411.727 37.0149 413.724 39.0112 416.186 39.0112Z" fill="#5BC29C"/>
<path d="M413.483 34.5533C413.483 34.0171 413.642 33.493 413.94 33.0472C414.238 32.6015 414.662 32.2542 415.157 32.0493C415.653 31.8445 416.198 31.7912 416.724 31.8963C417.249 32.0014 417.732 32.2602 418.111 32.6398C418.489 33.0194 418.747 33.5028 418.851 34.0289C418.955 34.5549 418.9 35.0999 418.694 35.5949C418.488 36.0899 418.139 36.5126 417.693 36.8095C417.246 37.1064 416.722 37.2641 416.186 37.2628C415.83 37.2637 415.477 37.1942 415.149 37.0583C414.82 36.9223 414.521 36.7227 414.27 36.4708C414.019 36.2189 413.82 35.9198 413.685 35.5907C413.55 35.2616 413.481 34.909 413.483 34.5533Z" fill="#031F46"/>
<path d="M429.246 27.4062H432.004V26.3636H429.246V27.4062Z" fill="#18333D"/>
<path d="M414.944 27.3203H421.091V25.8592H414.944V27.3203Z" fill="#031F46"/>
<path d="M431.675 49.23C431.675 49.23 433.979 74.9601 446.635 84.1451C449.619 86.3127 452.582 86.7517 455.937 85.222C466.686 80.3312 487.957 71.9694 488.177 70.6729C496.271 62.3317 489.014 48.887 484.891 49.9434C471.172 53.4486 464.161 60.0543 455.779 67.0168L439.851 41.8491C439.796 40.6281 439.673 31.8342 438.116 33.3776C436.559 34.921 437.389 36.6907 436.95 37.2875C436.511 37.8843 431.668 25.249 430.378 26.0653C428.553 27.2245 433.232 34.6671 431.75 34.3379C430.268 34.0086 427.504 26.6895 426.448 27.3892C424.76 28.5073 430.069 35.456 429.191 35.7098C428.313 35.9636 425.535 29.0286 424.314 29.7146C422.593 30.6886 428.156 38.4948 426.989 38.2204C425.823 37.946 423.491 33.2129 422.764 33.892C422.037 34.5711 431.675 49.23 431.675 49.23Z" fill="#A94846"/>
<path d="M484.911 49.9429C477.311 51.8842 470.308 53.3727 465.444 56.7682C467.845 63.2368 472.88 75.3576 474.547 82.0456C482.668 78.6159 488.06 71.4202 488.197 70.6725C496.292 62.3313 489.034 48.8729 484.911 49.9429Z" fill="#8064A2"/>
<path d="M433.76 30.6259C445.572 31.7578 449.688 44.9144 455.134 53.4065C456.496 55.6159 458.145 57.6343 460.039 59.4086C461.816 61 463.935 62.0907 466.377 61.5694C468.929 61.0275 471.405 59.3675 473.518 57.8995C475.618 56.4793 477.472 54.7253 479.006 52.7068C480.715 50.4422 481.752 47.7414 481.996 44.9144C482.072 43.7483 482.092 42.2735 481.269 41.3406C480.981 40.9874 480.574 40.7519 480.124 40.6786C479.674 40.6053 479.213 40.6993 478.827 40.9427C478.539 41.1485 478.827 41.6287 479.109 41.4229C480.727 40.291 481.441 42.7948 481.461 43.9129C481.483 45.1736 481.31 46.43 480.947 47.6376C480.168 50.1177 478.814 52.3787 476.996 54.2365C475.266 55.9908 473.31 57.5064 471.179 58.7432C468.936 60.1151 466.219 61.782 463.51 60.9314C461.205 60.2043 459.394 58.1465 457.899 56.3218C456.35 54.3485 454.973 52.2464 453.783 50.0385C451.492 45.9776 449.482 41.7316 446.622 38.0205C443.432 33.9048 439.117 30.5848 433.781 30.0703C433.424 30.0703 433.431 30.5916 433.781 30.6259H433.76Z" fill="#031F46"/>
<path d="M477.606 65.2629C477.262 65.4123 476.884 65.4626 476.513 65.4081C476.142 65.3535 475.793 65.1963 475.507 64.9542C475.167 64.7108 474.867 64.417 474.615 64.083C474.33 63.7435 474.118 63.3489 473.991 62.9238C473.827 62.1692 474.677 61.936 475.24 62.0046C475.596 62.0719 475.934 62.209 476.237 62.408C476.54 62.607 476.8 62.8638 477.003 63.1639C477.261 63.515 477.446 63.9147 477.546 64.3391C477.646 64.7634 477.66 65.2036 477.586 65.6333C477.517 65.9831 478.052 66.1272 478.121 65.7773C478.298 64.8271 478.104 63.8452 477.579 63.0335C477.343 62.6417 477.03 62.3022 476.658 62.0356C476.287 61.769 475.865 61.5811 475.418 61.4833C474.65 61.3598 473.6 61.5999 473.436 62.4985C473.396 63.0624 473.57 63.6205 473.923 64.0624C474.191 64.4888 474.524 64.8707 474.91 65.1943C475.292 65.5782 475.781 65.8365 476.313 65.9346C476.845 66.0327 477.394 65.9658 477.887 65.743C478.196 65.5784 477.887 65.0982 477.606 65.2697V65.2629Z" fill="#FFF8ED"/>
<path d="M484.72 64.2166C484.377 63.2428 484.116 62.2425 483.938 61.2258C483.821 60.5398 483.649 59.5383 484.143 58.921C484.637 58.3036 485.728 58.6535 486.112 59.312C486.31 59.6942 486.418 60.1168 486.428 60.5472C486.437 60.9776 486.348 61.4045 486.167 61.7951C485.748 62.6512 485.199 63.4378 484.541 64.1274C484.308 64.3949 484.699 64.8133 484.932 64.5184C486.201 63.0779 487.676 61.1435 486.654 59.1474C486.457 58.7172 486.107 58.3753 485.672 58.1879C485.238 58.0004 484.749 57.9805 484.301 58.1321C483.423 58.5026 483.231 59.504 483.279 60.3821C483.395 61.746 483.7 63.0873 484.184 64.3675C484.301 64.7036 484.87 64.5595 484.72 64.2166Z" fill="#FFF8ED"/>
<path d="M454.49 90.2647C453.861 89.4427 453.143 88.6928 452.349 88.0285C452.186 87.8636 451.986 87.7402 451.765 87.6686C451.544 87.597 451.309 87.5793 451.08 87.6169C450.9 87.6784 450.737 87.7841 450.608 87.9242C450.479 88.0644 450.386 88.2346 450.339 88.4195C449.88 89.8394 451.19 91.1633 452.48 91.4926C452.847 91.5938 453.232 91.615 453.608 91.5547C453.985 91.4943 454.344 91.3538 454.661 91.1427C454.949 90.9369 454.661 90.4568 454.38 90.6625C453.926 90.9432 453.391 91.0627 452.86 91.0017C452.33 90.9408 451.836 90.7028 451.458 90.3264C451.261 90.1548 451.102 89.9442 450.991 89.7081C450.88 89.472 450.82 89.2154 450.813 88.9545C450.808 88.8249 450.833 88.6959 450.885 88.5771C450.938 88.4584 451.016 88.3529 451.115 88.2686C451.437 88.0559 451.801 88.3715 452.061 88.5704C452.816 89.2166 453.506 89.9357 454.119 90.7174C454.171 90.7693 454.241 90.7984 454.315 90.7984C454.388 90.7984 454.458 90.7693 454.51 90.7174C454.562 90.6656 454.591 90.5953 454.591 90.5219C454.591 90.4486 454.562 90.3783 454.51 90.3264L454.49 90.2647Z" fill="#FFF8ED"/>
<path d="M464.23 85.6641C463.874 85.1594 463.64 84.5797 463.544 83.9698C463.49 83.6735 463.474 83.3716 463.496 83.0712C463.491 82.775 463.554 82.4816 463.681 82.2138C463.921 81.7748 464.511 81.9188 464.799 82.2138C464.955 82.4597 465.05 82.7391 465.076 83.029C465.103 83.3189 465.059 83.6108 464.95 83.8807C464.747 84.6018 464.407 85.2771 463.949 85.8699C463.93 85.901 463.918 85.9354 463.913 85.9712C463.907 86.007 463.909 86.0435 463.918 86.0785C463.927 86.1136 463.943 86.1466 463.965 86.1755C463.986 86.2045 464.014 86.2288 464.045 86.2472C464.109 86.2833 464.184 86.2935 464.256 86.2756C464.327 86.2578 464.389 86.2132 464.429 86.1512C464.918 85.5077 465.279 84.7766 465.492 83.9973C465.62 83.6449 465.663 83.267 465.616 82.8949C465.57 82.5228 465.436 82.1671 465.225 81.8571C465.025 81.6234 464.754 81.4632 464.453 81.4023C464.152 81.3414 463.839 81.3831 463.565 81.521C462.947 81.9051 462.879 82.8929 462.94 83.524C462.986 84.3863 463.274 85.2184 463.77 85.9248C463.976 86.2129 464.456 85.9248 464.251 85.6436L464.23 85.6641Z" fill="#FFF8ED"/>
<path d="M480.933 86.6443C480.137 86.3534 479.289 86.2297 478.443 86.2807C478.02 86.3207 477.617 86.4826 477.283 86.7468C476.949 87.0109 476.7 87.3661 476.564 87.7693C476.498 88.1281 476.548 88.4986 476.705 88.8276C476.863 89.1565 477.121 89.4272 477.442 89.6008C477.775 89.8109 478.162 89.9224 478.556 89.9224C478.951 89.9224 479.337 89.8109 479.671 89.6008C480.453 89.0693 481.012 88.2684 481.242 87.3508C481.251 87.3157 481.254 87.279 481.249 87.243C481.244 87.2069 481.233 87.1721 481.214 87.1406C481.196 87.109 481.172 87.0814 481.143 87.0592C481.114 87.037 481.081 87.0207 481.046 87.0113C481.011 87.0018 480.975 86.9994 480.938 87.0041C480.902 87.0088 480.868 87.0206 480.836 87.0387C480.805 87.0569 480.777 87.081 480.755 87.1099C480.733 87.1387 480.716 87.1716 480.707 87.2068C480.378 88.318 479.335 89.8203 477.963 89.2646C477.7 89.1816 477.471 89.0172 477.308 88.7952C477.146 88.5732 477.058 88.3052 477.058 88.0299C477.142 87.7075 477.325 87.4193 477.58 87.2054C477.836 86.9915 478.152 86.8625 478.484 86.8364C479.261 86.7979 480.038 86.9169 480.769 87.1862C480.839 87.2053 480.915 87.1954 480.979 87.1588C481.042 87.1221 481.089 87.0617 481.108 86.9907C481.127 86.9198 481.117 86.8441 481.081 86.7804C481.044 86.7168 480.984 86.6703 480.913 86.6512L480.933 86.6443Z" fill="#FFF8ED"/>
<path d="M456.548 60.8909C455.965 60.7559 455.434 60.4558 455.018 60.0266C454.6 59.6268 454.329 59.0974 454.25 58.5243C454.215 58.0785 454.366 57.468 454.936 57.468C455.505 57.468 455.91 58.051 456.04 58.5243C456.266 59.3338 456.115 60.1912 456.376 61.0006C456.486 61.3367 457.021 61.1927 456.911 60.8497C456.637 60.0129 456.829 59.1005 456.548 58.2705C456.447 57.9203 456.249 57.6058 455.977 57.363C455.705 57.1203 455.37 56.9593 455.011 56.8986C454.678 56.893 454.356 57.0187 454.115 57.2484C453.873 57.4781 453.732 57.7935 453.721 58.1265C453.678 58.8325 453.909 59.528 454.366 60.0677C454.871 60.7511 455.599 61.2364 456.424 61.4396C456.774 61.522 456.925 60.9869 456.575 60.9046L456.548 60.8909Z" fill="#FFF8ED"/>
<path d="M465.856 51.4288C465.533 51.3002 465.187 51.2369 464.839 51.2425C464.491 51.2482 464.148 51.3227 463.829 51.4617C463.51 51.6007 463.222 51.8016 462.981 52.0526C462.741 52.3036 462.552 52.5998 462.426 52.9242C462.281 53.2633 462.265 53.6439 462.381 53.9939C462.497 54.344 462.738 54.6394 463.057 54.8243C463.846 55.1741 464.655 54.5705 465.115 53.9668C465.325 53.6457 465.478 53.2906 465.568 52.9173C465.65 52.6567 465.753 52.3205 466.041 52.2314C466.111 52.2091 466.169 52.1614 466.205 52.0977C466.24 52.0341 466.25 51.9592 466.233 51.8884C466.212 51.8179 466.165 51.7584 466.101 51.7225C466.037 51.6866 465.961 51.6772 465.89 51.6963C465.286 51.9227 465.129 52.5057 464.95 53.0682C464.869 53.3659 464.717 53.6393 464.506 53.8652C464.296 54.091 464.034 54.2624 463.743 54.3647C463.621 54.4039 463.491 54.4053 463.368 54.3685C463.246 54.3318 463.137 54.2587 463.057 54.1589C462.908 53.9351 462.849 53.663 462.892 53.3975C462.939 53.1237 463.047 52.8642 463.209 52.6384C463.37 52.4126 463.581 52.2265 463.825 52.0942C464.09 51.934 464.387 51.8355 464.694 51.8058C465.002 51.7761 465.312 51.8161 465.602 51.9227C465.667 51.9572 465.742 51.9665 465.813 51.9487C465.884 51.931 465.945 51.8875 465.986 51.8267C466.004 51.7952 466.016 51.7604 466.021 51.7243C466.026 51.6882 466.023 51.6516 466.014 51.6165C466.004 51.5814 465.988 51.5485 465.965 51.5198C465.943 51.4911 465.915 51.4672 465.883 51.4494L465.856 51.4288Z" fill="#FFF8ED"/>
<path d="M487.861 80.091C487.084 80.0714 486.337 79.7884 485.741 79.2884C485.275 78.8906 484.706 78.1566 485.131 77.5392C485.292 77.3402 485.507 77.1922 485.751 77.113C485.994 77.0339 486.256 77.0271 486.503 77.0934C486.744 77.1812 486.96 77.3274 487.131 77.5189C487.302 77.7104 487.423 77.9413 487.484 78.1909C487.722 78.8223 487.842 79.4917 487.841 80.1664C487.851 80.2326 487.885 80.2929 487.936 80.3364C487.987 80.38 488.051 80.4039 488.118 80.4039C488.185 80.4039 488.25 80.38 488.301 80.3364C488.352 80.2929 488.386 80.2326 488.396 80.1664C488.397 79.4644 488.274 78.7677 488.033 78.1086C487.95 77.7718 487.789 77.4593 487.563 77.197C487.336 76.9346 487.051 76.7298 486.729 76.5995C486.388 76.498 486.025 76.493 485.682 76.585C485.338 76.6771 485.026 76.8625 484.781 77.1208C484.534 77.4692 484.427 77.8971 484.479 78.3208C484.531 78.7445 484.739 79.1335 485.062 79.4119C485.424 79.7961 485.858 80.1049 486.34 80.3204C486.821 80.5358 487.341 80.6537 487.868 80.6672C487.934 80.6568 487.994 80.6231 488.038 80.5721C488.081 80.5212 488.105 80.4564 488.105 80.3894C488.105 80.3224 488.081 80.2576 488.038 80.2067C487.994 80.1557 487.934 80.122 487.868 80.1116L487.861 80.091Z" fill="#FFF8ED"/>
<path d="M326 125.516L350.359 278.106" stroke="#FF616B" stroke-width="3.14" stroke-miterlimit="10"/>
<path d="M280.151 125.516L255.792 278.106" stroke="#FF616B" stroke-width="3.14" stroke-miterlimit="10"/>
<path d="M354.57 116.605H254.599V127.114H354.57V116.605Z" fill="#FFC56B"/>
<path d="M348.205 120.823H264.47L285.961 0.15625H369.703L348.205 120.823Z" fill="#FFC56B"/>
<path d="M341.763 120.823H258.022L279.513 0.15625H363.254L341.763 120.823Z" fill="white"/>
<path d="M310.01 98.2651C303.651 93.6418 296.751 94.513 290.152 98.0113C284.664 100.906 279.863 98.1485 276.227 93.6212C274.121 91.0146 270.053 82.2481 265.979 85.5887C265.609 85.8936 265.186 86.1263 264.73 86.2746L259.929 113.219H319.079C317.961 107.327 314.874 101.763 310.01 98.2651Z" fill="#0096C8"/>
<path d="M342.394 116.605H242.423V127.114H342.394V116.605Z" fill="#FF616B"/>
<path d="M284.081 11.3536C294.968 13.6669 304.723 19.6684 311.696 28.3437C318.669 37.0189 322.432 47.8358 322.351 58.9657C315.992 58.9245 309.365 58.7188 303.734 55.7691C296.099 51.77 291.764 43.6003 287.888 35.8765C284.013 28.1526 280.02 19.8457 281.372 11.3398" fill="#5BC29C"/>
<path d="M304.825 39.7183L309.091 43.5734C309.345 43.8066 309.729 43.4293 309.468 43.1961L305.202 39.3342C304.948 39.101 304.564 39.4851 304.825 39.7183Z" fill="white"/>
<path d="M314.401 48.7729L317.783 52.5593C318.009 52.82 318.393 52.4359 318.16 52.1821L314.778 48.3956C314.545 48.1349 314.168 48.5191 314.401 48.7729Z" fill="white"/>
<path d="M287.189 19.6247L289.548 22.0392C289.795 22.2862 290.172 21.902 289.932 21.6551L287.566 19.2474C287.326 18.9936 286.942 19.3777 287.189 19.6247Z" fill="white"/>
<path d="M342.683 13.6641C338.695 15.0188 335.034 17.1924 331.935 20.0452C328.837 22.898 326.369 26.3671 324.69 30.2299C327.276 31.5332 330.473 31.2177 333.079 29.9418C335.686 28.6659 337.778 26.5532 339.596 24.2895C341.811 21.5457 343.766 18.2531 343.561 14.7273" fill="#5BC29C"/>
<path d="M317.405 113.101C316.17 109.672 315.978 105.59 315.793 101.948C315.608 98.3054 316.644 94.4023 319.346 91.9603C323.057 88.5854 329.011 88.5649 332.572 85.039C335.164 82.4736 335.912 78.6459 336.783 75.1133C339.527 64.0831 344.13 53.8487 354.652 49.582L343.355 113.259L317.405 113.101Z" fill="#FF937E"/>
<path d="M236.915 254.332L237.121 270.589C237.121 270.589 239.659 279.843 242.011 276.262C243.308 274.224 244.883 272.377 246.69 270.774L247.904 254.997L236.915 254.332Z" fill="#FFC56B"/>
<path d="M247.808 270.718L262.11 278.874C262.748 279.244 262.398 280.005 261.596 279.998C254.99 279.964 237.203 279.779 232.525 279.724C231.956 279.724 231.565 279.299 231.743 278.901C232.738 276.685 236.099 268.289 236.483 268.234C236.483 268.234 239.824 273.633 241.772 273.091C243.445 272.559 245.026 271.769 246.457 270.752C246.646 270.597 246.882 270.51 247.127 270.504C247.371 270.498 247.611 270.573 247.808 270.718Z" fill="#FF937E"/>
<path d="M250.696 271.652L248.268 273.875" stroke="white" stroke-width="1.02" stroke-miterlimit="10" stroke-linecap="round"/>
<path d="M252.301 272.934L249.873 275.156" stroke="white" stroke-width="1.02" stroke-miterlimit="10" stroke-linecap="round"/>
<path d="M177.422 253.322L174.555 260.065C174.555 260.065 172.662 269.462 176.373 267.322C178.371 266.115 180.537 265.211 182.8 264.64L191.196 250.969L177.422 253.322Z" fill="#FFC56B"/>
<path d="M184.042 264.949L193.151 278.668C193.556 279.278 192.904 279.806 192.184 279.443C186.305 276.438 170.494 268.282 166.344 266.128C165.836 265.868 165.658 265.319 166.015 265.045C167.894 263.508 174.671 257.499 175.042 257.643C175.042 257.643 175.597 263.968 177.58 264.359C179.316 264.627 181.084 264.627 182.821 264.359C183.061 264.305 183.312 264.334 183.534 264.441C183.756 264.548 183.935 264.727 184.042 264.949Z" fill="#FF937E"/>
<path d="M186.203 267.113L183.033 268.012" stroke="white" stroke-width="1.02" stroke-miterlimit="10" stroke-linecap="round"/>
<path d="M187.06 268.984L183.891 269.876" stroke="white" stroke-width="1.02" stroke-miterlimit="10" stroke-linecap="round"/>
<path d="M218.058 95.0879C213.73 104.28 211.638 106.749 208.935 117.903C205.8 130.826 206.465 148.222 204.634 161.214C202.761 174.501 202.981 173.383 199.832 188.172C195.902 206.569 185.619 235.4 177.436 253.214C178.17 254.312 185.16 258.702 189.906 261.631C204.799 243.268 218.236 211.899 224.04 188.686C228.443 171.078 231.839 158.504 232.854 141.534C232.978 139.476 235.358 139.606 236.133 141.486C244.364 161.337 231.222 236.367 232.888 265.212H250.792C254.825 237.65 258.337 211.344 259.778 180.62C261.184 150.129 267.179 125.791 247.931 95.0742C236.27 95.3486 227.62 95.2731 218.058 95.0879Z" fill="#0096C8"/>
<path opacity="0.5" d="M227.923 95.3555C227.923 95.3555 230.152 116.874 208.716 117.395" stroke="white" stroke-width="0.75" stroke-miterlimit="10"/>
<path opacity="0.5" d="M244.159 95.3555C244.845 96.7274 246.731 113.911 259.881 114.295" stroke="white" stroke-width="0.75" stroke-miterlimit="10"/>
<path d="M239.638 40.4319C240.201 38.6209 233.986 11.9373 232.532 10.7163C228.54 7.37568 224.643 6.60055 219.553 7.70494C215.616 8.55553 206.52 13.3709 204.298 41.3853" fill="#FF616B"/>
<path d="M217.667 11.4554C220.831 11.4554 223.395 8.89106 223.395 5.72772C223.395 2.56439 220.831 0 217.667 0C214.504 0 211.94 2.56439 211.94 5.72772C211.94 8.89106 214.504 11.4554 217.667 11.4554Z" fill="#FF616B"/>
<path d="M237.107 21.6813C234.802 11.7212 227.579 11.9888 225.734 12.2014C224.177 12.3866 218.806 12.4003 218.435 24.8436C218.435 24.9027 218.422 24.9611 218.398 25.0151C218.373 25.0691 218.338 25.1175 218.294 25.1574C218.251 25.1973 218.199 25.2277 218.143 25.2469C218.087 25.2661 218.028 25.2736 217.969 25.2689C216.926 25.2071 214.539 24.8367 214.018 27.5531C213.497 30.2695 216.076 32.0118 217.633 32.197C218.092 32.245 219.142 32.4028 219.43 32.7595C219.772 33.0089 220.175 33.1606 220.596 33.1985L219.169 47.336C245.339 57.4676 234.329 46.4854 234.329 46.4854L231.304 33.7404C231.661 33.7404 233.238 33.8913 233.252 33.8913C235.907 33.4249 239.597 32.4096 237.107 21.6813Z" fill="#FFC56B"/>
<path d="M217.928 21.5124L223.944 19.1047C223.944 19.1047 223.498 14.7421 223.642 15.1948C224.276 16.0541 224.983 16.8573 225.754 17.5956L232.82 15.6407L229.514 10.6743L234.933 16.9989C234.933 16.9989 232.971 5.07696 224.849 8.76739C216.727 12.4578 217.928 21.5124 217.928 21.5124Z" fill="#FF616B"/>
<path d="M231.304 33.7421L226.653 32.6445C226.653 32.6445 228.128 38.2968 231.304 33.7421Z" fill="#1E2046"/>
<path d="M215.006 27.8488C215.006 27.8488 216.858 24.4808 218.662 29.255L215.006 27.8488Z" fill="#FA9E52"/>
<path d="M227.373 24.8652C227.86 24.8832 228.331 25.0452 228.726 25.3307C229.12 25.6163 229.422 26.0125 229.591 26.4692C229.761 26.926 229.791 27.4227 229.678 27.8967C229.565 28.3706 229.314 28.8004 228.957 29.1317C228.6 29.463 228.152 29.6809 227.671 29.7578C227.19 29.8347 226.697 29.7672 226.254 29.5638C225.812 29.3604 225.439 29.0303 225.184 28.6152C224.929 28.2 224.803 27.7186 224.822 27.2318C224.833 26.9086 224.908 26.5909 225.043 26.2969C225.177 26.0029 225.369 25.7383 225.606 25.5184C225.843 25.2985 226.121 25.1277 226.425 25.0156C226.728 24.9035 227.05 24.8524 227.373 24.8652Z" fill="#FA9E52"/>
<path d="M237.855 26.3051C236.744 26.0307 235.639 25.0635 235.68 23.87C235.705 23.4135 235.844 22.9705 236.083 22.5811C236.323 22.1918 236.656 21.8685 237.052 21.6406C237.521 23.154 237.791 24.722 237.855 26.3051Z" fill="#FA9E52"/>
<path d="M233.657 25.5115L234.741 25.0108C234.797 24.9908 234.848 24.9562 234.887 24.9106C234.926 24.865 234.952 24.8099 234.964 24.7509C234.975 24.6918 234.97 24.6309 234.95 24.5742C234.93 24.5175 234.896 24.467 234.851 24.4277L233.239 22.7266" fill="#FA9E52"/>
<path d="M228.265 20.1067C227.916 20.5388 228.197 18.968 228.752 18.6319C228.992 18.4679 229.286 18.4041 229.572 18.4541C229.858 18.5041 230.113 18.6639 230.282 18.8994C229.49 19.0561 228.778 19.4829 228.265 20.1067Z" fill="#183350"/>
<path d="M235.543 19.5908C236.071 19.776 235.001 18.5893 234.357 18.6031C234.067 18.588 233.783 18.6875 233.566 18.88C233.349 19.0725 233.217 19.3426 233.197 19.632C233.95 19.3429 234.781 19.3283 235.543 19.5908Z" fill="#183350"/>
<path d="M231.277 23.4947C231.434 23.9543 231.736 24.263 231.963 24.1807C232.189 24.0984 232.237 23.6731 232.086 23.2204C231.935 22.7676 231.627 22.4452 231.4 22.5344C231.174 22.6236 231.126 23.0489 231.277 23.4947Z" fill="#183350"/>
<path d="M234.178 22.5141C234.329 22.9531 234.617 23.255 234.83 23.2001C235.042 23.1452 235.097 22.7199 234.946 22.2809C234.795 21.8419 234.507 21.5469 234.295 21.595C234.082 21.643 234.034 22.082 234.178 22.5141Z" fill="#183350"/>
<path d="M230.495 26.9784C230.796 26.903 236.14 25.3047 236.14 25.3047C236.14 25.3047 235.694 28.0485 234.302 28.3503C232.909 28.6521 230.495 26.9784 230.495 26.9784Z" fill="#FFF8ED"/>
<path d="M247.3 62.3823C247.3 62.3823 258.543 65.7709 260.985 62.931C263.043 60.5233 274.636 43.6694 277.88 37.0774C278.456 35.9044 280.658 33.6476 284.314 33.2292C288.979 32.6941 299.124 32.845 299.104 34.2924C299.104 36.1308 288.43 38.2847 288.43 38.2847C288.43 38.2847 289.864 45.446 283.313 45.7822C283.313 45.7822 275.973 76.3346 270.87 78.6668C265.766 80.9991 245.16 81.8016 245.16 81.8016L247.3 62.3823Z" fill="#FFC56B"/>
<path d="M295.811 29.4414L297.588 31.5541L284.472 47.29C284.164 47.6618 283.723 47.8991 283.243 47.9516C282.763 48.0041 282.281 47.8677 281.9 47.5712C281.694 47.4138 281.523 47.2151 281.398 46.9877C281.273 46.7603 281.198 46.5094 281.176 46.2509C281.154 45.9925 281.186 45.7324 281.271 45.4872C281.355 45.242 281.49 45.0173 281.667 44.8274L295.811 29.4414Z" fill="#A94846"/>
<path d="M285.021 35.9102C285.021 35.9102 292.731 37.8034 292.1 39.2713C291.469 40.7393 283.821 41.0205 283.821 41.0205L285.021 35.9102Z" fill="#FFC56B"/>
<path d="M295.811 29.44C295.811 29.44 294.322 28.0681 297.348 26.3395C300.373 24.6109 301.964 24.9058 301.964 24.9058C301.964 24.9058 302.437 30.9559 299.577 31.2783C296.716 31.6007 297.567 31.5527 297.567 31.5527L295.811 29.44Z" fill="white"/>
<path d="M252.054 83.0977L256.17 62.08C251.368 54.7609 241.148 46.7215 236.277 46.6666C236.181 46.6666 236.099 46.7558 236.017 46.8861C234.947 46.0493 233.815 45.2193 233.828 45.1713C238.438 55.9065 220.171 43.6484 220.171 43.6484C217.75 43.8336 206.452 49.0263 197.473 55.4537C191.135 59.9742 193.103 58.8149 193.103 58.8149C193.103 58.8149 203.468 75.0377 205.876 77.6375C206.37 79.5513 208.709 75.1338 208.709 75.1338L213.215 101.241L254.606 101.564C255.1 101.234 251.938 81.4651 247.856 68.8641C248.556 70.3595 250.943 83.6259 252.054 83.0977Z" fill="#FF937E"/>
<path d="M204.689 48.6877C203.825 51.946 206.26 54.8613 208.208 57.2004C210.266 59.6424 212.625 61.9541 215.561 63.2917C220.24 65.4181 227.682 64.3686 228.8 58.394C229.28 55.8148 227.819 52.9063 225.055 52.4261C221.81 51.9048 223.141 56.6311 224.143 58.099C224.952 59.2407 226.049 60.1476 227.323 60.7272C228.596 61.3068 230.001 61.5384 231.393 61.3984C234.59 61.1446 237.409 59.4092 239.577 57.1181C242.086 54.3648 244.06 51.1687 245.4 47.6931C246.893 44.2028 247.334 40.3524 246.669 36.6149C246.594 36.2513 246.045 36.4022 246.121 36.7658C247.294 42.5278 245.023 48.3173 241.936 53.1052C239.062 57.5708 233.993 62.3656 228.183 60.4793C225.713 59.6767 223.614 57.3033 223.566 54.6349C223.566 53.7843 223.717 52.92 224.739 52.9612C225.508 53.0438 226.229 53.3708 226.797 53.8941C227.306 54.3464 227.706 54.9076 227.967 55.5359C228.228 56.1642 228.344 56.8434 228.306 57.5228C228.046 63.2505 221.035 64.7596 216.645 63.1271C213.744 62.0501 211.363 59.9305 209.34 57.6394C207.316 55.3483 204.353 52.1518 205.224 48.8318C205.244 48.759 205.234 48.6812 205.197 48.6156C205.16 48.55 205.098 48.5019 205.025 48.4819C204.952 48.4619 204.875 48.4716 204.809 48.5089C204.743 48.5462 204.695 48.6081 204.675 48.6808L204.689 48.6877Z" fill="#FFF8ED"/>
<path d="M225.473 103.264C224.225 94.5525 226.42 85.6077 230.927 78.117C235.324 70.8048 241.902 65.0427 249.393 61.0368C253.628 58.7853 258.119 57.0511 262.769 55.8715C262.84 55.8492 262.899 55.8002 262.935 55.7349C262.971 55.6696 262.98 55.593 262.96 55.5212C262.941 55.4493 262.894 55.3879 262.831 55.3496C262.767 55.3113 262.691 55.2992 262.618 55.3159C254.184 57.4068 246.339 61.3951 239.68 66.9771C232.946 72.6746 228.104 80.2845 225.796 88.7974C224.531 93.5673 224.235 98.5424 224.925 103.429C224.973 103.792 225.528 103.641 225.473 103.278V103.264Z" fill="#FFF8ED"/>
<path d="M207.975 88.8552C212.967 91.609 218.488 93.2715 224.171 93.7327C229.854 94.1939 235.57 93.4432 240.942 91.5304C243.329 90.6661 246.018 89.6509 247.911 87.9086C249.461 86.4749 250.188 84.2319 248.885 82.3798C248.652 82.0261 248.333 81.737 247.958 81.5389C247.584 81.3408 247.166 81.2402 246.742 81.2464C246.318 81.2525 245.903 81.3652 245.534 81.5741C245.165 81.7829 244.855 82.0813 244.632 82.4415C243.377 84.3142 244.18 86.5572 245.819 87.8468C248.137 89.6989 251.526 90.3094 254.414 90.3711C257.65 90.4337 260.849 89.6712 263.709 88.1555C264.038 87.984 263.75 87.4696 263.421 87.6616C261.16 88.8631 258.673 89.5772 256.12 89.758C253.567 89.9388 251.004 89.5822 248.597 88.7111C246.505 87.9223 243.946 86.18 244.715 83.5939C245.023 82.5718 245.929 81.5978 247.088 81.8036C247.58 81.9451 248.019 82.2291 248.35 82.6197C248.681 83.0103 248.888 83.4901 248.947 83.9986C249.4 86.4749 246.965 88.1143 245.064 89.1227C242.891 90.2387 240.611 91.1348 238.26 91.7979C233.603 93.1161 228.746 93.5808 223.923 93.1698C218.422 92.696 213.084 91.0594 208.263 88.3682C208.231 88.3492 208.196 88.3368 208.159 88.3316C208.122 88.3263 208.085 88.3284 208.049 88.3376C208.013 88.3469 207.979 88.3631 207.949 88.3854C207.919 88.4077 207.894 88.4356 207.875 88.4676C207.856 88.4996 207.844 88.535 207.839 88.5718C207.834 88.6086 207.836 88.646 207.845 88.682C207.854 88.718 207.87 88.7518 207.893 88.7815C207.915 88.8112 207.943 88.8363 207.975 88.8552Z" fill="#FFF8ED"/>
<path d="M196.451 54.0327C201.191 56.3718 204.6 60.7345 206.459 65.6116C208.654 71.3942 208.722 77.7256 208.105 83.81C208.071 84.1736 208.64 84.1736 208.681 83.81C209.312 77.513 209.216 70.9209 206.815 64.9737C204.874 60.172 201.458 55.8642 196.739 53.5388C196.416 53.3811 196.121 53.8681 196.451 54.0327Z" fill="#FFF8ED"/>
<path d="M208.187 83.8983C208.883 81.6746 209.9 79.5647 211.206 77.6355C212.447 75.804 214.114 73.5198 216.282 72.7378C216.756 72.5581 217.264 72.4882 217.769 72.5334C218.274 72.5785 218.762 72.7375 219.197 72.9984C220.343 73.7461 220.418 75.2347 219.883 76.3802C219.294 77.4131 218.469 78.2922 217.475 78.9457C216.571 79.6182 215.619 80.2257 214.629 80.7635C212.305 82.0112 209.786 82.8533 207.179 83.2535C206.816 83.3083 206.966 83.8571 207.33 83.8022C211.283 83.2 215.016 81.5914 218.168 79.1309C219.197 78.4217 220.014 77.4476 220.535 76.3116C220.743 75.8419 220.831 75.3278 220.791 74.8156C220.751 74.3034 220.584 73.8092 220.306 73.3773C220.028 72.9453 219.647 72.5893 219.197 72.3412C218.747 72.0931 218.243 71.9607 217.729 71.9558C215.198 71.8117 213.236 74.0685 211.816 75.8657C209.957 78.2157 208.546 80.8872 207.652 83.7473C207.543 84.0972 208.091 84.2481 208.201 83.8983H208.187Z" fill="#FFF8ED"/>
<path d="M251.746 49.1265C250.056 49.5071 248.449 50.1929 247.006 51.1501C245.723 52.0007 244.262 53.1256 243.699 54.6279C243.572 54.9478 243.529 55.295 243.574 55.6363C243.62 55.9775 243.752 56.3014 243.959 56.5768C244.165 56.8522 244.439 57.07 244.754 57.2092C245.069 57.3483 245.414 57.4043 245.757 57.3717C246.582 57.2919 247.365 56.9697 248.007 56.4457C248.726 55.94 249.414 55.3902 250.065 54.7994C251.558 53.4375 252.874 51.8935 253.982 50.2035C254.181 49.8948 253.687 49.6067 253.488 49.9154C252.647 51.1964 251.682 52.3912 250.607 53.4823C249.581 54.5963 248.409 55.5655 247.122 56.3634C246.813 56.5718 246.46 56.7078 246.091 56.7612C245.721 56.8147 245.345 56.7842 244.989 56.672C244.813 56.6017 244.654 56.4959 244.522 56.3613C244.389 56.2266 244.286 56.066 244.218 55.8896C244.151 55.7131 244.12 55.5246 244.129 55.3358C244.138 55.147 244.185 54.9621 244.269 54.7925C244.749 53.4206 246.162 52.4123 247.307 51.6508C248.71 50.7218 250.27 50.0548 251.91 49.6822C252.267 49.5998 252.116 49.0511 251.759 49.1334L251.746 49.1265Z" fill="#FFF8ED"/>
<path d="M245.73 133.022C242.356 133.567 238.897 133.167 235.737 131.863C232.578 130.56 229.842 128.406 227.833 125.641C224.678 121.34 222.6 115.4 226.427 108.567C234.302 94.478 251.019 101.399 252.452 105.22C253.886 109.041 254.839 109.281 250.305 114.535C245.771 119.79 249.688 120.915 251.259 126.478C252.439 130.669 249.413 132.391 245.73 133.022Z" fill="white"/>
<path d="M241.71 126.708C242.763 126.708 243.617 125.855 243.617 124.801C243.617 123.748 242.763 122.895 241.71 122.895C240.657 122.895 239.803 123.748 239.803 124.801C239.803 125.855 240.657 126.708 241.71 126.708Z" fill="#FF616B"/>
<path d="M236.456 123.61C237.641 123.61 238.603 122.649 238.603 121.463C238.603 120.278 237.641 119.316 236.456 119.316C235.27 119.316 234.309 120.278 234.309 121.463C234.309 122.649 235.27 123.61 236.456 123.61Z" fill="#5BC29C"/>
<path d="M241.71 108.325C241.711 107.899 241.586 107.481 241.35 107.126C241.114 106.771 240.778 106.494 240.385 106.33C239.992 106.166 239.558 106.122 239.14 106.205C238.722 106.287 238.337 106.492 238.035 106.792C237.733 107.093 237.528 107.477 237.444 107.895C237.36 108.313 237.403 108.747 237.565 109.141C237.728 109.535 238.004 109.871 238.359 110.108C238.713 110.345 239.13 110.472 239.556 110.472C240.126 110.472 240.673 110.246 241.077 109.843C241.48 109.441 241.708 108.895 241.71 108.325Z" fill="#45A2B9"/>
<path d="M248.151 107.613C248.15 107.188 248.023 106.774 247.786 106.422C247.549 106.07 247.213 105.796 246.821 105.634C246.428 105.473 245.997 105.431 245.581 105.515C245.165 105.598 244.783 105.803 244.483 106.104C244.184 106.404 243.98 106.787 243.898 107.203C243.815 107.62 243.858 108.051 244.021 108.443C244.184 108.835 244.459 109.17 244.812 109.405C245.165 109.641 245.58 109.767 246.004 109.767C246.286 109.767 246.566 109.711 246.827 109.603C247.088 109.494 247.325 109.336 247.525 109.135C247.724 108.935 247.882 108.698 247.99 108.437C248.097 108.175 248.152 107.895 248.151 107.613Z" fill="#1E2046"/>
<path d="M237.91 114.041C237.91 113.615 237.784 113.198 237.547 112.844C237.31 112.49 236.974 112.214 236.58 112.051C236.187 111.888 235.754 111.845 235.336 111.928C234.918 112.011 234.534 112.216 234.233 112.518C233.932 112.819 233.727 113.203 233.643 113.62C233.56 114.038 233.603 114.471 233.766 114.865C233.929 115.258 234.205 115.595 234.559 115.832C234.914 116.068 235.33 116.195 235.756 116.195C236.327 116.195 236.875 115.968 237.279 115.564C237.683 115.16 237.91 114.612 237.91 114.041Z" fill="#FF937E"/>
<path d="M225.309 111.11C226.447 112.152 232.093 113.963 231.942 115.911C231.791 117.859 227.264 114.594 227.044 115.664C226.825 116.734 231.702 116.899 231.386 118.408C231.071 119.917 226.708 117.722 226.413 118.497C226.118 119.272 231.345 119.334 230.686 120.507C230.028 121.68 226.571 120.082 225.309 120.363C224.046 120.644 230.693 121.495 227.236 122.263C225.988 122.544 224.561 121.886 221.81 121.337C178.849 107.241 172.627 106.109 195.058 61.9609C197.315 64.7459 200.998 71.5163 204.661 75.879C192.808 103.372 210.725 101.438 226.317 108.86" fill="#FFC56B"/>
</svg>
