<svg width="40" height="40" viewBox="0 0 40 40" fill="none" xmlns="http://www.w3.org/2000/svg">
<path d="M36.5335 12.0821V12.2987L34.1002 21.2987C33.8126 22.367 33.1789 23.3096 32.2982 23.9792C31.4176 24.6487 30.3398 25.0073 29.2335 24.9987H16.4835C15.2319 25.0038 14.0238 24.5392 13.098 23.6968C12.1723 22.8544 11.5962 21.6953 11.4835 20.4487L10.4002 8.18207C10.3626 7.76654 10.1706 7.3802 9.86203 7.09938C9.55344 6.81857 9.15075 6.66371 8.73353 6.66541H5.11686C4.67483 6.66541 4.25091 6.48981 3.93835 6.17725C3.62579 5.86469 3.4502 5.44077 3.4502 4.99874C3.4502 4.55671 3.62579 4.13279 3.93835 3.82023C4.25091 3.50767 4.67483 3.33207 5.11686 3.33207H8.73353C9.98521 3.32699 11.1933 3.79157 12.119 4.634C13.0448 5.47644 13.6209 6.63546 13.7335 7.88207V8.33207H33.2169C33.692 8.32834 34.1624 8.42623 34.5966 8.61917C35.0308 8.81211 35.4187 9.09564 35.7344 9.45076C36.05 9.80587 36.2861 10.2244 36.4268 10.6782C36.5675 11.132 36.6096 11.6107 36.5502 12.0821H36.5335Z" fill="white"/>
<path d="M15.1169 36.6654C17.418 36.6654 19.2835 34.7999 19.2835 32.4987C19.2835 30.1975 17.418 28.332 15.1169 28.332C12.8157 28.332 10.9502 30.1975 10.9502 32.4987C10.9502 34.7999 12.8157 36.6654 15.1169 36.6654Z" fill="white"/>
<path d="M28.4499 36.6654C30.7511 36.6654 32.6165 34.7999 32.6165 32.4987C32.6165 30.1975 30.7511 28.332 28.4499 28.332C26.1487 28.332 24.2832 30.1975 24.2832 32.4987C24.2832 34.7999 26.1487 36.6654 28.4499 36.6654Z" fill="white"/>
</svg>
