<svg width="40" height="40" viewBox="0 0 40 40" fill="none" xmlns="http://www.w3.org/2000/svg">
<g clip-path="url(#clip0_777_767)">
<rect x="8" y="13" width="24" height="19" fill="white"/>
<path d="M26.6667 17.5513C26.1833 17.068 25.3833 17.068 24.9 17.5513L17.65 24.8013L15 22.1513C14.5167 21.668 13.7167 21.668 13.2333 22.1513C12.75 22.6346 12.75 23.4346 13.2333 23.918L16.4667 27.1513C17.1167 27.8013 18.1667 27.8013 18.8167 27.1513L26.65 19.318C27.15 18.8346 27.15 18.0346 26.6667 17.5513ZM31.6667 5.0013H30V3.33464C30 2.41797 29.25 1.66797 28.3333 1.66797C27.4167 1.66797 26.6667 2.41797 26.6667 3.33464V5.0013H13.3333V3.33464C13.3333 2.41797 12.5833 1.66797 11.6667 1.66797C10.75 1.66797 10 2.41797 10 3.33464V5.0013H8.33333C6.48333 5.0013 5.01667 6.5013 5.01667 8.33464L5 31.668C5 33.5013 6.48333 35.0013 8.33333 35.0013H31.6667C33.5 35.0013 35 33.5013 35 31.668V8.33464C35 6.5013 33.5 5.0013 31.6667 5.0013ZM30 31.668H10C9.08333 31.668 8.33333 30.918 8.33333 30.0013V13.3346H31.6667V30.0013C31.6667 30.918 30.9167 31.668 30 31.668Z" fill="white"/>
<path d="M26.7958 17.3625C26.3125 16.8792 25.5125 16.8792 25.0292 17.3625L17.7792 24.6125L15.1292 21.9625C14.6458 21.4792 13.8458 21.4792 13.3625 21.9625C12.8792 22.4458 12.8792 23.2458 13.3625 23.7292L16.5958 26.9625C17.2458 27.6125 18.2958 27.6125 18.9458 26.9625L26.7792 19.1292C27.2792 18.6458 27.2792 17.8458 26.7958 17.3625Z" fill="#0096C8"/>
</g>
<defs>
<clipPath id="clip0_777_767">
<rect width="40" height="40" fill="white"/>
</clipPath>
</defs>
</svg>
