<svg width="20" height="20" viewBox="0 0 20 20" fill="none" xmlns="http://www.w3.org/2000/svg">
<path d="M10 0.0390625C4.49875 0.0390625 0.0390625 4.49875 0.0390625 10C0.0390625 15.5013 4.49875 19.9609 10 19.9609C15.5013 19.9609 19.9609 15.5013 19.9609 10C19.9609 4.49875 15.5013 0.0390625 10 0.0390625ZM14.7405 5.83656L12.0142 11.7991C11.9706 11.8942 11.8942 11.9706 11.7991 12.0142L5.83656 14.7405C5.46953 14.9083 5.09172 14.53 5.25906 14.163L7.98531 8.20047C8.02891 8.10531 8.10531 8.02891 8.20047 7.98531L14.163 5.25906C14.53 5.09172 14.9083 5.47 14.7405 5.83656Z" fill="#8064A2"/>
<path d="M10.7355 9.8534C10.7303 9.82949 10.7242 9.80558 10.7172 9.78215C10.7102 9.75918 10.7017 9.73574 10.6923 9.71324C10.683 9.69074 10.6727 9.66824 10.6614 9.64668C10.6497 9.62512 10.637 9.60402 10.6234 9.58387C10.6098 9.56324 10.5953 9.54355 10.5798 9.52434C10.5644 9.50559 10.5475 9.4873 10.5302 9.46996C10.5128 9.45262 10.4945 9.43574 10.4758 9.42027C10.4566 9.4048 10.4369 9.39027 10.4163 9.37668C10.3961 9.36309 10.375 9.35043 10.3534 9.33871C10.3319 9.32746 10.3094 9.31668 10.2869 9.30777C10.2644 9.2984 10.2409 9.28996 10.218 9.28293C10.1945 9.27543 10.1706 9.26934 10.1467 9.26465C10.1223 9.25996 10.098 9.25621 10.0736 9.25387C10.0248 9.24871 9.97516 9.24871 9.92641 9.25387C9.90203 9.25621 9.87766 9.25996 9.85328 9.26465C9.82937 9.26934 9.80547 9.27543 9.78203 9.28293C9.75906 9.28996 9.73563 9.2984 9.71313 9.30777C9.69063 9.31668 9.66813 9.32746 9.64656 9.33871C9.625 9.35043 9.60391 9.36309 9.58375 9.37668C9.56312 9.39027 9.54344 9.4048 9.52422 9.42027C9.50547 9.43574 9.48672 9.45262 9.46984 9.46996C9.4525 9.4873 9.43563 9.50559 9.42016 9.52434C9.40469 9.54355 9.38969 9.56324 9.37656 9.58387C9.36297 9.60402 9.35031 9.62512 9.33859 9.64668C9.32734 9.66824 9.31656 9.69074 9.30766 9.71324C9.29828 9.73574 9.28984 9.75918 9.28281 9.78215C9.27531 9.80558 9.26922 9.82949 9.26453 9.8534C9.25984 9.87777 9.25609 9.90215 9.25375 9.92652C9.25141 9.9509 9.25 9.97574 9.25 10.0001C9.25 10.0245 9.25141 10.0493 9.25375 10.0737C9.25609 10.0981 9.25984 10.1225 9.26453 10.1468C9.26922 10.1707 9.27531 10.1946 9.28281 10.2181C9.28984 10.2411 9.29828 10.2645 9.30766 10.287C9.31656 10.3095 9.32734 10.332 9.33859 10.3536C9.35031 10.3751 9.36297 10.3962 9.37656 10.4164C9.39016 10.437 9.40469 10.4567 9.42016 10.4759C9.43563 10.4946 9.4525 10.5129 9.46984 10.5303C9.48719 10.5476 9.50547 10.5645 9.52422 10.58C9.54344 10.5954 9.56312 10.61 9.58375 10.6236C9.60391 10.6371 9.625 10.6498 9.64656 10.6615C9.66813 10.6728 9.69063 10.6831 9.71313 10.6925C9.73563 10.7018 9.75906 10.7103 9.78203 10.7173C9.80547 10.7243 9.82937 10.7304 9.85328 10.7356C9.87766 10.7403 9.90203 10.744 9.92641 10.7464C9.95078 10.7487 9.97563 10.7501 10 10.7501C10.0244 10.7501 10.0492 10.7487 10.0736 10.7464C10.098 10.744 10.1223 10.7403 10.1467 10.7356C10.1706 10.7304 10.1945 10.7243 10.218 10.7173C10.2409 10.7103 10.2644 10.7018 10.2869 10.6925C10.3094 10.6831 10.3319 10.6728 10.353 10.6615C10.375 10.6498 10.3961 10.6371 10.4163 10.6236C10.4369 10.61 10.4566 10.5954 10.4753 10.58C10.4945 10.5645 10.5128 10.5476 10.5302 10.5303C10.5475 10.5129 10.5644 10.4946 10.5798 10.4759C10.5953 10.4567 10.6098 10.437 10.6234 10.4164C10.637 10.3962 10.6497 10.3751 10.6609 10.3536C10.6727 10.332 10.683 10.3095 10.6923 10.287C10.7017 10.2645 10.7102 10.2411 10.7172 10.2181C10.7242 10.1946 10.7303 10.1707 10.7355 10.1468C10.7402 10.1225 10.7439 10.0981 10.7463 10.0737C10.7486 10.0493 10.75 10.0245 10.75 10.0001C10.75 9.97574 10.7486 9.9509 10.7463 9.92652C10.7439 9.90215 10.7402 9.87777 10.7355 9.8534Z" fill="#8064A2"/>
</svg>
