<svg width="24" height="24" viewBox="0 0 24 24" fill="none" xmlns="http://www.w3.org/2000/svg">
<circle cx="12" cy="12" r="12" fill="#EBEDF0"/>
<path d="M9.55035 11.2777C9.54823 11.7839 9.55035 12.29 9.55249 12.7962C10.401 12.8238 11.2517 12.811 12.1002 12.8238C11.726 14.7059 9.16546 15.3162 7.81077 14.0871C6.41779 13.0088 6.48372 10.644 7.93199 9.64236C8.94428 8.83422 10.384 9.03412 11.3963 9.7338C11.794 9.3659 12.1661 8.97245 12.5255 8.56414C11.6834 7.89212 10.6498 7.41361 9.55035 7.46467C7.2557 7.3881 5.14605 9.39779 5.10778 11.6925C4.96103 13.5682 6.1945 15.4077 7.93625 16.0712C9.67159 16.739 11.8961 16.2839 13.0041 14.7251C13.7356 13.7404 13.893 12.4729 13.8079 11.282C12.3873 11.2714 10.9688 11.2735 9.55035 11.2777Z" fill="#6D747A"/>
<path d="M17.8485 11.2717C17.8442 10.8485 17.8421 10.4232 17.84 10C17.4168 10 16.9957 10 16.5746 10C16.5704 10.4232 16.5661 10.8464 16.564 11.2717C16.1386 11.2739 15.7154 11.276 15.2922 11.2803C15.2922 11.7035 15.2922 12.1245 15.2922 12.5456C15.7154 12.5499 16.1408 12.5541 16.564 12.5584C16.5682 12.9816 16.5682 13.4048 16.5725 13.828C16.9957 13.828 17.4168 13.828 17.84 13.828C17.8421 13.4048 17.8442 12.9816 17.8485 12.5563C18.2738 12.552 18.697 12.5499 19.1202 12.5456C19.1202 12.1245 19.1202 11.7013 19.1202 11.2803C18.697 11.276 18.2717 11.276 17.8485 11.2717Z" fill="#6D747A"/>
</svg>
