<svg width="16" height="16" viewBox="0 0 16 16" fill="none" xmlns="http://www.w3.org/2000/svg">
<g clip-path="url(#clip0_780_522)">
<path fill-rule="evenodd" clip-rule="evenodd" d="M3.44803 8.00103C3.44803 7.48141 3.53428 6.98316 3.6884 6.51591L0.992154 4.45703C0.466654 5.52391 0.170654 6.72616 0.170654 8.00103C0.170654 9.2749 0.466404 10.4763 0.991029 11.5425L3.68578 9.47965C3.53315 9.01453 3.44803 8.51815 3.44803 8.00103Z" fill="#FBBC05"/>
<path fill-rule="evenodd" clip-rule="evenodd" d="M8.18206 3.27275C9.31094 3.27275 10.3306 3.67275 11.1317 4.32725L13.4622 2C12.0421 0.763625 10.2213 0 8.18206 0C5.01606 0 2.29506 1.8105 0.992188 4.456L3.68831 6.51487C4.30956 4.62912 6.08044 3.27275 8.18206 3.27275Z" fill="#EA4335"/>
<path fill-rule="evenodd" clip-rule="evenodd" d="M8.18206 12.7265C6.08056 12.7265 4.30969 11.3701 3.68844 9.48438L0.992188 11.5429C2.29506 14.1888 5.01606 15.9993 8.18206 15.9993C10.1361 15.9993 12.0017 15.3054 13.4018 14.0054L10.8426 12.0269C10.1204 12.4818 9.21106 12.7265 8.18206 12.7265Z" fill="#34A853"/>
<path fill-rule="evenodd" clip-rule="evenodd" d="M15.8293 8.00138C15.8293 7.52863 15.7564 7.0195 15.6471 6.54688H8.18213V9.63775H12.4791C12.2643 10.6916 11.6795 11.5018 10.8426 12.029L13.4019 14.0075C14.8726 12.6425 15.8293 10.609 15.8293 8.00138Z" fill="#4285F4"/>
</g>
<defs>
<clipPath id="clip0_780_522">
<rect width="16" height="16" fill="white"/>
</clipPath>
</defs>
</svg>
