<svg width="347" height="216" viewBox="0 0 347 216" fill="none" xmlns="http://www.w3.org/2000/svg">
<path d="M267.264 59.5106C267.264 59.5106 268.594 70.027 263.517 74.3786C257.932 79.1606 253.204 97.9257 273.555 103.09C293.906 108.254 317.332 110.27 318.637 82.3566C319.846 56.4886 314.407 48.7524 308.179 42.6456C302.324 36.9015 267.264 59.5106 267.264 59.5106Z" fill="#352C38"/>
<path d="M270.214 69.6778C270.214 69.6778 270.823 78.1828 278.109 76.9692C285.396 75.7556 275.987 66.3367 270.214 69.6778Z" fill="#F29083"/>
<path d="M312.589 62.1133C312.589 62.1133 317.96 68.7374 311.81 72.8328C305.66 76.9281 306.095 63.6218 312.589 62.1133Z" fill="#F29083"/>
<path d="M287.833 42.0344C287.833 42.0344 270.214 45.9847 271.732 61.4764C273.632 80.817 287.204 91.2415 297.247 90.3325C307.29 89.4235 312.294 72.1863 310.002 58.4206C308.484 49.3257 302.715 40.2163 287.833 42.0344Z" fill="#FFAC9D"/>
<path d="M271.732 61.4751C271.732 61.4751 271.775 61.7845 271.853 62.3647C271.891 62.6549 271.93 63.0127 272.003 63.4285L272.249 64.879C272.356 65.4157 272.491 66.0008 272.631 66.6438C272.772 67.2869 272.96 67.9735 273.182 68.6939C273.664 70.3225 274.25 71.9182 274.938 73.4711C275.749 75.303 276.72 77.06 277.839 78.722C279.083 80.5766 280.528 82.2889 282.147 83.8279C282.997 84.6416 283.903 85.3945 284.859 86.0811C285.829 86.7931 286.854 87.4269 287.925 87.9765C290.09 89.1277 292.464 89.8315 294.907 90.0459C296.12 90.1637 297.344 90.0886 298.533 89.8235C299.697 89.529 300.794 89.0172 301.768 88.3149C303.66 86.8826 305.207 85.0435 306.293 82.9334C307.352 80.9685 308.195 78.8951 308.808 76.7493C309.355 74.8194 309.764 72.8529 310.031 70.8649C310.441 67.8825 310.554 64.8667 310.37 61.8619C310.336 61.3155 310.297 60.832 310.249 60.4113C310.2 59.9907 310.171 59.6281 310.128 59.3428C310.05 58.7626 310.007 58.4531 310.007 58.4531C310.007 58.4531 310.06 58.7577 310.152 59.338C310.205 59.6232 310.253 59.981 310.307 60.4017C310.36 60.8223 310.423 61.3107 310.466 61.8522C310.573 62.9401 310.655 64.2698 310.655 65.7929C310.667 67.5025 310.57 69.2111 310.365 70.9084C310.132 72.9191 309.752 74.9101 309.228 76.8653C308.649 79.0601 307.818 81.1806 306.753 83.1848C305.636 85.3711 304.043 87.2793 302.092 88.7694C301.061 89.5231 299.896 90.0729 298.659 90.3892C297.413 90.6749 296.131 90.7614 294.858 90.6455C292.34 90.4097 289.895 89.6698 287.669 88.4696C286.575 87.9114 285.528 87.2646 284.54 86.5356C283.57 85.8307 282.651 85.0584 281.789 84.2244C280.149 82.6365 278.7 80.863 277.471 78.9396C275.44 75.7959 273.922 72.3488 272.975 68.7278C272.771 67.9977 272.636 67.2772 272.491 66.6535C272.346 66.0298 272.254 65.4109 272.162 64.8742C272.07 64.3375 272.012 63.8491 271.954 63.4236C271.896 62.9982 271.867 62.6452 271.833 62.3502L271.732 61.4751Z" fill="#D15A5A"/>
<path d="M286.242 44.9743C286.242 44.9743 291.159 66.6067 315.417 64.3148C315.417 64.3148 317.385 37.4363 294.438 38.0939C271.49 38.7515 263.299 47.2807 268.869 71.2001C268.869 71.2049 287.881 68.9034 286.242 44.9743Z" fill="#352C38"/>
<path d="M286.315 42.9492C286.315 42.9492 287.224 62.9957 306.661 66.3368L286.315 42.9492Z" fill="#352C38"/>
<path d="M279.449 70.203C279.449 70.203 279.521 70.4012 279.661 70.7348C279.85 71.1924 280.063 71.6395 280.3 72.0742C280.608 72.6791 281.01 73.2322 281.489 73.7133C281.74 73.9594 282.045 74.1447 282.379 74.2548C282.716 74.3498 283.074 74.338 283.404 74.221H283.433H283.409L283.481 74.1871L283.65 74.1049C283.742 74.0614 283.844 74.0227 283.931 73.9744C284.07 73.8784 284.202 73.7734 284.327 73.6601C284.459 73.536 284.578 73.3982 284.68 73.2491C284.734 73.1717 284.787 73.1041 284.835 73.0267L284.956 72.7849C285.239 72.1737 285.42 71.5204 285.493 70.8509C285.556 70.3602 285.588 69.8661 285.589 69.3713C285.589 69.0087 285.589 68.8008 285.589 68.8008C285.643 68.9852 285.687 69.1724 285.72 69.3617C285.817 69.8604 285.869 70.3669 285.875 70.8751C285.876 71.2199 285.85 71.5642 285.797 71.9049C285.744 72.2955 285.64 72.6775 285.488 73.0412L285.357 73.3265C285.309 73.4232 285.246 73.5102 285.188 73.6069C285.073 73.7972 284.933 73.9713 284.772 74.1243C284.6 74.2902 284.412 74.4392 284.211 74.5691C284.115 74.6223 284.023 74.661 283.931 74.7045L283.791 74.7722L283.723 74.806H283.684H283.641C283.183 74.951 282.692 74.951 282.234 74.806C281.8 74.6704 281.406 74.4296 281.088 74.1049C280.596 73.552 280.213 72.9104 279.961 72.2144C279.785 71.7421 279.644 71.2572 279.541 70.7638C279.468 70.4109 279.449 70.203 279.449 70.203Z" fill="#1C171E"/>
<path d="M295.583 67.0235L295.796 67.5553C295.932 67.889 296.149 68.358 296.434 68.8947C296.745 69.4986 297.146 70.0514 297.624 70.5338C297.878 70.7791 298.183 70.9641 298.518 71.0753C298.854 71.1703 299.21 71.1584 299.539 71.0415H299.572H299.548L299.621 71.0076L299.761 70.9448C299.853 70.9013 299.954 70.8626 300.037 70.8142C300.178 70.7194 300.312 70.6144 300.438 70.4999C300.568 70.3745 300.687 70.2369 300.791 70.089C300.839 70.0116 300.897 69.9439 300.946 69.8665L301.067 69.6248C301.349 69.0135 301.531 68.3603 301.603 67.6907C301.665 67.2 301.696 66.7058 301.695 66.2112C301.695 65.8485 301.695 65.6406 301.695 65.6406C301.749 65.825 301.792 66.0123 301.826 66.2015C301.924 66.7 301.974 67.2068 301.976 67.7149C301.979 68.0596 301.954 68.4039 301.903 68.7448C301.846 69.1336 301.741 69.5138 301.589 69.8762L301.463 70.1663C301.41 70.2582 301.352 70.35 301.294 70.4419C301.179 70.6338 301.039 70.8094 300.878 70.9641C300.706 71.1301 300.518 71.279 300.317 71.4089C300.22 71.4621 300.129 71.5008 300.037 71.5443L299.896 71.612L299.824 71.6459H299.78H299.742C299.284 71.7908 298.793 71.7908 298.335 71.6459C297.911 71.4975 297.531 71.2467 297.227 70.9158C296.734 70.3641 296.351 69.7221 296.101 69.0252C295.92 68.5544 295.779 68.0692 295.68 67.5747C295.638 67.3928 295.606 67.2088 295.583 67.0235Z" fill="#1C171E"/>
<path d="M289.119 69.9297C289.07 70.9553 288.951 71.9764 288.761 72.9855C288.669 73.469 288.573 73.9864 288.461 74.4844C288.35 74.9824 288.224 75.4804 288.094 75.9736L287.968 75.6932C289.095 76.3749 290.207 77.0712 291.285 77.8303C290.071 77.3178 288.892 76.7376 287.722 76.1428L287.562 76.0655L287.591 75.8672C287.673 75.3837 287.76 74.8567 287.867 74.3587C287.973 73.8607 288.079 73.3626 288.2 72.8646C288.44 71.8668 288.747 70.8863 289.119 69.9297Z" fill="#D15A5A"/>
<path d="M288.863 80.8278C288.863 80.8278 289.037 80.8858 289.346 80.9632C289.496 81.0067 289.68 81.0502 289.893 81.1034C290.105 81.1566 290.342 81.1953 290.599 81.2533C290.855 81.3113 291.14 81.3548 291.44 81.3838C291.74 81.4129 292.054 81.4467 292.383 81.4564C292.715 81.4732 293.047 81.4732 293.379 81.4564C293.548 81.4564 293.717 81.4129 293.862 81.3935C294.026 81.3776 294.187 81.3485 294.346 81.3065C294.678 81.2422 295.002 81.1416 295.313 81.0067C295.468 80.939 295.627 80.8858 295.772 80.8181L296.188 80.5715C296.456 80.4182 296.708 80.2366 296.937 80.03C297.049 79.9333 297.17 79.8511 297.266 79.7496L297.537 79.445C297.711 79.2763 297.873 79.0953 298.021 78.9034L298.345 78.4199L298.635 78.0234L298.451 78.5069C298.388 78.652 298.311 78.8309 298.219 79.034C298.106 79.2565 297.973 79.4685 297.822 79.6674L297.581 80.0252C297.483 80.1461 297.376 80.2593 297.261 80.3636C297.037 80.6161 296.78 80.8372 296.497 81.0212L296.053 81.3258C295.893 81.4129 295.724 81.4806 295.569 81.5579C295.228 81.7107 294.871 81.8274 294.505 81.906C294.323 81.9515 294.137 81.9806 293.949 81.9931C293.766 81.9931 293.582 82.0463 293.398 82.0511C293.041 82.0588 292.685 82.0443 292.33 82.0076C292.003 81.9792 291.68 81.9242 291.363 81.8432C291.053 81.7852 290.773 81.6788 290.512 81.6063C289.933 81.4144 289.379 81.153 288.863 80.8278Z" fill="#D15A5A"/>
<path d="M292.102 65.5811C292.082 65.3624 292.082 65.1423 292.102 64.9235C292.151 64.3402 292.278 63.7662 292.479 63.2167C292.776 62.4035 293.24 61.662 293.843 61.0409C294.207 60.6749 294.622 60.3638 295.076 60.1174C295.56 59.8647 296.08 59.6885 296.618 59.5952C297.146 59.5203 297.681 59.5203 298.209 59.5952C298.461 59.6241 298.71 59.6743 298.954 59.7451C299.19 59.8034 299.421 59.8793 299.645 59.9723C299.861 60.0495 300.071 60.1416 300.274 60.2479C300.472 60.3543 300.67 60.4462 300.844 60.5622L301.328 60.8959L301.768 61.2391C302.021 61.4431 302.261 61.6644 302.483 61.9016C302.657 62.0753 302.819 62.2611 302.967 62.4576C303.233 62.7816 303.363 62.9798 303.363 62.9798C303.363 62.9798 303.126 62.9169 302.744 62.7719L302.063 62.5253C301.802 62.4334 301.516 62.3174 301.202 62.2158L300.719 62.0466L300.201 61.8919C300.027 61.8339 299.848 61.7904 299.664 61.7468C299.483 61.6937 299.299 61.6501 299.113 61.6163C298.742 61.5379 298.365 61.4878 297.987 61.4664C297.62 61.4434 297.252 61.4597 296.889 61.5148C296.538 61.5777 296.194 61.6782 295.864 61.8145C295.537 61.9597 295.224 62.1362 294.931 62.3416C294.368 62.7618 293.858 63.2489 293.413 63.7921C292.987 64.2756 292.663 64.7591 292.446 65.0686L292.102 65.5811Z" fill="#1C171E"/>
<path d="M286.885 66.453L286.402 66.1629C286.102 65.984 285.681 65.7374 285.183 65.4714C284.653 65.1755 284.1 64.9217 283.53 64.7123C283.239 64.6081 282.939 64.5288 282.635 64.4754C282.347 64.4221 282.053 64.4042 281.76 64.4222C281.471 64.4376 281.185 64.4896 280.909 64.5769C280.769 64.6205 280.633 64.6785 280.493 64.7268C280.353 64.7752 280.218 64.8574 280.087 64.9299C279.82 65.078 279.56 65.2394 279.309 65.4134C279.072 65.602 278.825 65.7712 278.617 65.955C278.409 66.1387 278.196 66.2983 278.018 66.4385L277.534 66.8446C277.395 66.9727 277.25 67.0937 277.099 67.2073C277.125 67.0186 277.16 66.8314 277.205 66.6464C277.249 66.4333 277.312 66.2245 277.394 66.0227C277.481 65.7528 277.591 65.4908 277.723 65.2394C277.879 64.9335 278.06 64.6408 278.264 64.3642C278.51 64.05 278.785 63.7601 279.086 63.4987C279.432 63.2093 279.818 62.9715 280.232 62.7928C281.126 62.4133 282.123 62.3535 283.056 62.6236C283.482 62.7422 283.89 62.9179 284.269 63.1458C284.9 63.523 285.454 64.015 285.904 64.5963C286.215 64.9913 286.477 65.4233 286.682 65.8824C286.766 66.0664 286.834 66.2573 286.885 66.453Z" fill="#1C171E"/>
<path d="M256.042 111.695C256.042 111.695 264.542 155.028 273.047 154.622C281.552 154.215 275.464 114.127 275.464 114.127L256.042 111.695Z" fill="#F29083"/>
<path d="M256.042 111.695C256.042 111.695 264.542 155.028 273.047 154.622C281.552 154.215 275.464 114.127 275.464 114.127L256.042 111.695Z" stroke="#D15A5A" stroke-width="1.24" stroke-miterlimit="10"/>
<path d="M338.05 100.406C338.05 100.406 340.337 144.508 331.987 146.18C323.637 147.853 319.788 107.499 319.788 107.499L338.05 100.406Z" fill="#F29083"/>
<path d="M338.05 100.406C338.05 100.406 340.337 144.508 331.987 146.18C323.637 147.853 319.788 107.499 319.788 107.499L338.05 100.406Z" stroke="#D15A5A" stroke-width="1.24" stroke-miterlimit="10"/>
<path d="M279.531 137.617C279.531 137.617 250.37 165.559 252.396 215.777H336.634C336.634 215.777 349.205 159.888 325.697 129.513C302.188 99.1391 279.531 137.617 279.531 137.617Z" fill="#FC6A5A"/>
<path d="M296.778 152.766C306.327 155.493 316.176 157.054 326.011 158.365C329.952 158.892 334.004 159.375 338.099 159.728C336.131 148.839 332.369 138.149 325.692 129.513C302.203 99.1391 279.526 137.617 279.526 137.617C277.318 139.859 275.28 142.262 273.429 144.807C281.17 147.602 288.868 150.503 296.778 152.766Z" fill="#EA4134"/>
<path d="M279.531 137.617C279.531 137.617 250.37 165.559 252.396 215.777H336.634C336.634 215.777 349.205 159.888 325.697 129.513C302.188 99.1391 279.531 137.617 279.531 137.617Z" stroke="#A50000" stroke-width="0.92" stroke-miterlimit="10"/>
<path d="M254.823 90.6375L254.422 77.2732C254.422 77.2732 289.235 78.8929 294.109 93.0647C294.109 93.0647 310.307 74.8411 328.922 71.6016L335.807 106.835L254.823 90.6375Z" fill="#FDDEC0"/>
<path d="M249.964 79.6992L288.437 87.7981L292.083 142.469L251.584 132.344L249.964 79.6992Z" fill="#0096C8"/>
<path d="M249.964 79.6992L288.437 87.7981L292.083 142.469L251.584 132.344L249.964 79.6992Z" stroke="#1B4268" stroke-width="0.5" stroke-miterlimit="10"/>
<path d="M337.088 74.7305L300.051 87.9159L303.774 142.582L342.547 127.119L337.088 74.7305Z" fill="#0096C8"/>
<path d="M337.088 74.7305L300.051 87.9159L303.774 142.582L342.547 127.119L337.088 74.7305Z" stroke="#1B4268" stroke-width="0.5" stroke-miterlimit="10"/>
<path d="M288.437 87.8007L301.4 87.3945L304.64 145.31C304.64 145.31 296.942 148.143 290.057 144.904L288.437 87.8007Z" fill="#0096C8"/>
<path d="M288.437 87.7995L301.395 87.2773H301.507V87.3885L302.406 101.86L303.286 116.337L304.954 145.289V145.536L304.727 145.618C304.126 145.825 303.514 145.997 302.894 146.135C302.28 146.28 301.661 146.397 301.042 146.498L300.104 146.619C299.79 146.662 299.476 146.677 299.137 146.706C298.799 146.735 298.509 146.745 298.17 146.754C297.832 146.764 297.537 146.779 297.203 146.754C296.87 146.73 296.575 146.754 296.236 146.754L295.269 146.677C294.955 146.677 294.646 146.59 294.331 146.551C294.017 146.513 293.703 146.459 293.398 146.382L292.47 146.169L291.566 145.889L291.111 145.744L290.671 145.56L289.936 145.183L289.767 145.115V144.917L289.385 130.639L289.046 116.361L288.727 102.083L288.437 87.7995ZM288.437 87.7995L288.969 102.073L289.453 116.346L289.936 130.619L290.362 144.893L290.188 144.627L291.034 144.975L291.454 145.149L291.894 145.284L292.765 145.555L293.659 145.758C293.954 145.831 294.259 145.874 294.559 145.918C294.858 145.961 295.163 146.019 295.468 146.034L296.381 146.106C296.691 146.106 296.995 146.106 297.3 146.106C297.605 146.106 297.914 146.106 298.219 146.106C298.523 146.106 298.833 146.106 299.137 146.058C299.442 146.01 299.751 146.01 300.051 145.971L300.965 145.845C301.569 145.749 302.174 145.633 302.769 145.488C303.362 145.358 303.948 145.196 304.524 145.004L304.311 145.333L302.74 116.37L302.024 101.884L301.308 87.4031L301.424 87.5094L288.437 87.7995Z" fill="#1B4268"/>
<path d="M245.874 104.597C245.874 104.597 244.713 96.8607 247.131 95.7873C249.548 94.7139 266.805 101.285 250.97 99.4572C250.97 99.4572 277.868 105.424 251.777 103.03C251.777 103.03 273.328 106.947 252.396 105.622C252.396 105.622 269.319 109.683 251.405 107.788L250.709 113.3C250.709 113.3 248.586 114.683 245.874 104.597Z" fill="#FFAC9D"/>
<path d="M245.874 104.596C245.691 103.464 245.576 102.323 245.53 101.177C245.465 100.026 245.543 98.8716 245.762 97.7396C245.867 97.1526 246.107 96.598 246.464 96.1199C246.658 95.8718 246.92 95.6854 247.218 95.5832C247.515 95.5101 247.821 95.4808 248.127 95.4961C249.284 95.5716 250.43 95.771 251.545 96.0909C252.658 96.3881 253.754 96.7464 254.828 97.1643C255.371 97.3723 255.902 97.6096 256.419 97.875C256.684 98.0134 256.94 98.1668 257.188 98.3344C257.319 98.4227 257.442 98.5231 257.555 98.6341C257.707 98.7706 257.812 98.9517 257.855 99.1515C257.864 99.2224 257.859 99.2945 257.84 99.3634C257.821 99.4323 257.788 99.4967 257.744 99.5528C257.676 99.6411 257.591 99.7136 257.492 99.7656C257.34 99.8435 257.177 99.9005 257.009 99.9348C256.714 99.9958 256.415 100.036 256.114 100.056C255.525 100.09 254.944 100.085 254.369 100.056C253.213 100.017 252.067 99.9009 250.926 99.7752L251.038 99.1322C253.025 99.577 255.002 100.046 256.975 100.554C257.942 100.81 258.948 101.076 259.929 101.371C260.413 101.516 260.896 101.671 261.38 101.854C261.876 102.021 262.361 102.222 262.83 102.454C262.965 102.523 263.093 102.604 263.212 102.696L263.314 102.788C263.355 102.833 263.392 102.881 263.425 102.933C263.469 103.015 263.496 103.105 263.503 103.199C263.503 103.31 263.468 103.419 263.401 103.508C263.262 103.667 263.073 103.775 262.864 103.813C262.714 103.851 262.579 103.871 262.444 103.895C261.923 103.953 261.4 103.98 260.877 103.977C259.847 103.977 258.827 103.938 257.807 103.88C255.771 103.755 253.745 103.58 251.719 103.397L251.811 102.7C253.407 103 254.993 103.319 256.574 103.668C257.367 103.842 258.16 104.025 258.948 104.228C259.339 104.33 259.731 104.441 260.128 104.557C260.532 104.674 260.928 104.819 261.312 104.992C261.431 105.047 261.541 105.117 261.641 105.2C261.745 105.284 261.813 105.406 261.83 105.539C261.829 105.621 261.808 105.703 261.767 105.774C261.726 105.846 261.668 105.907 261.597 105.95C261.373 106.057 261.13 106.121 260.882 106.138C260.456 106.182 260.05 106.191 259.639 106.201C258.822 106.201 258.01 106.201 257.222 106.153C255.597 106.085 253.982 105.979 252.387 105.863L252.454 105.379C253.755 105.713 255.041 106.061 256.322 106.448C256.961 106.641 257.599 106.844 258.232 107.081C258.546 107.197 258.861 107.323 259.17 107.473C259.344 107.545 259.506 107.641 259.654 107.758C259.699 107.797 259.737 107.845 259.765 107.898C259.791 107.938 259.805 107.984 259.805 108.031C259.805 108.078 259.791 108.125 259.765 108.164C259.686 108.249 259.58 108.305 259.465 108.324C259.126 108.386 258.78 108.414 258.435 108.406C258.097 108.406 257.763 108.406 257.43 108.377C256.762 108.338 256.095 108.285 255.428 108.227C254.098 108.106 252.773 107.942 251.449 107.777C252.78 107.893 254.111 107.992 255.442 108.072C256.105 108.111 256.772 108.145 257.439 108.159C257.768 108.159 258.102 108.159 258.406 108.159C258.731 108.161 259.056 108.127 259.373 108.058C259.424 108.05 259.472 108.03 259.514 108C259.514 108 259.514 108.043 259.514 108.034C259.514 108.024 259.514 108.005 259.47 107.985C259.346 107.894 259.211 107.818 259.069 107.758C258.769 107.625 258.462 107.507 258.15 107.405C257.521 107.197 256.883 107.013 256.245 106.83C254.964 106.472 253.668 106.148 252.377 105.863L252.449 105.379C254.059 105.466 255.674 105.539 257.285 105.577C258.092 105.577 258.895 105.577 259.702 105.577C260.103 105.577 260.5 105.544 260.882 105.495C261.037 105.482 261.19 105.448 261.336 105.394C261.313 105.416 261.294 105.443 261.282 105.473C261.271 105.503 261.266 105.535 261.269 105.568C261.269 105.684 261.317 105.674 261.298 105.664C261.237 105.623 261.174 105.586 261.109 105.553C260.754 105.4 260.389 105.27 260.016 105.166C259.634 105.055 259.248 104.949 258.861 104.852C258.082 104.654 257.299 104.48 256.511 104.306C254.935 103.967 253.349 103.658 251.763 103.373L251.859 102.676C253.881 102.85 255.902 103.015 257.928 103.126C258.938 103.174 259.949 103.213 260.95 103.218C261.434 103.219 261.918 103.197 262.4 103.15C262.511 103.135 262.621 103.114 262.729 103.087C262.821 103.087 262.932 102.995 262.859 103.063C262.859 103.063 262.806 103.145 262.826 103.199C262.815 103.227 262.815 103.257 262.826 103.286L262.787 103.252C262.703 103.19 262.616 103.134 262.526 103.082C262.087 102.867 261.635 102.68 261.172 102.522C260.688 102.357 260.205 102.202 259.721 102.038C258.754 101.743 257.787 101.472 256.82 101.211C254.861 100.696 252.891 100.212 250.912 99.7607L251.023 99.1177C252.154 99.253 253.286 99.3642 254.408 99.4271C254.968 99.4641 255.529 99.4722 256.09 99.4513C256.361 99.4425 256.631 99.4134 256.898 99.3642C257.011 99.3412 257.121 99.3055 257.226 99.2579C257.255 99.2449 257.281 99.2269 257.304 99.2047C257.275 99.1277 257.228 99.0582 257.168 99.0016C257.076 98.9122 256.978 98.8297 256.874 98.755C256.649 98.5965 256.415 98.4527 256.172 98.3247C255.677 98.0564 255.167 97.8159 254.645 97.6043C253.596 97.1716 252.524 96.7987 251.434 96.4873C250.888 96.3326 250.336 96.1924 249.78 96.0764C249.233 95.954 248.677 95.8716 248.117 95.8298C247.852 95.8091 247.585 95.8237 247.324 95.8733C247.074 95.9491 246.852 96.0971 246.686 96.2988C246.346 96.7349 246.11 97.2424 245.994 97.7832C245.749 98.894 245.638 100.03 245.666 101.168C245.672 102.313 245.741 103.458 245.874 104.596Z" fill="#D15A5A"/>
<path d="M345.54 95.5439C345.54 95.5439 346.991 87.8657 344.626 86.6908C342.262 85.5158 324.749 91.4195 340.647 90.2107C340.647 90.2107 313.536 95.1281 339.68 93.7501C339.68 93.7501 317.99 96.8252 338.964 96.3127C338.964 96.3127 321.896 99.6973 339.869 98.5175L340.352 104.054C340.352 104.054 342.426 105.533 345.54 95.5439Z" fill="#FFAC9D"/>
<path d="M345.54 95.5462C345.716 94.417 345.829 93.279 345.879 92.1374C345.951 91.0053 345.884 89.8687 345.68 88.7528C345.588 88.208 345.371 87.6918 345.047 87.2442C344.888 87.038 344.673 86.8819 344.428 86.7946C344.17 86.7332 343.905 86.7072 343.64 86.7172C343.077 86.7402 342.517 86.8016 341.962 86.901C341.406 86.9928 340.85 87.1137 340.299 87.2491C339.195 87.5185 338.107 87.8494 337.04 88.2403C336.513 88.4385 335.986 88.6513 335.488 88.8979C335.241 89.0177 335.002 89.1534 334.772 89.304C334.667 89.3739 334.567 89.4515 334.473 89.5361C334.406 89.588 334.355 89.6563 334.323 89.7343L334.4 89.7924C334.504 89.8464 334.614 89.8854 334.729 89.9084C334.991 89.9697 335.258 90.0101 335.527 90.0293C336.086 90.0728 336.648 90.0874 337.209 90.0728C338.341 90.0728 339.482 89.9809 340.618 89.8939L340.705 90.5466C338.713 90.9189 336.721 91.3251 334.743 91.7651C333.776 91.9875 332.771 92.2196 331.794 92.4807C331.31 92.6064 330.827 92.7418 330.343 92.8917C329.874 93.0229 329.414 93.1844 328.965 93.3752C328.874 93.4211 328.785 93.4728 328.699 93.5299L328.661 93.5638C328.67 93.5516 328.678 93.5376 328.682 93.5227C328.686 93.5077 328.687 93.4921 328.685 93.4767C328.685 93.4235 328.656 93.351 328.656 93.3413C328.656 93.3317 328.695 93.3413 328.786 93.3704C328.894 93.4034 329.004 93.4277 329.115 93.4429C329.596 93.5134 330.08 93.5569 330.566 93.5734C331.568 93.6024 332.577 93.6024 333.593 93.5734C335.614 93.5444 337.644 93.4622 339.67 93.3655L339.738 94.0618C338.142 94.289 336.547 94.5453 334.961 94.8112C334.168 94.9514 333.375 95.1013 332.592 95.2657C332.195 95.3479 331.808 95.435 331.422 95.5365C331.045 95.6241 330.675 95.7388 330.314 95.8798C330.247 95.9063 330.183 95.9421 330.126 95.9862C330.126 95.9862 330.126 95.9862 330.155 95.8895C330.162 95.8567 330.16 95.8226 330.149 95.791C330.138 95.7594 330.118 95.7315 330.092 95.7106C330.238 95.7686 330.391 95.8091 330.546 95.8314C330.924 95.8943 331.32 95.9281 331.717 95.9572C332.514 96.0103 333.322 96.0345 334.134 96.049C335.744 96.078 337.359 96.049 338.969 96.049L339.022 96.5325C337.717 96.784 336.411 97.0596 335.116 97.369C334.473 97.5237 333.825 97.6833 333.182 97.8525C332.865 97.9413 332.554 98.0462 332.248 98.1668C332.104 98.2204 331.966 98.2901 331.837 98.3747L331.789 98.4231C331.789 98.4231 331.789 98.3941 331.789 98.3892C331.829 98.4203 331.875 98.4433 331.925 98.4569C332.242 98.533 332.566 98.5784 332.892 98.5923C333.22 98.6165 333.554 98.6262 333.888 98.6358C334.555 98.6358 335.217 98.6358 335.884 98.6358C337.219 98.6068 338.553 98.5601 339.888 98.4956C338.558 98.6116 337.229 98.7228 335.889 98.7905C335.222 98.8244 334.555 98.8534 333.888 98.8631C333.554 98.8631 333.215 98.8631 332.882 98.8631C332.537 98.8619 332.193 98.823 331.857 98.747C331.742 98.7251 331.639 98.6655 331.562 98.5778C331.536 98.5374 331.522 98.4904 331.522 98.4424C331.522 98.3944 331.536 98.3475 331.562 98.307C331.593 98.256 331.632 98.2103 331.678 98.1716C331.829 98.065 331.991 97.9758 332.161 97.9057C332.481 97.7655 332.795 97.6543 333.128 97.5479C333.767 97.34 334.41 97.1563 335.062 96.9919C336.363 96.6534 337.664 96.3536 338.974 96.078L339.027 96.5615C337.408 96.6147 335.793 96.6582 334.168 96.6631C333.356 96.6631 332.548 96.6631 331.75 96.6147C331.339 96.5906 330.933 96.5664 330.508 96.5035C330.261 96.4759 330.021 96.4021 329.802 96.2859C329.733 96.2408 329.677 96.179 329.639 96.1062C329.601 96.0335 329.582 95.9522 329.584 95.8701C329.593 95.8034 329.616 95.7393 329.651 95.6819C329.686 95.6244 329.732 95.5749 329.787 95.5365C329.889 95.4575 330.002 95.3924 330.121 95.3431C330.512 95.1843 330.915 95.055 331.325 94.9563C331.721 94.8499 332.123 94.758 332.519 94.671C333.312 94.4969 334.11 94.3471 334.908 94.1875C336.503 93.8974 338.104 93.6347 339.709 93.3994L339.777 94.1005C337.741 94.2117 335.71 94.3084 333.67 94.3519C332.65 94.3519 331.63 94.3809 330.6 94.3519C330.077 94.3317 329.556 94.2833 329.038 94.2068C328.903 94.1778 328.767 94.1536 328.622 94.1101C328.415 94.0615 328.23 93.9459 328.095 93.7813C328.032 93.689 328 93.5789 328.003 93.4671C328.015 93.3746 328.047 93.2856 328.095 93.206C328.13 93.1561 328.169 93.1093 328.211 93.0657L328.317 92.9787C328.439 92.8908 328.568 92.8148 328.704 92.7515C329.185 92.5344 329.681 92.3534 330.189 92.2099C330.672 92.06 331.156 91.9246 331.673 91.7989C332.64 91.5427 333.655 91.3154 334.651 91.0978C336.644 90.6627 338.64 90.271 340.647 89.9084L340.729 90.5515C339.583 90.6337 338.433 90.7062 337.277 90.7014C336.702 90.7014 336.121 90.7014 335.536 90.624C335.235 90.5952 334.936 90.5434 334.642 90.4693C334.472 90.4306 334.309 90.367 334.158 90.2807C334.06 90.2262 333.976 90.1502 333.912 90.0583C333.83 89.9397 333.797 89.7943 333.82 89.6521C333.874 89.4621 333.986 89.2934 334.139 89.1686C334.258 89.0632 334.386 88.9678 334.521 88.8834C334.773 88.7247 335.034 88.5826 335.304 88.4579C335.83 88.2125 336.369 87.9962 336.919 87.81C338.009 87.4252 339.12 87.1023 340.246 86.8429C341.371 86.5599 342.524 86.3978 343.684 86.3594C343.989 86.358 344.294 86.4003 344.588 86.4851C344.881 86.6004 345.136 86.7966 345.323 87.0508C345.659 87.5424 345.878 88.105 345.961 88.6948C346.133 89.8357 346.166 90.9934 346.058 92.1422C345.954 93.2862 345.781 94.4229 345.54 95.5462Z" fill="#D15A5A"/>
<path d="M150.67 148.645L144.331 215.776H206.704L209.871 150.245L150.67 148.645Z" fill="#FDDEC0"/>
<path d="M208.972 168.846L209.871 150.245L150.67 148.645L148.832 168.096L208.972 168.846Z" fill="#EFC8A8"/>
<path d="M176.726 196.943L175.3 215.776H206.704L207.724 194.617L176.726 196.943Z" fill="#EFC8A8"/>
<path d="M202.73 194.859L189.738 196.044L183.244 196.634C181.078 196.832 178.892 197.035 176.746 197.171L176.953 196.963L175.503 215.791L175.126 215.762L176.513 196.905V196.711H176.707C178.873 196.503 181.058 196.353 183.21 196.228L189.718 195.778L202.73 194.859Z" fill="#C98D61"/>
<path d="M209.112 163.383L206.704 215.776" stroke="#C98D61" stroke-width="0.9" stroke-miterlimit="10"/>
<path d="M149.06 161.93L144.331 215.774" stroke="#C98D61" stroke-width="0.9" stroke-miterlimit="10"/>
<path d="M153.513 68.6698L165.891 67.4804C165.891 67.4804 161.819 9.45875 164.87 7.64557C167.921 5.8324 189.269 7.04601 192.619 16.6969C194.07 20.9519 202.672 58.7626 184.4 62.5824L184.583 68.4812C184.583 68.4812 191.517 68.2395 197.261 68.2637C203.005 68.2878 194.843 83.035 175.551 81.4829C156.259 79.9308 153.513 68.6698 153.513 68.6698Z" fill="#FFAC9D"/>
<path d="M197.256 68.264C191.512 68.264 184.578 68.4816 184.578 68.4816L184.395 62.5827C172.268 62.4328 166.988 52.1969 164.532 43.2422C165.04 55.6105 165.891 67.4952 165.891 67.4952L153.513 68.6847C153.513 68.6847 156.259 79.9409 175.546 81.4978C194.834 83.0547 203 68.3027 197.256 68.264Z" fill="#F29083"/>
<path d="M164.929 35.3714C164.929 35.3714 161.399 30.4202 158.947 35.5358C155.8 42.1164 162.332 48.9629 166.756 43.944C171.18 38.9252 164.929 35.3714 164.929 35.3714Z" fill="#FFAC9D"/>
<path d="M164.706 47.5859L165.006 52.5613C165.103 54.2197 165.199 55.8782 165.325 57.5318L165.673 62.5023C165.804 64.1608 165.92 65.8144 166.065 67.468V67.6324H165.9L153.527 68.8702L153.721 68.5994C154.173 69.9718 154.862 71.2547 155.756 72.3902C156.642 73.5465 157.668 74.5877 158.812 75.4895C161.131 77.2753 163.751 78.6312 166.548 79.493C167.944 79.9301 169.363 80.2885 170.798 80.5664C172.249 80.8323 173.699 81.0499 175.15 81.166C178.063 81.4599 181.003 81.3509 183.887 80.842C186.777 80.3404 189.558 79.3425 192.107 77.8926C193.373 77.169 194.555 76.3079 195.632 75.3251C196.717 74.36 197.628 73.215 198.325 71.9405C198.668 71.3192 198.866 70.6282 198.905 69.9194C198.922 69.577 198.829 69.2381 198.639 68.9524C198.434 68.6958 198.141 68.5237 197.817 68.4689C197.466 68.4088 197.109 68.3862 196.753 68.4012H195.651H193.441C190.492 68.4012 187.546 68.4415 184.603 68.5221H184.53V68.4641L184.197 62.57H184.617V68.4689L184.559 68.4157C187.505 68.2964 190.452 68.2062 193.398 68.1449L195.607 68.1159H196.715C197.094 68.0901 197.476 68.1096 197.851 68.1739C198.261 68.2438 198.631 68.4625 198.891 68.788C199.122 69.1228 199.242 69.5221 199.234 69.9291C199.207 70.6975 199.002 71.4491 198.634 72.1242C197.934 73.4505 197.006 74.6436 195.893 75.6491C194.802 76.6647 193.602 77.5566 192.315 78.3084C189.734 79.805 186.911 80.8376 183.974 81.3594C181.047 81.8849 178.061 82.0036 175.102 81.7123C173.622 81.5834 172.154 81.3835 170.697 81.1128C169.238 80.8365 167.797 80.4699 166.384 80.0152C163.537 79.1214 160.873 77.7263 158.517 75.8957C157.348 74.9652 156.299 73.8933 155.394 72.7045C154.468 71.5139 153.758 70.1704 153.295 68.7348L153.223 68.4882H153.489L165.871 67.3375L165.721 67.5164C165.596 65.8579 165.499 64.1995 165.388 62.541C165.277 60.8826 165.204 59.2241 165.117 57.5657C165.03 55.9072 164.962 54.2439 164.895 52.5855L164.706 47.5859Z" fill="#D15A5A"/>
<path d="M158.773 10.2487C158.773 10.2487 155.771 -2.65147 148.571 0.945868C141.372 4.54321 150.684 12.9467 150.684 12.9467C150.684 12.9467 149.185 2.4496 144.983 10.2487C140.782 18.0477 156.37 20.1462 158.773 10.2487Z" fill="#76413B"/>
<path d="M148.571 0.945868C145.187 2.64784 145.453 5.41837 146.695 7.86978C145.984 8.55472 145.4 9.36009 144.969 10.2487C140.772 18.0477 156.37 20.1462 158.773 10.2487C158.773 10.2487 155.771 -2.65147 148.571 0.945868Z" stroke="#54201C" stroke-width="1.3" stroke-linecap="round" stroke-linejoin="round"/>
<path d="M195.869 38.4465C195.869 38.4465 196.27 47.4447 193.872 48.8469C191.473 50.2491 196.869 41.0478 189.67 41.0478C182.47 41.0478 175.469 38.9445 174.473 42.745C173.477 46.5454 174.957 51.6464 170.373 46.6469C167.714 43.7458 167.191 33.6501 167.225 25.6334C169.159 24.502 171.524 21.8668 170.271 15.8471C170.271 15.8471 181.271 7.44847 192.619 16.6981C192.619 16.6981 191.469 2.19268 171.872 2.64718C154.465 3.0485 149.669 22.8484 159.47 34.2448C159.47 34.2448 162.279 32.2092 164.261 34.4043C163.942 42.7208 164.982 61.0943 180.169 62.9316C202.841 65.707 197.672 49.2482 195.869 38.4465Z" fill="#965450"/>
<path d="M192.619 16.6991C192.619 16.6991 192.59 16.4235 192.484 15.9206C192.327 15.1933 192.115 14.4789 191.851 13.7835C191.447 12.7047 190.923 11.6748 190.289 10.7132C189.473 9.46703 188.481 8.34503 187.344 7.38178C186.695 6.83554 186.007 6.33779 185.285 5.89256C184.509 5.43018 183.701 5.02458 182.867 4.67894C181.043 3.95998 179.136 3.47266 177.191 3.2284C175.107 2.95069 173.002 2.87943 170.905 3.01565C168.747 3.13415 166.626 3.63 164.639 4.4807C162.668 5.3486 160.891 6.60122 159.412 8.16507C157.992 9.7005 156.866 11.4836 156.09 13.4257C155.37 15.2476 154.918 17.1647 154.751 19.1167C154.601 20.8711 154.677 22.6375 154.978 24.3724C155.241 25.8416 155.647 27.2813 156.192 28.6709C156.322 28.9755 156.448 29.2753 156.564 29.5654C156.68 29.8555 156.835 30.1118 156.965 30.3729C157.202 30.8999 157.502 31.3399 157.734 31.7605C158.117 32.3983 158.537 33.0134 158.991 33.6027L159.475 34.2265L158.967 33.6221C158.486 33.0501 158.04 32.4494 157.632 31.8234C157.386 31.4124 157.076 30.9724 156.815 30.4502L156.385 29.6476C156.259 29.3623 156.124 29.0674 155.984 28.7579C154.661 25.7144 154.082 22.3994 154.296 19.0876C154.424 17.0797 154.859 15.1033 155.587 13.2275C156.372 11.2177 157.519 9.36912 158.972 7.77342C160.497 6.13556 162.335 4.82025 164.377 3.90532C166.428 3.02906 168.616 2.51849 170.842 2.39675C172.979 2.27038 175.123 2.3546 177.244 2.64818C179.233 2.91834 181.176 3.45502 183.022 4.24378C183.875 4.61076 184.7 5.04234 185.488 5.53476C186.218 6.00317 186.913 6.52519 187.567 7.09651C188.705 8.09943 189.683 9.27011 190.468 10.5681C191.076 11.5621 191.571 12.6212 191.943 13.7255C192.187 14.4312 192.373 15.1556 192.499 15.8916C192.553 16.1584 192.593 16.428 192.619 16.6991Z" fill="#54201C"/>
<path d="M164.261 34.4062C164.261 34.4062 164.261 34.6915 164.261 35.2379C164.261 35.7843 164.261 36.5772 164.261 37.5878C164.261 38.0955 164.295 38.6515 164.315 39.2607C164.334 39.8699 164.382 40.5324 164.455 41.2335C164.582 42.8035 164.802 44.3647 165.112 45.909C165.458 47.7358 165.97 49.5273 166.64 51.2615C167.01 52.2051 167.436 53.1254 167.917 54.0176C168.427 54.9382 169.005 55.8191 169.648 56.6527C170.993 58.3969 172.684 59.8453 174.613 60.9076C176.624 61.9723 178.837 62.6016 181.107 62.7546C183.374 63.0036 185.662 63.0036 187.929 62.7546C190.149 62.4839 192.32 61.8166 193.973 60.5015C195.555 59.2045 196.64 57.4007 197.044 55.3956C197.436 53.5879 197.573 51.7341 197.45 49.8884C197.368 48.1622 197.15 46.586 196.966 45.1934C196.782 43.8009 196.565 42.5825 196.4 41.5816C196.067 39.5847 195.917 38.4388 195.917 38.4388C195.917 38.4388 196.13 39.575 196.546 41.5623C196.749 42.5293 196.995 43.7574 197.251 45.1499C197.538 46.7096 197.743 48.2832 197.866 49.8642C198.032 51.7512 197.932 53.6522 197.571 55.5116C197.357 56.5381 196.989 57.5262 196.478 58.4417C195.938 59.4052 195.217 60.2555 194.355 60.9463C192.595 62.363 190.313 63.0738 188.031 63.3639C185.714 63.6177 183.376 63.6031 181.063 63.3204C178.724 63.1515 176.445 62.4926 174.376 61.3863C172.382 60.2884 170.646 58.7767 169.285 56.9525C168.639 56.0889 168.061 55.1773 167.554 54.2255C167.077 53.3128 166.657 52.3714 166.297 51.4066C165.648 49.6417 165.162 47.8209 164.846 45.9671C164.574 44.4044 164.393 42.827 164.305 41.2431C164.252 40.542 164.247 39.8796 164.223 39.2656C164.198 38.6515 164.223 38.0955 164.223 37.5878C164.223 36.5724 164.257 35.7794 164.29 35.2379C164.324 34.6964 164.261 34.4062 164.261 34.4062Z" fill="#54201C"/>
<path d="M185.57 27.5508C185.734 28.0585 185.874 28.5758 186.024 29.0884C186.174 29.6009 186.305 30.1182 186.445 30.6308C186.709 31.6655 186.962 32.7018 187.204 33.7398C187.688 35.814 188.108 37.9028 188.481 40.0254L188.519 40.2575L188.297 40.2817C187.33 40.3736 186.363 40.4654 185.396 40.5428C184.429 40.6202 183.462 40.7072 182.495 40.77C183.462 40.596 184.429 40.4509 185.396 40.2865C186.363 40.1221 187.33 39.9916 188.297 39.8514L188.118 40.1076C187.586 38.043 187.117 35.9639 186.692 33.8751C186.485 32.8307 186.289 31.7831 186.102 30.7323C186.015 30.2053 185.923 29.6782 185.845 29.1512C185.768 28.6242 185.633 28.0826 185.57 27.5508Z" fill="#D15A5A"/>
<path d="M164.116 43.965C163.806 43.8823 163.503 43.7722 163.212 43.6363C162.904 43.5052 162.62 43.3238 162.371 43.0996C162.226 42.9664 162.132 42.7869 162.105 42.5919C162.098 42.4819 162.12 42.3721 162.168 42.2728C162.21 42.1822 162.269 42.1002 162.342 42.031C162.6 41.7949 162.905 41.6154 163.236 41.504L163.086 41.6732C163.241 40.6964 163.308 39.7076 163.285 38.7189C163.268 38.2382 163.203 37.7604 163.091 37.2926C162.999 36.8535 162.777 36.4524 162.453 36.1418C162.375 36.0729 162.289 36.0144 162.197 35.9677L162.129 35.9339C162.09 35.9339 162.129 35.9339 162.129 35.9339H162.085C162.028 35.9131 161.97 35.8953 161.911 35.8807C161.717 35.8252 161.51 35.8354 161.322 35.9097C160.92 36.1252 160.597 36.4643 160.403 36.8767C160.167 37.3108 159.971 37.7656 159.818 38.2354C159.658 38.7117 159.522 39.1958 159.412 39.686C159.432 39.1774 159.493 38.6712 159.595 38.1726C159.688 37.6633 159.841 37.1667 160.05 36.693C160.16 36.4476 160.298 36.2156 160.461 36.0016C160.636 35.7709 160.861 35.5826 161.118 35.4504C161.404 35.3183 161.725 35.2827 162.032 35.3488C162.096 35.363 162.159 35.3808 162.221 35.402H162.264L162.332 35.431L162.438 35.4745C162.572 35.5379 162.699 35.6158 162.816 35.7066C163.239 36.0926 163.534 36.5987 163.662 37.1572C163.791 37.6695 163.859 38.1954 163.865 38.7238C163.878 39.7537 163.766 40.7814 163.531 41.7844L163.497 41.9149L163.381 41.9536C163.101 42.0312 162.835 42.1572 162.598 42.3259C162.553 42.3569 162.515 42.3971 162.487 42.4437C162.458 42.4904 162.44 42.5425 162.434 42.5967C162.446 42.7204 162.496 42.8372 162.579 42.9303C162.778 43.1641 163.015 43.3634 163.28 43.5202C163.55 43.6836 163.83 43.8321 164.116 43.965Z" fill="#D15A5A"/>
<path d="M185.981 27.9506C186.041 27.3014 186.219 26.6688 186.508 26.0842C186.799 25.4667 187.186 24.8989 187.654 24.4016C187.934 24.1075 188.247 23.8463 188.587 23.6232C188.958 23.3753 189.363 23.1846 189.791 23.0574C189.897 23.0188 190.013 22.9994 190.124 22.9704H190.168H190.25H190.318H190.453C190.55 22.9704 190.714 22.9704 190.845 22.9414H191.207C191.671 22.9896 192.12 23.1258 192.532 23.3427C193.183 23.7055 193.724 24.2366 194.099 24.8803C194.349 25.2999 194.524 25.7596 194.616 26.239C194.656 26.4184 194.675 26.6016 194.674 26.7853L194.239 26.4711C193.964 26.2873 193.596 26.0166 193.166 25.7506C192.734 25.4673 192.263 25.2475 191.768 25.0979C191.542 25.0341 191.308 24.9999 191.072 24.9963H190.898C190.85 24.9963 190.835 24.9963 190.753 24.9963H190.618H190.55C190.487 24.9963 190.419 24.9963 190.356 25.0399C190.091 25.1121 189.832 25.2076 189.583 25.3251C189.317 25.4545 189.059 25.5982 188.809 25.7555C188.328 26.0698 187.863 26.4087 187.417 26.7708L185.981 27.9506Z" fill="#76413B"/>
<path d="M181.798 26.9095L181.262 26.5952C180.928 26.4018 180.454 26.1117 179.903 25.8264C178.805 25.2413 177.35 24.5596 176.035 24.5886C175.709 24.5931 175.384 24.6353 175.068 24.7143C174.903 24.7385 174.749 24.8158 174.584 24.8545C174.42 24.8932 174.27 24.9899 174.101 25.0431C173.931 25.0963 173.801 25.2026 173.646 25.2752C173.491 25.3477 173.356 25.4541 173.206 25.5363C172.931 25.7248 172.65 25.8989 172.408 26.0923C172.167 26.2857 171.925 26.4549 171.722 26.6193C171.519 26.7837 171.325 26.924 171.18 27.0497C170.881 27.3011 170.697 27.4365 170.697 27.4365C170.736 27.2294 170.786 27.0245 170.847 26.8224C170.91 26.5888 170.993 26.3608 171.093 26.1407C171.146 26.0101 171.209 25.8747 171.272 25.7297C171.335 25.5846 171.432 25.4444 171.519 25.2945C171.711 24.964 171.932 24.6516 172.181 24.3613C172.321 24.2066 172.471 24.0567 172.626 23.8778C172.781 23.6989 172.974 23.5877 173.158 23.4427C173.563 23.1523 174.007 22.9211 174.478 22.7561C174.979 22.5837 175.505 22.4907 176.035 22.4805C176.556 22.4857 177.073 22.5638 177.572 22.7126C178.034 22.8514 178.475 23.0479 178.887 23.2976C180.066 24.0119 181.009 25.0558 181.6 26.3002C181.683 26.4973 181.75 26.7011 181.798 26.9095Z" fill="#76413B"/>
<path d="M175.687 31.873C175.687 33.3236 175.252 34.5372 174.72 34.5324C174.188 34.5275 173.801 33.3333 173.811 31.8634C173.82 30.3935 174.246 29.1992 174.754 29.1992C175.261 29.1992 175.696 30.4032 175.687 31.873Z" fill="#1C171E"/>
<path d="M190.231 32.0422C190.231 33.4927 189.796 34.7063 189.264 34.7063C188.732 34.7063 188.365 33.4927 188.398 32.0422C188.432 30.5916 188.829 29.378 189.341 29.3828C189.854 29.3877 190.236 30.5578 190.231 32.0422Z" fill="#1C171E"/>
<path d="M175.87 43.7461L192.484 46.0621C192.484 46.0621 186.073 52.9474 175.87 43.7461Z" fill="white"/>
<path d="M206.67 100.647C206.67 100.647 215.069 137.849 225.87 135.847C236.672 133.845 219.469 85.4453 219.469 85.4453L206.67 100.647Z" fill="#F29083"/>
<path d="M189.365 66.9471C189.365 66.9471 206.467 62.7502 215.165 73.2327C223.864 83.7153 225.667 99.033 225.667 99.033L207.067 105.319L189.365 66.9471Z" fill="#0096C8"/>
<path d="M201.738 92.4785L201.293 92.817L207.071 105.345L225.672 99.0591C225.672 99.0591 224.434 88.5765 219.072 79.0078C213.425 83.6254 207.574 88.0205 201.738 92.4785Z" fill="#558AB5"/>
<path d="M232.533 34.6712C232.533 34.6712 229.212 22.3706 238.36 18.1641C238.36 18.1641 241.183 29.4976 232.533 34.6712Z" fill="#965450"/>
<path d="M238.476 25.9003C238.94 23.3385 238.901 20.7107 238.36 18.1641C236.695 18.9012 235.258 20.0697 234.197 21.5487C235.618 23.0185 237.035 24.4691 238.476 25.9003Z" fill="#FC6A5A"/>
<path d="M232.088 33.7852C230.454 35.4388 227.79 41.1878 223.642 53.8316C218.376 69.8988 212.7 91.0283 214.097 91.4683C215.494 91.9083 223.443 71.5669 228.714 55.4949C232.62 43.6053 233.965 37.4018 233.834 34.7957C233.244 34.4572 232.664 34.1333 232.088 33.7852Z" fill="#FC6A5A"/>
<path d="M232.088 33.7852C230.938 34.9504 229.274 38.1368 226.944 44.3499C228.491 44.9946 230.03 45.6393 231.561 46.284C233.292 40.2062 233.926 36.6137 233.834 34.786C233.244 34.4572 232.664 34.1333 232.088 33.7852Z" fill="#FDDEC0"/>
<path d="M225.073 51.4475C225.073 51.4475 233.873 50.2435 235.87 54.6435C237.866 59.0435 240.27 133.456 228.269 135.845C218.947 137.711 209.073 127.446 222.67 68.6364C222.67 68.6364 216.669 67.036 219.072 64.2364C219.072 64.2364 215.871 61.0356 220.271 59.8365C220.271 59.8365 217.854 56.6356 221.872 56.2343C221.872 56.2439 217.893 52.2453 225.073 51.4475Z" fill="#FFAC9D"/>
<path d="M228.269 135.848C227.506 136.008 226.727 136.078 225.948 136.055H225.653L225.363 136.017L224.778 135.944C224.393 135.869 224.015 135.766 223.646 135.635C222.16 135.093 220.865 134.126 219.923 132.855C218.976 131.597 218.235 130.196 217.728 128.706C217.207 127.228 216.814 125.707 216.553 124.161C216.486 123.779 216.408 123.392 216.355 123.005L216.205 121.845C216.089 121.067 216.036 120.288 215.968 119.51C215.9 118.731 215.871 117.948 215.828 117.169C215.784 116.391 215.78 115.608 215.77 114.824C215.76 114.041 215.77 113.263 215.77 112.484C215.77 111.706 215.77 110.918 215.833 110.139L215.954 107.799C216.002 107.02 216.075 106.242 216.128 105.464C216.234 103.907 216.423 102.359 216.573 100.802C216.722 99.2455 216.935 97.7031 217.148 96.1607C217.361 94.6183 217.569 93.0662 217.83 91.5287C218.091 89.9911 218.313 88.4487 218.603 86.9111C218.893 85.3735 219.15 83.8408 219.459 82.3129C219.769 80.785 220.054 79.2523 220.387 77.7292C220.721 76.2061 221.026 74.6734 221.355 73.1552L222.389 68.5956L222.578 68.9099C222.008 68.7459 221.451 68.5423 220.91 68.3007C220.36 68.0647 219.839 67.7662 219.358 67.411C219.111 67.2233 218.887 67.0075 218.69 66.7679C218.48 66.5132 218.334 66.2113 218.265 65.8879C218.197 65.5557 218.229 65.2109 218.357 64.8967C218.415 64.7458 218.49 64.6015 218.579 64.4664C218.664 64.3363 218.758 64.212 218.86 64.0941V64.4277C218.682 64.2362 218.521 64.0309 218.376 63.8137C218.223 63.5995 218.09 63.3712 217.98 63.1319C217.92 63.012 217.87 62.8875 217.83 62.7596C217.785 62.6308 217.753 62.4981 217.733 62.3631L217.699 62.1601V61.9473C217.699 61.8748 217.699 61.8071 217.699 61.7346L217.748 61.5267C217.748 61.459 217.781 61.3864 217.801 61.3187L217.897 61.1302L217.999 60.9416C218.038 60.8836 218.086 60.8352 218.129 60.782C218.214 60.6706 218.311 60.57 218.42 60.4823L218.748 60.2453C218.859 60.1731 218.975 60.11 219.097 60.0568L219.449 59.8875L220.184 59.6458L220.073 59.9794C219.94 59.7918 219.82 59.5947 219.715 59.3895C219.612 59.1843 219.526 58.9708 219.459 58.7513C219.421 58.6412 219.391 58.5279 219.372 58.4128C219.347 58.2968 219.334 58.1785 219.333 58.0599C219.314 57.9381 219.314 57.8141 219.333 57.6924L219.362 57.5135L219.43 57.3394C219.43 57.2814 219.478 57.2234 219.507 57.1654L219.614 57.0155C219.681 56.9109 219.766 56.8191 219.865 56.7447C219.954 56.6638 220.052 56.5925 220.155 56.532L220.475 56.3724C220.582 56.3297 220.691 56.2942 220.803 56.266C220.91 56.237 221.021 56.1983 221.132 56.1742L221.799 56.0726L221.688 56.3821C221.392 56.0655 221.137 55.713 220.929 55.3328C220.708 54.948 220.578 54.5182 220.547 54.0757C220.526 53.616 220.676 53.1647 220.968 52.8089C221.26 52.4804 221.62 52.2183 222.022 52.0401C222.408 51.8622 222.812 51.7229 223.226 51.6243C223.637 51.5276 224.053 51.4502 224.468 51.3922C224.884 51.3342 225.295 51.2907 225.716 51.2665C226.136 51.2423 226.547 51.2181 226.968 51.2085C228.64 51.1541 230.31 51.3397 231.929 51.7597C232.738 51.9752 233.507 52.3197 234.206 52.7799C234.553 53.0146 234.868 53.2925 235.144 53.6067C235.417 53.9209 235.643 54.2726 235.816 54.6511C235.635 54.2773 235.402 53.9307 235.125 53.6212C234.837 53.3157 234.513 53.0477 234.158 52.8234C233.457 52.3815 232.69 52.0549 231.885 51.8564C230.271 51.4717 228.61 51.3219 226.954 51.4115C226.538 51.4115 226.127 51.4551 225.716 51.4937C225.305 51.5324 224.894 51.5905 224.483 51.6485C224.072 51.7065 223.675 51.7935 223.279 51.8951C222.885 51.9989 222.502 52.1381 222.133 52.3109C221.776 52.4736 221.458 52.711 221.2 53.0071C220.959 53.3017 220.838 53.6765 220.861 54.0564C220.896 54.447 221.016 54.8251 221.214 55.1636C221.411 55.5135 221.65 55.8382 221.925 56.1306L222.172 56.3821L221.819 56.4401L221.19 56.5416C221.089 56.5416 220.992 56.5997 220.895 56.6287C220.796 56.6545 220.699 56.6884 220.605 56.7302L220.334 56.8656C220.238 56.9043 220.184 56.9865 220.102 57.0396C220.026 57.0954 219.962 57.1662 219.914 57.2476L219.831 57.3588L219.778 57.4893L219.73 57.6199L219.706 57.7601C219.689 57.8544 219.689 57.951 219.706 58.0454C219.702 58.1448 219.714 58.2442 219.74 58.3403C219.756 58.4409 219.782 58.5397 219.817 58.6352C219.881 58.8314 219.96 59.0222 220.054 59.2058C220.149 59.3873 220.258 59.5618 220.378 59.728L220.552 59.9649L220.262 60.0616L219.58 60.2985C219.469 60.342 219.367 60.4001 219.261 60.4532C219.154 60.502 219.05 60.5585 218.951 60.6225L218.676 60.8304C218.591 60.8996 218.514 60.9792 218.449 61.0673C218.411 61.1086 218.375 61.1522 218.342 61.1979L218.275 61.3381L218.197 61.4831L218.163 61.6379L218.125 61.7926C218.125 61.8506 218.125 61.9038 218.125 61.957V62.1214L218.158 62.2858C218.174 62.3965 218.201 62.5051 218.241 62.6097C218.277 62.7213 218.322 62.8297 218.376 62.9337C218.476 63.1461 218.596 63.3485 218.734 63.5381C218.868 63.7326 219.018 63.9154 219.184 64.0844L219.329 64.2295L219.198 64.4181C219.113 64.5205 219.036 64.6288 218.966 64.742C218.895 64.8485 218.835 64.9619 218.787 65.0805C218.699 65.3067 218.678 65.5531 218.724 65.7912C218.782 66.0342 218.894 66.2608 219.053 66.4537C219.223 66.6602 219.418 66.8453 219.633 67.0049C220.084 67.3337 220.57 67.6095 221.084 67.8268C221.6 68.0549 222.132 68.2472 222.675 68.4022L222.921 68.4699L222.868 68.7165L221.853 73.276C221.509 74.7991 221.209 76.327 220.886 77.8501C220.562 79.3731 220.276 80.901 219.977 82.4289C219.677 83.9568 219.411 85.4896 219.13 87.0223C218.85 88.5551 218.603 90.0878 218.347 91.6254C218.091 93.1629 217.864 94.7005 217.646 96.2381C217.428 97.7757 217.245 99.3277 217.051 100.87C216.858 102.413 216.703 103.96 216.597 105.512C216.534 106.29 216.461 107.064 216.413 107.838L216.282 110.168C216.234 110.942 216.229 111.72 216.2 112.499C216.171 113.277 216.162 114.051 216.166 114.829C216.171 115.608 216.166 116.381 216.195 117.16C216.224 117.938 216.239 118.712 216.307 119.485C216.374 120.259 216.408 121.033 216.515 121.801L216.65 122.957C216.703 123.344 216.771 123.726 216.834 124.108C217.078 125.638 217.448 127.145 217.941 128.614C218.409 130.092 219.109 131.486 220.015 132.743C220.915 134.011 222.168 134.987 223.617 135.548C223.98 135.684 224.352 135.795 224.729 135.881L225.305 135.964L225.595 136.007H225.885C226.683 136.051 227.484 135.997 228.269 135.848Z" fill="#D15A5A"/>
<path d="M162.071 67.2446C162.071 67.2446 165.673 79.5452 177.369 79.2454C189.066 78.9456 189.365 66.9448 189.365 66.9448C189.365 66.9448 206.772 63.947 210.065 72.0459C213.357 80.1447 211.568 165.045 211.568 165.045L147.072 163.556C147.072 163.556 138.069 74.154 142.571 70.8564C147.072 67.5589 162.071 67.2446 162.071 67.2446Z" fill="#0096C8"/>
<path d="M183.945 108.667C174.947 102.865 167.312 95.2787 159.673 87.8374C154.074 82.3834 148.344 76.6344 143.959 70.0586C143.471 70.274 143.006 70.538 142.571 70.8467C138.069 74.1443 140.946 163.546 140.946 163.546L211.573 165.045C211.573 165.045 212.033 143.369 212.057 120.876C202.203 118.105 192.576 114.237 183.945 108.667Z" fill="#0096C8"/>
<path d="M142.571 70.8477C142.242 71.2055 142.013 71.6443 141.908 72.1193C141.773 72.5839 141.662 73.0552 141.575 73.5312C141.396 74.4982 141.27 75.441 141.159 76.4032C140.946 78.3373 140.811 80.2713 140.7 82.2054C140.482 86.0735 140.381 89.9416 140.308 93.8097C140.173 101.546 140.158 109.306 140.216 117.057C140.342 132.552 140.664 148.045 141.183 163.537L140.961 163.32L158.619 163.687L176.272 164.088L211.568 164.896L211.413 165.046L211.689 126.118L212.018 87.1904L211.897 126.118L211.718 165.046V165.2H211.563L176.267 164.504L158.614 164.161L140.956 163.774H140.738V163.557C140.293 148.058 140.023 132.558 139.926 117.057C139.926 113.189 139.926 109.321 139.926 105.453C139.955 101.585 139.994 97.7165 140.1 93.8242C140.206 89.9319 140.352 86.088 140.584 82.2199C140.714 80.2858 140.869 78.3518 141.096 76.4177C141.217 75.4507 141.352 74.4837 141.541 73.5457C141.631 73.0689 141.747 72.5976 141.889 72.1338C141.998 71.6521 142.233 71.2081 142.571 70.8477Z" fill="#1B4268"/>
<path d="M138.369 73.8438C138.369 73.8438 116.471 123.346 123.67 132.349C130.87 141.352 185.773 119.449 185.773 119.449L173.172 110.151L145.873 113.753L159.073 78.6547L138.369 73.8438Z" fill="#FFAC9D"/>
<path d="M160.591 128.309C173.97 124.156 185.773 119.446 185.773 119.446L173.173 110.148L148.479 113.402C150.902 119.374 155.389 124.166 160.591 128.309Z" fill="#F29083"/>
<path d="M148.267 107.361L159.068 78.645L138.364 73.8438C138.364 73.8438 133.017 85.9316 128.477 99.2524C134.356 103.459 141.159 105.954 148.267 107.361Z" fill="#F29083"/>
<path d="M130.067 119.342C130.067 119.342 130.207 119.236 130.493 119.062C130.778 118.888 131.184 118.622 131.73 118.327C132.277 118.032 132.949 117.693 133.723 117.311C134.496 116.929 135.405 116.562 136.392 116.156L137.953 115.595C138.495 115.401 139.051 115.189 139.641 115.029C140.816 114.7 142.034 114.27 143.344 114.023L145.327 113.588L145.839 113.477L146.323 113.395L147.348 113.23L151.521 112.558C152.923 112.355 154.311 112.109 155.703 111.964L159.769 111.48C161.085 111.321 162.366 111.185 163.575 111.05L166.988 110.726C171.214 110.329 174.043 110.16 174.043 110.16L167.022 111.064L163.637 111.485C162.434 111.654 161.167 111.833 159.852 111.997L155.8 112.52C154.422 112.679 153.029 112.945 151.627 113.153L147.454 113.787L146.424 113.941L145.912 114.019L145.428 114.12L143.46 114.536C142.16 114.778 140.941 115.155 139.766 115.455C139.177 115.595 138.621 115.788 138.074 115.962L136.508 116.475C136.024 116.654 135.541 116.847 135.091 117.016C134.641 117.186 134.206 117.335 133.814 117.5C133.026 117.848 132.335 118.133 131.784 118.423C131.232 118.714 130.817 118.907 130.507 119.076C130.198 119.245 130.067 119.342 130.067 119.342Z" fill="#D15A5A"/>
<path d="M162.071 67.2446C162.071 67.2446 146.173 54.0447 135.961 70.2472C125.749 86.4497 125.159 92.4453 125.159 92.4453C125.159 92.4453 141.662 103.847 155.461 105.645L162.071 67.2446Z" fill="#0096C8"/>
<path d="M146.333 62.4102L145.172 62.7003C144.79 62.8018 144.423 62.9662 144.05 63.0967C143.677 63.2281 143.315 63.3898 142.967 63.5803C142.605 63.744 142.257 63.9381 141.928 64.1605C141.599 64.3781 141.261 64.5811 140.937 64.8132L140.018 65.5675C139.712 65.8193 139.423 66.0906 139.152 66.3798C138.882 66.6651 138.582 66.9262 138.335 67.2356L137.581 68.1543C137.46 68.309 137.33 68.4589 137.214 68.6378L136.88 69.1213C136.435 69.7789 135.981 70.422 135.589 71.1134L133.142 75.2136C132.722 75.8905 132.349 76.5916 131.972 77.2879L130.86 79.3766C130.478 80.0729 130.091 80.7643 129.753 81.4848L128.699 83.6219C128.336 84.3278 128.022 85.0724 127.708 85.7832C127.393 86.494 127.05 87.2337 126.784 87.9735C126.518 88.7133 126.209 89.4241 125.991 90.2073L125.648 91.3388C125.571 91.7159 125.454 92.1076 125.411 92.4702L125.314 92.2574C126.455 93.0262 127.625 93.7708 128.81 94.4864C129.995 95.202 131.189 95.908 132.398 96.5849C132.997 96.9282 133.607 97.257 134.216 97.5858C134.825 97.9145 135.429 98.2482 136.048 98.5528C136.667 98.8574 137.276 99.1959 137.9 99.4908L139.771 100.39L141.667 101.236C142.295 101.526 142.938 101.783 143.601 102.039C144.263 102.295 144.877 102.576 145.535 102.793L147.469 103.494C148.122 103.707 148.789 103.9 149.446 104.104C150.104 104.307 150.776 104.481 151.448 104.64C152.12 104.8 152.783 105.003 153.464 105.1L155.505 105.457L155.297 105.612L157.274 94.4913L159.3 83.4043L157.507 94.5251L155.664 105.646L155.631 105.825L155.456 105.796L153.392 105.457C152.7 105.365 152.028 105.162 151.347 105.017C150.665 104.872 149.993 104.698 149.33 104.481C148.668 104.263 147.991 104.089 147.329 103.876L145.366 103.214C144.703 102.996 144.07 102.73 143.431 102.46C142.793 102.189 142.141 101.952 141.497 101.662L139.563 100.816L137.678 99.9211C137.049 99.6262 136.435 99.2974 135.816 98.9879C135.197 98.6785 134.578 98.3497 133.969 98.0209C133.36 97.6921 132.741 97.3682 132.141 97.0152C130.926 96.3319 129.729 95.6259 128.549 94.8974C127.36 94.1722 126.189 93.4469 125.034 92.6394L124.923 92.5621V92.4267C124.976 92.0012 125.097 91.6289 125.179 91.2276L125.542 90.0623C125.769 89.2887 126.088 88.5586 126.354 87.8043C126.62 87.05 126.982 86.3537 127.292 85.5995C127.601 84.8452 127.93 84.1489 128.298 83.4285L129.371 81.2865C129.714 80.5709 130.111 79.8795 130.502 79.1832L131.672 77.0945C132.064 76.403 132.441 75.7019 132.872 75.0299L135.366 70.9587C135.763 70.2721 136.232 69.6145 136.691 68.9666L137.035 68.4831C137.16 68.3284 137.291 68.1785 137.421 67.9996L138.195 67.0857C138.456 66.7811 138.766 66.52 139.046 66.2396C139.322 65.952 139.618 65.6838 139.931 65.437L140.898 64.6972C141.222 64.4699 141.57 64.2717 141.908 64.0541C142.595 63.6503 143.315 63.3058 144.06 63.0242C144.442 62.9033 144.81 62.7438 145.196 62.6519L146.333 62.4102Z" fill="#1B4268"/>
<path d="M199.872 107.749C186.073 90.9471 182.171 91.2469 177.07 94.8491C171.969 98.4513 169.271 96.9475 169.271 96.9475C159.673 91.2469 152.667 84.2311 146.773 94.53C140.772 105.051 174.376 142.847 190.569 140.749C206.762 138.651 213.672 124.546 199.872 107.749ZM190.004 106.676C189.153 108.412 185.396 108.315 181.615 106.458C177.834 104.602 175.455 101.691 176.296 99.955C177.137 98.2192 180.909 98.3207 184.69 100.173C188.471 102.024 190.855 104.94 190.004 106.676Z" fill="white"/>
<path d="M175.571 100.843C175.571 100.843 178.269 96.0468 181.856 95.7471C185.444 95.4473 200.157 102.947 185.159 100.843C185.173 100.843 182.47 111.747 175.571 100.843Z" fill="#FFAC9D"/>
<path d="M159.47 112.648C161.9 112.648 163.87 110.678 163.87 108.248C163.87 105.818 161.9 103.848 159.47 103.848C157.04 103.848 155.07 105.818 155.07 108.248C155.07 110.678 157.04 112.648 159.47 112.648Z" fill="#965450"/>
<path d="M169.067 123.847C171.498 123.847 173.467 121.877 173.467 119.447C173.467 117.017 171.498 115.047 169.067 115.047C166.637 115.047 164.667 117.017 164.667 119.447C164.667 121.877 166.637 123.847 169.067 123.847Z" fill="#6F96BD"/>
<path d="M185.381 132.158C187.099 130.44 187.099 127.654 185.381 125.936C183.663 124.217 180.877 124.217 179.158 125.936C177.44 127.654 177.44 130.44 179.158 132.158C180.877 133.876 183.663 133.876 185.381 132.158Z" fill="#5D8584"/>
<path d="M195.467 133.843C197.897 133.843 199.867 131.873 199.867 129.443C199.867 127.013 197.897 125.043 195.467 125.043C193.037 125.043 191.067 127.013 191.067 129.443C191.067 131.873 193.037 133.843 195.467 133.843Z" fill="#FFA65B"/>
<path d="M197.068 120.241C199.498 120.241 201.468 118.271 201.468 115.841C201.468 113.411 199.498 111.441 197.068 111.441C194.638 111.441 192.668 113.411 192.668 115.841C192.668 118.271 194.638 120.241 197.068 120.241Z" fill="#FC6A5A"/>
<path d="M63.5067 139.068C63.5067 139.068 42.0678 161.653 42.8075 215.777H119.343C119.343 215.777 120.861 153.689 92.5659 141.157C64.2707 128.624 63.5067 139.068 63.5067 139.068Z" fill="#0096C8"/>
<path d="M76.2232 193.451C70.3823 191.962 63.9806 189.651 58.4396 187.514C54.0879 185.841 49.1948 184.013 45.6458 181.262C44.0986 186.435 42.7447 206.844 42.7979 215.775H76.2232V193.451Z" fill="#0096C8"/>
<path d="M98.6242 144.583C96.7217 143.245 94.6925 142.097 92.5658 141.155C64.2657 128.617 63.5066 139.066 63.5066 139.066C61.7645 140.938 60.2068 142.973 58.8552 145.144C72.0735 146.8 85.4578 146.611 98.6242 144.583Z" fill="#0096C8"/>
<path d="M119.343 215.777C119.343 215.777 120.861 153.689 92.5659 141.157C64.2707 128.624 63.5067 139.068 63.5067 139.068C63.5067 139.068 42.5512 159.235 42.8075 215.777" stroke="#1B4268" stroke-width="0.5" stroke-miterlimit="10"/>
<path d="M49.833 183.801C50.3649 184.043 50.9016 184.284 51.4383 184.512C51.975 184.739 52.502 184.995 53.0435 185.213L54.6585 185.894C55.1952 186.131 55.7415 186.334 56.2831 186.557L57.9077 187.214C58.4444 187.437 58.9908 187.645 59.542 187.848L62.825 189.071L66.1419 190.188C66.6931 190.377 67.2443 190.575 67.8052 190.725L69.4878 191.208L71.1705 191.692C71.7265 191.866 72.297 191.977 72.8676 192.103L76.2764 192.847H76.1797L83.2099 191.397C85.555 190.913 87.8952 190.43 90.2451 189.99L97.285 188.617L104.339 187.301L97.3382 188.873L90.3273 190.386C87.9919 190.899 85.6469 191.353 83.3066 191.866L76.286 193.316H76.228H76.1845L72.7467 192.538C72.1762 192.407 71.6008 192.291 71.0447 192.112L69.3573 191.629L67.6698 191.145C67.1041 190.991 66.5529 190.788 66.0017 190.594L62.6848 189.443L59.4211 188.152C58.8763 187.94 58.3348 187.717 57.7965 187.485L56.1864 186.789C55.6497 186.552 55.1081 186.33 54.5811 186.073L52.9855 185.338C51.9266 184.831 50.8774 184.347 49.833 183.801Z" fill="#1B4268"/>
<path d="M76.049 215.776L75.9717 204.442V193.113H76.489C76.489 193.113 76.489 198.775 76.489 204.442C76.489 210.109 76.4068 215.776 76.4068 215.776H76.049Z" fill="#1B4268"/>
<path d="M90.5351 80.5138C90.5351 80.5138 88.4222 97.9542 91.1008 97.4997C93.7795 97.0452 105.026 90.6676 107.395 102.112C109.764 113.557 93.5667 136.442 93.5667 136.442L57.3999 136.012C57.3999 136.012 51.3318 101.358 60.9392 97.9252C70.5467 94.4922 76.5809 104.008 76.2424 89.1687C75.8992 74.1073 90.5351 80.5138 90.5351 80.5138Z" fill="#965450"/>
<path d="M75.812 95.2543C76.0999 93.2347 76.2437 91.1972 76.2423 89.1572C76.5566 74.0909 90.535 80.5119 90.535 80.5119C90.535 80.5119 90.0031 84.9264 89.8097 89.2587C86.2656 91.8262 79.8832 94.1325 75.812 95.2543Z" fill="#76413B"/>
<path d="M72.8385 48.0947C72.8385 48.0947 64.8606 42.0218 56.3169 55.5021C47.7732 68.9825 57.4531 83.0624 68.4676 83.2316C79.482 83.4008 72.8385 48.0947 72.8385 48.0947Z" fill="#EFC8A8"/>
<path d="M72.8385 48.0947C72.8385 48.0947 64.8606 42.0218 56.3169 55.5021C47.7732 68.9825 57.4531 83.0624 68.4676 83.2316C79.482 83.4008 72.8385 48.0947 72.8385 48.0947Z" stroke="#C98D61" stroke-width="1.06" stroke-miterlimit="10"/>
<path d="M78.6648 50.5076C78.6648 50.5076 64.1207 49.1682 62.4284 65.3176C60.2768 85.8718 72.6644 98.269 84.5588 89.1548C96.4532 80.0406 98.0537 50.0241 78.6648 50.5076Z" fill="#965450"/>
<path d="M90.8398 75.4952C90.8398 75.4952 91.7391 66.5115 95.6749 68.2715C99.6107 70.0315 97.1255 82.0323 90.4385 78.609" fill="#965450"/>
<path d="M78.665 50.5046C78.665 50.5046 78.3507 50.4804 77.7656 50.5046C76.918 50.5275 76.073 50.6099 75.2369 50.7512C73.9447 50.9731 72.6835 51.348 71.48 51.8681C69.7818 52.5884 68.2467 53.6445 66.9671 54.9732C65.6875 56.3018 64.6898 57.8754 64.0338 59.5995C63.2397 61.6887 62.7669 63.8863 62.6317 66.1172C62.4213 68.506 62.4213 70.9086 62.6317 73.2974C62.8353 75.7647 63.3303 78.1992 64.1064 80.5501C64.8526 82.8962 65.9976 85.0961 67.491 87.0534C68.2286 87.9981 69.0759 88.8518 70.0149 89.5967C70.9375 90.3068 71.9588 90.8786 73.0465 91.2938C74.1005 91.6887 75.214 91.9013 76.3393 91.9224C77.421 91.9578 78.5015 91.8207 79.5401 91.5162C81.4584 90.9526 83.2428 90.0069 84.7862 88.736C86.1066 87.6696 87.2704 86.4229 88.2434 85.0323C88.7269 84.4327 89.0557 83.8042 89.4135 83.253C89.7713 82.7018 90.0179 82.1457 90.2838 81.667C90.7673 80.7 91.1058 79.8925 91.304 79.3413L91.6376 78.5049L91.333 79.351C91.1493 79.9119 90.8157 80.7048 90.366 81.7105C90.1194 82.1941 89.8583 82.7501 89.544 83.3352C89.2297 83.9202 88.8768 84.5391 88.4223 85.1628C88.1998 85.4723 87.9968 85.8156 87.7357 86.1299L86.9475 87.0969C86.3511 87.7761 85.7046 88.4097 85.0135 88.9923C83.4476 90.3253 81.6287 91.3284 79.6658 91.9417C78.5863 92.2783 77.4602 92.4415 76.3296 92.4252C75.1456 92.4214 73.9717 92.2069 72.8628 91.7918C71.7184 91.365 70.6431 90.772 69.6716 90.0318C68.691 89.264 67.8048 88.3827 67.0316 87.4063C65.4823 85.4036 64.2914 83.1477 63.5117 80.7387C62.7415 78.3427 62.2547 75.8647 62.0611 73.3554C61.8649 70.9331 61.8794 68.4983 62.1046 66.0786C62.2546 63.797 62.7688 61.5541 63.6277 59.4351C64.3934 57.5313 65.5554 55.8123 67.0365 54.392C68.2993 53.2084 69.7762 52.2763 71.3881 51.6457C72.6196 51.1569 73.9052 50.8177 75.2175 50.6351C76.0584 50.516 76.9067 50.4578 77.756 50.4611C78.3507 50.4707 78.665 50.5046 78.665 50.5046Z" fill="#54201C"/>
<path d="M92.5659 47.3347C92.5659 47.3347 80.7875 36.6974 93.1364 31.5721C105.485 26.4469 105.481 44.1096 97.314 46.769C97.314 46.769 101.298 47.5281 104.91 40.4833C104.91 40.4978 103.58 53.4124 92.5659 47.3347Z" fill="#EFC8A8"/>
<path d="M92.566 47.3345C91.8736 46.6823 91.2273 45.9828 90.6319 45.2409C90.0238 44.502 89.4727 43.7181 88.9832 42.8958C88.4899 42.0739 88.097 41.1956 87.8131 40.28C87.519 39.363 87.4154 38.3955 87.5084 37.437C87.6208 36.4708 87.9768 35.5491 88.5432 34.7583C89.114 33.9751 89.8236 33.3032 90.6368 32.7759C91.44 32.2387 92.2934 31.7805 93.1849 31.4076C93.6346 31.248 94.06 31.0449 94.5339 30.9241L95.2398 30.721C95.4767 30.6678 95.7233 30.6291 95.9554 30.5856C96.9168 30.4109 97.9036 30.4323 98.8565 30.6485C99.8299 30.8912 100.711 31.414 101.39 32.1522C102.059 32.8889 102.555 33.7662 102.841 34.7196C103.12 35.661 103.257 36.6388 103.247 37.6207C103.245 39.5835 102.735 41.5123 101.767 43.2198C101.282 44.075 100.662 44.8457 99.9299 45.502C99.1918 46.1539 98.3278 46.6476 97.3915 46.9525L97.3624 46.527C97.5587 46.5442 97.7561 46.5442 97.9523 46.527C98.1571 46.5066 98.3605 46.4743 98.5616 46.4303C98.7646 46.3965 98.9629 46.3143 99.1611 46.2611C99.3594 46.2079 99.5528 46.1112 99.7413 46.0193C99.9299 45.9275 100.118 45.8308 100.297 45.7196L100.829 45.3763L101.313 44.9846C101.487 44.8589 101.627 44.6994 101.796 44.5591C101.956 44.4162 102.108 44.2645 102.251 44.1046L102.676 43.6211C102.821 43.4616 102.942 43.2827 103.078 43.1376C103.213 42.9925 103.343 42.7991 103.464 42.6251L103.822 42.0835C103.933 41.9046 104.064 41.7306 104.17 41.542L104.804 40.4203L105.113 39.8739L105.036 40.488C104.929 41.2242 104.767 41.9515 104.552 42.6638C104.346 43.3753 104.082 44.0689 103.764 44.738C103.6 45.0717 103.426 45.3956 103.232 45.7051C103.035 46.0187 102.822 46.3221 102.594 46.6141C102.358 46.9005 102.103 47.1703 101.83 47.4215C101.556 47.6698 101.262 47.8946 100.95 48.0936C100.635 48.2883 100.302 48.4503 99.9541 48.5771C99.7834 48.648 99.6071 48.7046 99.427 48.7464C99.2504 48.8001 99.0691 48.8373 98.8855 48.8576C98.5193 48.9156 98.1491 48.9447 97.7783 48.9446C97.4106 48.931 97.0441 48.8954 96.6807 48.8382C96.3166 48.78 95.9565 48.6993 95.6025 48.5965C95.2447 48.5046 94.9014 48.3596 94.5532 48.2435L93.5427 47.8035L92.566 47.3345ZM92.566 47.3345L93.533 47.818L94.5484 48.2483C94.9014 48.3596 95.2398 48.4998 95.5976 48.5868C95.9514 48.6882 96.3117 48.7658 96.6759 48.8189C97.0391 48.8769 97.4057 48.9108 97.7734 48.9204C98.1397 48.917 98.505 48.8847 98.8662 48.8237C99.0483 48.8018 99.228 48.7629 99.4029 48.7077C99.5798 48.6659 99.7528 48.6093 99.9202 48.5385C100.259 48.4114 100.583 48.2494 100.887 48.0549C101.195 47.859 101.485 47.6357 101.753 47.3877C102.017 47.1328 102.262 46.8598 102.488 46.5706C102.709 46.2794 102.914 45.9759 103.102 45.6615C103.281 45.3473 103.45 45.0233 103.585 44.6945C103.883 44.0263 104.129 43.3361 104.32 42.6299C104.513 41.9256 104.653 41.2081 104.741 40.4831L104.968 40.5508L104.398 41.7112C104.291 41.8998 104.165 42.0787 104.054 42.2673L103.701 42.8185C103.58 43.0022 103.445 43.1715 103.319 43.3504C103.194 43.5293 103.063 43.7082 102.923 43.8725L102.493 44.3561C102.342 44.5273 102.18 44.6888 102.009 44.8396C101.849 44.9895 101.704 45.1539 101.525 45.2892L101.013 45.7099L100.462 46.0822C100.273 46.2031 100.075 46.2998 99.8815 46.411C99.6881 46.5222 99.4706 46.5947 99.2675 46.6818C99.0644 46.7688 98.842 46.8365 98.6196 46.88C98.3983 46.9319 98.1737 46.9691 97.9475 46.9912C97.7129 47.0176 97.4761 47.0176 97.2416 46.9912L96.3422 46.8558L97.2126 46.5609C98.09 46.2607 98.8964 45.7834 99.5818 45.1587C100.269 44.5306 100.85 43.7959 101.303 42.9829C101.762 42.1694 102.108 41.2976 102.333 40.3913C102.571 39.4864 102.699 38.5562 102.715 37.6207C102.733 36.689 102.611 35.7599 102.352 34.8647C102.098 33.9716 101.649 33.1459 101.037 32.4471C100.413 31.7687 99.6102 31.2794 98.7211 31.0353C97.8175 30.8144 96.8787 30.7766 95.9603 30.9241C95.0253 31.0676 94.1102 31.3191 93.2332 31.6735C92.3532 32.0201 91.5094 32.4525 90.7141 32.9645C89.9087 33.4588 89.2034 34.1001 88.635 34.855C88.0643 35.6122 87.6965 36.5026 87.5665 37.4418C87.4561 38.3881 87.5467 39.347 87.8324 40.2559C88.1069 41.1695 88.4917 42.0463 88.9783 42.8668C89.4572 43.692 89.9987 44.4792 90.5981 45.2215C91.205 45.97 91.8625 46.676 92.566 47.3345Z" fill="#C98D61"/>
<path d="M93.4994 48.1755C95.54 47.3452 96.5212 45.0179 95.6909 42.9773C94.8606 40.9366 92.5333 39.9555 90.4927 40.7857C88.4521 41.616 87.4709 43.9433 88.3012 45.9839C89.1315 48.0245 91.4588 49.0057 93.4994 48.1755Z" fill="#6F96BD"/>
<path d="M70.7256 47.1462C70.7256 47.1462 70.5322 68.2274 91.4249 73.3527C91.4249 73.3527 91.1396 67.5118 95.2253 68.6094C99.311 69.707 96.7435 75.4463 96.7435 75.4463C96.7435 75.4463 108.135 63.8419 97.1206 49.0464C87.7308 36.4171 70.7256 47.1462 70.7256 47.1462Z" fill="#FDDEC0"/>
<path d="M96.7435 75.4463C97.5464 74.5429 98.259 73.5632 98.871 72.521C99.4912 71.4892 100.02 70.4052 100.452 69.2815C101.332 67.039 101.78 64.6504 101.772 62.2415C101.771 61.0427 101.648 59.8471 101.405 58.6732C101.355 58.3779 101.289 58.0857 101.206 57.798C101.129 57.5079 101.066 57.2178 100.974 56.9277C100.786 56.362 100.621 55.7866 100.384 55.2354C99.9407 54.1224 99.4171 53.043 98.8178 52.0055C98.5083 51.493 98.1844 50.9853 97.8507 50.4825C97.5171 49.9796 97.1642 49.4864 96.8064 49.0319C96.4436 48.5532 96.0528 48.0963 95.6363 47.6636C95.4283 47.4557 95.2349 47.2284 95.0174 47.0302L94.3453 46.4403C93.435 45.6695 92.4291 45.0194 91.3523 44.5062C90.2722 44.0073 89.1357 43.6404 87.9677 43.4135C86.8037 43.2156 85.6232 43.1314 84.4429 43.1621C83.2496 43.188 82.0607 43.3158 80.8891 43.544C79.7115 43.7649 78.5489 44.0588 77.4078 44.424C76.267 44.7941 75.1469 45.2251 74.0522 45.715C72.9574 46.1954 71.8933 46.7428 70.8659 47.3541L70.9771 47.1607C70.9854 47.9008 71.0322 48.64 71.1173 49.3752C71.1995 50.115 71.3107 50.8548 71.4461 51.5849C71.5815 52.315 71.741 53.0354 71.9296 53.7703C72.1182 54.5053 72.3261 55.2209 72.5582 55.9123C72.7902 56.6037 73.0417 57.3193 73.3414 58.0108C73.6412 58.7022 73.9362 59.3743 74.3085 60.0367C74.468 60.3703 74.6518 60.6991 74.8355 61.0037C75.0192 61.3083 75.203 61.6564 75.406 61.9707C75.7929 62.609 76.2329 63.2134 76.6632 63.8226C77.0935 64.4318 77.5867 64.9975 78.1137 65.5391L78.486 65.9597L78.8825 66.3514C79.1533 66.6125 79.4047 66.8881 79.6851 67.1347L80.5265 67.8696C80.8117 68.1162 81.1163 68.3531 81.4065 68.5659C81.6953 68.8033 81.9972 69.0244 82.3106 69.2283L83.2341 69.8617C83.8869 70.2291 84.5106 70.6498 85.1682 70.9689L86.1691 71.4766L87.2038 71.9214C87.8855 72.2357 88.6011 72.4533 89.3071 72.7144C90.013 72.9755 90.7576 73.1399 91.4635 73.3526C90.7431 73.1544 90.013 72.9852 89.2926 72.7579C88.5721 72.5307 87.842 72.3131 87.1651 72.0085L86.1207 71.583L85.1005 71.0995C84.4139 70.79 83.7757 70.3839 83.1133 70.0261L82.1462 69.412C81.8271 69.2089 81.5225 68.9913 81.2227 68.7593C80.9229 68.5272 80.6087 68.3193 80.3234 68.0727L79.4434 67.3377C79.1533 67.0911 78.897 66.8155 78.6214 66.5593L78.2153 66.1628L77.8333 65.747C77.3111 65.2006 76.8421 64.6059 76.3827 64.0208C75.9234 63.4358 75.4882 62.8072 75.0869 62.1641C74.8742 61.8499 74.6856 61.5211 74.497 61.1971C74.3085 60.8732 74.1151 60.5395 73.9458 60.2059C73.588 59.5387 73.2689 58.8521 72.9788 58.1606C72.6887 57.4692 72.4083 56.7585 72.1617 56.0429C71.9151 55.3273 71.7023 54.5923 71.5138 53.8719C71.3252 53.1514 71.1511 52.4213 71.0302 51.6622C70.9094 50.9031 70.774 50.1682 70.687 49.4187C70.5999 48.6693 70.5419 47.915 70.5322 47.1462V47.0302L70.6434 46.9625C71.6873 46.3335 72.7693 45.7699 73.883 45.275C74.9858 44.7724 76.1157 44.3317 77.2676 43.955C78.4244 43.5745 79.6052 43.2709 80.8021 43.046C82.0029 42.8197 83.221 42.6967 84.4429 42.6785C85.6683 42.6574 86.8927 42.7578 88.0983 42.9783C89.3045 43.2157 90.477 43.6006 91.5892 44.1243C92.7011 44.6496 93.7398 45.3176 94.6789 46.1115L95.3655 46.7207C95.5927 46.9286 95.7958 47.1607 96.0086 47.3831C96.4281 47.8227 96.822 48.286 97.1883 48.7708C97.5703 49.2543 97.8943 49.7669 98.2521 50.2649C98.6099 50.7629 98.8951 51.2948 99.2191 51.8218C99.8215 52.8813 100.342 53.9853 100.776 55.1242C101.008 55.6851 101.172 56.2749 101.356 56.8552C101.443 57.1453 101.506 57.445 101.583 57.74C101.661 58.0349 101.724 58.3347 101.772 58.6345C102.005 59.8306 102.115 61.0473 102.101 62.2657C102.098 63.483 101.968 64.6967 101.714 65.8872C101.462 67.0745 101.103 68.2365 100.641 69.3588C100.182 70.4819 99.6249 71.5627 98.9773 72.5887C98.3274 73.6116 97.5793 74.5687 96.7435 75.4463Z" fill="#C98D61"/>
<path d="M64.3287 71.133C64.3287 71.133 64.3577 71.3119 64.4109 71.6165C64.4849 72.0329 64.5834 72.4446 64.7058 72.8495C64.8573 73.4084 65.092 73.9414 65.4021 74.4306C65.4924 74.5531 65.591 74.6694 65.697 74.7787C65.8054 74.8784 65.9255 74.9645 66.0548 75.0349C66.3184 75.1755 66.619 75.2312 66.9155 75.1945H66.9445H67.0122L67.1427 75.1703C67.2249 75.1703 67.3168 75.1317 67.3942 75.1075C67.6777 75.0001 67.9361 74.8355 68.1533 74.624C68.2678 74.5207 68.373 74.4074 68.4676 74.2855C68.8123 73.8204 69.0801 73.3029 69.2605 72.7528C69.4015 72.3546 69.5162 71.9475 69.6038 71.5343C69.6715 71.2297 69.7005 71.0508 69.7005 71.0508C69.7379 71.6473 69.6924 72.2461 69.5651 72.8301C69.5077 73.1183 69.4268 73.4013 69.3234 73.6763C69.2011 73.9924 69.0386 74.2914 68.8399 74.5659C68.7434 74.7199 68.6281 74.8612 68.4966 74.9866C68.3656 75.1254 68.2178 75.2472 68.0566 75.3492C67.8818 75.4567 67.6973 75.5474 67.5054 75.62L67.2491 75.6829L67.1186 75.7119H67.0557H66.9542C66.5481 75.7505 66.14 75.6645 65.7841 75.4653C65.4544 75.2696 65.1799 74.9934 64.9863 74.6626C64.6729 74.1136 64.4678 73.5096 64.3819 72.8833C64.3177 72.456 64.287 72.0244 64.29 71.5923C64.3093 71.3119 64.3287 71.133 64.3287 71.133Z" fill="#1C171E"/>
<path d="M78.3747 71.3677C78.3747 71.3677 78.3989 71.5418 78.4569 71.8512C78.5309 72.2677 78.6294 72.6794 78.7518 73.0842C78.9011 73.6439 79.136 74.1772 79.4481 74.6653C79.5384 74.7878 79.637 74.9042 79.743 75.0134C79.8514 75.1131 79.9715 75.1992 80.1008 75.2697C80.3618 75.4127 80.6617 75.4686 80.9566 75.4293H80.9905H81.0533H81.1839C81.2709 75.4293 81.3628 75.3954 81.4402 75.3712C81.574 75.3136 81.7047 75.2491 81.8318 75.1778C81.9607 75.0953 82.0821 75.0014 82.1944 74.8974C82.3115 74.7966 82.4169 74.6831 82.5087 74.5589C82.8558 74.0945 83.1253 73.5769 83.3065 73.0262C83.4475 72.628 83.5622 72.221 83.6498 71.8077C83.7175 71.5031 83.7465 71.3242 83.7465 71.3242C83.7839 71.9207 83.7384 72.5196 83.6111 73.1035C83.5519 73.3918 83.4695 73.6748 83.3645 73.9497C83.2434 74.2678 83.0809 74.5686 82.881 74.8442C82.78 74.9947 82.6633 75.1341 82.5329 75.26C82.403 75.3999 82.255 75.5219 82.0929 75.6227C81.9204 75.7311 81.7373 75.8218 81.5465 75.8934C81.4547 75.9224 81.3725 75.9321 81.2854 75.9563L81.1597 75.9853H81.092H80.9953C80.5878 76.0237 80.1781 75.9377 79.8204 75.7387C79.4929 75.5403 79.219 75.2647 79.0226 74.9361C78.7113 74.3882 78.5078 73.7859 78.423 73.1616C78.3565 72.7329 78.3258 72.2995 78.3312 71.8658C78.3351 71.699 78.3497 71.5327 78.3747 71.3677Z" fill="#1C171E"/>
<path d="M72.4469 71.4648C72.4179 71.8468 72.3695 72.2191 72.326 72.5914C72.2825 72.9637 72.2341 73.3409 72.181 73.7132C72.0697 74.4578 71.944 75.1976 71.8086 75.9373C71.7458 76.3097 71.6684 76.6771 71.5959 77.0446C71.5234 77.4121 71.4509 77.7844 71.3687 78.147C71.2139 78.8819 71.0399 79.5976 70.861 80.347L70.6434 80.0327C71.2139 80.1488 71.7845 80.2648 72.3502 80.3905C72.6355 80.4534 72.9159 80.5307 73.1963 80.5984C73.4768 80.6661 73.762 80.7386 74.0425 80.8208C73.7524 80.8208 73.4623 80.8208 73.1722 80.7773C72.882 80.7338 72.5871 80.7435 72.3018 80.7193C71.7216 80.6758 71.1414 80.6129 70.566 80.5501C70.5001 80.5428 70.4397 80.5097 70.3981 80.4581C70.3564 80.4065 70.3368 80.3405 70.3436 80.2745V80.2406C70.4742 79.496 70.6047 78.7562 70.7594 78.0213C70.8271 77.6538 70.9093 77.2864 70.9915 76.9189C71.0737 76.5514 71.1462 76.1839 71.2381 75.8213C71.4073 75.0864 71.5862 74.3708 71.7845 73.631C71.886 73.2684 71.9875 72.9057 72.0988 72.5479C72.21 72.1901 72.3212 71.8226 72.4469 71.4648Z" fill="#54201C"/>
<path d="M72.2439 83.4182C72.2439 83.4182 77.3691 88.5483 82.4992 82.8477L72.2439 83.4182Z" fill="white"/>
<path d="M93.3152 77.6611C93.5176 77.4653 93.6962 77.2462 93.8471 77.0084C93.9185 76.897 93.9708 76.7744 94.0018 76.6458C94.013 76.5867 94.013 76.526 94.0018 76.4669C94.0048 76.409 93.9949 76.3512 93.9728 76.2976C93.9728 76.2444 93.9245 76.2009 93.9003 76.1526C93.8761 76.1042 93.8229 76.0704 93.7842 76.0317C93.7434 75.986 93.6919 75.9512 93.6343 75.9302L93.4748 75.8383L93.2862 75.7754C93.2277 75.7473 93.166 75.7262 93.1025 75.7126L92.706 75.6159C92.6559 75.6044 92.6109 75.577 92.5778 75.5378C92.5447 75.4985 92.5252 75.4496 92.5223 75.3983C92.4981 74.9602 92.4981 74.5212 92.5223 74.0831C92.5419 73.6437 92.5904 73.206 92.6673 72.7728C92.7393 72.327 92.866 71.8918 93.0445 71.477C93.1367 71.2572 93.2552 71.0494 93.3974 70.8581C93.5451 70.6505 93.7345 70.4759 93.9535 70.3456C94.1838 70.216 94.4435 70.1477 94.7077 70.1473C94.7802 70.1436 94.8528 70.1436 94.9253 70.1473L95.0849 70.1812C95.1996 70.1973 95.3117 70.2282 95.4185 70.2731C95.6518 70.3635 95.8621 70.5044 96.0343 70.6859C96.2065 70.8673 96.3364 71.0846 96.4145 71.3223C96.5559 71.7537 96.6037 72.2103 96.5548 72.6616C96.522 73.0964 96.4342 73.5253 96.2937 73.9381C96.3403 73.5142 96.3484 73.087 96.3178 72.6616C96.2945 72.2549 96.1996 71.8555 96.0374 71.4818C95.9665 71.3173 95.8619 71.1695 95.7303 71.0479C95.5987 70.9263 95.4431 70.8336 95.2735 70.7759C95.1811 70.7439 95.0854 70.7228 94.9882 70.713H94.8286H94.7223C94.5503 70.7173 94.3829 70.7691 94.2387 70.8629C93.9429 71.082 93.7177 71.3829 93.5908 71.7284C93.4396 72.1051 93.3247 72.4952 93.2475 72.8937C93.098 73.7174 93.014 74.5517 92.9961 75.3886L92.8075 75.1565L93.233 75.2968C93.3056 75.3233 93.3767 75.3539 93.4458 75.3886L93.6489 75.4902L93.8471 75.6304C94.0606 75.7751 94.2097 75.9969 94.2629 76.2493C94.2798 76.3339 94.2798 76.421 94.2629 76.5055C94.253 76.586 94.2301 76.6644 94.1952 76.7376C94.135 76.8779 94.0516 77.007 93.9486 77.1196C93.7692 77.3342 93.5551 77.5173 93.3152 77.6611Z" fill="#54201C"/>
<path d="M75.7395 69.5376C75.7675 69.3525 75.8095 69.1699 75.8652 68.9912C76.0091 68.5139 76.2173 68.0585 76.4841 67.6374C76.8756 67.0106 77.3965 66.4749 78.012 66.066C78.3805 65.8239 78.783 65.6381 79.2063 65.5148C79.6545 65.3897 80.1193 65.3343 80.5843 65.3504C81.0402 65.3803 81.4895 65.4748 81.9188 65.6308C82.123 65.6977 82.3204 65.7835 82.5087 65.8871C82.6956 65.9757 82.8751 66.0792 83.0454 66.1965C83.2149 66.2987 83.3765 66.4135 83.5289 66.5398C83.6754 66.6532 83.8158 66.7743 83.9496 66.9024L84.3122 67.2699L84.6216 67.6422C84.7969 67.8575 84.9584 68.0836 85.1052 68.3191C85.2244 68.4959 85.3294 68.6819 85.4194 68.8752C85.5077 69.0399 85.5868 69.2094 85.6564 69.3829C85.6564 69.3829 85.4726 69.2813 85.1729 69.0976L84.6507 68.7688C84.4476 68.6431 84.23 68.498 83.9834 68.3578C83.7368 68.2176 83.4999 68.0532 83.205 67.9081C83.0744 67.8259 82.9294 67.7583 82.7843 67.6857C82.6392 67.6132 82.499 67.5358 82.3491 67.4827C82.0541 67.3482 81.7484 67.2382 81.4353 67.1539C81.1322 67.0695 80.821 67.0176 80.5069 66.9991C80.2025 66.9862 79.8977 67.0073 79.5979 67.062C79.2987 67.1281 79.0059 67.2203 78.7228 67.3376C78.1799 67.5872 77.6686 67.9005 77.1997 68.2708C76.7597 68.5996 76.4019 68.9284 76.1457 69.1604L75.7395 69.5376Z" fill="#1C171E"/>
<path d="M71.209 69.3296L70.8609 69.0056C70.6385 68.8026 70.3338 68.5221 69.9664 68.2078C69.5762 67.8675 69.1608 67.5572 68.7237 67.2795C68.4986 67.1411 68.2625 67.0215 68.0178 66.9217C67.5594 66.7312 67.062 66.6533 66.5673 66.6945L66.1901 66.7476C66.0644 66.7863 65.9387 66.8057 65.813 66.8443C65.5664 66.9169 65.3295 67.0184 65.0781 67.1151C64.8266 67.2118 64.5945 67.323 64.406 67.4439C63.9756 67.6566 63.6082 67.8646 63.3471 68.0096C63.2076 68.0912 63.064 68.1655 62.9167 68.232C62.9721 68.0807 63.035 67.9322 63.1053 67.7872C63.1814 67.6185 63.272 67.4567 63.3761 67.3037C63.4979 67.0942 63.637 66.8953 63.7919 66.709C63.9758 66.4801 64.1797 66.2682 64.4011 66.0756C64.6605 65.8547 64.9425 65.6618 65.2424 65.5002C65.5826 65.3189 65.9475 65.1886 66.3255 65.1134C66.7337 65.0455 67.1503 65.0455 67.5585 65.1134C67.9611 65.1828 68.3508 65.3132 68.7141 65.5002C69.0481 65.6758 69.357 65.8953 69.6327 66.1529C70.0897 66.585 70.4648 67.0961 70.74 67.6615C70.9244 68.0489 71.0639 68.456 71.1558 68.8751C71.1866 69.0248 71.2044 69.1768 71.209 69.3296Z" fill="#1C171E"/>
<path d="M66.9253 96.9056C66.9253 96.9056 64.0242 112.228 75.2804 113.427C89.5247 114.946 93.3251 96.5043 93.3251 96.5043C93.3251 96.5043 101.492 90.2186 107.376 97.4713C113.26 104.724 105.481 135.645 99.5914 143.047L55.3403 140.199C55.3403 140.199 45.2783 92.9166 66.9253 96.9056Z" fill="#FFA65B"/>
<path d="M107.376 97.4744C105.582 95.2745 103.575 94.3316 101.656 94.0898C100.926 99.3795 96.6031 104.132 92.9526 107.628C88.3447 112.009 83.205 115.582 77.2771 117.951C69.5409 121.046 61.3889 122.448 53.1885 123.594C53.5408 129.18 54.2661 134.737 55.3595 140.227L99.6106 143.075C105.48 135.648 113.265 104.688 107.376 97.4744Z" fill="#EF924D"/>
<path d="M109.349 103.19L109.431 105.791V108.402L109.339 111.008L109.155 113.61L108.884 116.206L108.522 118.793L108.038 121.36L107.502 123.908L106.854 126.442L106.124 128.947L105.302 131.427L104.402 133.883L103.435 136.301L102.371 138.685L101.23 141.039L100.017 143.355L99.9394 143.496H99.775C96.0745 143.205 92.3676 142.902 88.6542 142.587L77.5575 141.673L72.0116 141.271L66.4561 140.943L60.8957 140.725L55.3353 140.638H55.1225L55.0935 140.425C54.6584 137.229 54.1265 134.038 53.6962 130.837C53.2658 127.636 52.85 124.416 52.6856 121.167C52.6421 120.359 52.6131 119.547 52.6034 118.749C52.5937 117.952 52.6034 117.13 52.6034 116.332C52.6034 115.534 52.6856 114.717 52.7533 113.914L52.879 112.705L53.0386 111.501L53.2368 110.302L53.4737 109.113L53.759 107.933L54.083 106.763L54.4504 105.607L54.8614 104.466L55.3449 103.345L55.8285 102.242L55.3449 103.349L54.9098 104.481L54.5181 105.627L54.17 106.787L53.8654 107.957L53.6043 109.137L53.3867 110.327L53.2126 111.526L53.0724 112.725L52.9709 113.929C52.9177 114.736 52.8839 115.539 52.8645 116.346C52.8452 117.154 52.8645 117.956 52.8645 118.764C52.8645 119.571 52.9225 120.374 52.9709 121.181C53.174 124.402 53.5946 127.602 54.0733 130.794C54.552 133.985 55.1129 137.171 55.5529 140.382L55.3063 140.169L60.8812 140.237L66.4512 140.435L72.0165 140.744L77.572 141.131C81.2758 141.421 84.9827 141.734 88.6929 142.069C92.403 142.404 96.1003 142.727 99.7847 143.036L99.5477 143.167L100.761 140.87L101.902 138.535L102.976 136.165L103.977 133.748L104.9 131.33L105.737 128.869L106.491 126.379L107.158 123.87L107.738 121.331L108.222 118.778L108.633 116.211L108.952 113.624L109.179 111.032L109.315 108.431L109.368 105.83L109.349 103.19Z" fill="#DD7128"/>
<path d="M32.8375 102.792C32.8375 102.792 0.645136 101.366 0.359863 69.7539C0.359863 69.7539 33.1227 69.7539 32.8375 102.792Z" fill="#5D8584"/>
<path d="M35.6855 80.0015C35.6855 80.0015 16.3159 65.7572 25.1449 39.5508C25.1449 39.5508 47.6476 52.3494 35.6855 80.0015Z" fill="#5D8584"/>
<path d="M42.8074 86.5531C42.8074 86.5531 33.4079 56.643 52.2069 37.2734C52.2069 37.2734 64.1739 58.6351 42.8074 86.5531Z" fill="#5D8584"/>
<path d="M45.3701 105.356C45.3701 105.356 41.0958 82.2824 61.326 79.4297C61.3212 79.4249 60.4702 101.081 45.3701 105.356Z" fill="#5D8584"/>
<path d="M8.04761 75.4452C8.04761 75.4452 37.6725 91.6816 39.6694 130.421C39.6694 130.421 40.5252 81.141 29.4141 50.375" stroke="#396666" stroke-width="2.36" stroke-linecap="round" stroke-linejoin="round"/>
<path d="M49.3592 49.5195C49.3592 49.5195 38.5333 99.6551 41.6665 125.866C41.6665 125.866 40.245 104.785 55.055 89.3997" stroke="#396666" stroke-width="2.36" stroke-linecap="round" stroke-linejoin="round"/>
<path d="M24.8838 116.773L29.4772 146.47H55.3935L59.982 115.211L24.8838 116.773Z" fill="#FC6A5A"/>
<path d="M58.5168 125.205L59.9673 115.211L24.8643 116.773L25.9908 124.025C36.8409 124.581 47.6958 124.944 58.5168 125.205Z" fill="#EA4134"/>
<path d="M62.9361 111.145H19.6375V119.272H62.9361V111.145Z" fill="#FC6A5A"/>
<path d="M104.339 116.467C104.339 116.467 93.5134 150.932 87.2471 153.499C80.9808 156.066 57.337 134.695 57.337 134.695C57.337 134.695 32.9679 140.154 52.8451 133.438C52.8451 133.438 31.9815 136.692 52.2069 131.277C52.2069 131.277 35.6852 133.559 51.9216 128.999C51.9216 128.999 32.5521 129.57 57.6222 126.151C57.6222 126.151 45.9406 115.611 60.1849 125.866L81.8318 138.413C81.8318 138.413 91.502 101.096 95.5055 99.6694C99.509 98.243 104.339 116.467 104.339 116.467Z" fill="#965450"/>
<path d="M86.8267 121.492C89.9545 123.756 93.4096 125.528 97.0724 126.748C98.2086 127.12 99.3497 127.444 100.5 127.715C102.778 121.43 104.34 116.449 104.34 116.449C104.34 116.449 99.5044 98.2161 95.5058 99.6376C93.388 100.397 89.6601 111.29 86.6333 121.328L86.8267 121.492Z" fill="#76413B"/>
<path d="M88.4801 114.754L81.9624 138.446C81.9579 138.463 81.9501 138.479 81.9393 138.493C81.9286 138.507 81.9151 138.518 81.8998 138.527C81.8844 138.536 81.8675 138.541 81.85 138.543C81.8325 138.545 81.8148 138.543 81.798 138.538H81.769L60.0737 126.054C59.0584 125.328 58.0381 124.603 57.0083 123.902C55.9784 123.201 54.9437 122.5 53.8703 121.91C53.7349 121.837 53.5995 121.77 53.4689 121.712C53.4079 121.684 53.3449 121.662 53.2804 121.644H53.232C53.232 121.644 53.232 121.644 53.2804 121.644C53.326 121.619 53.3605 121.577 53.3771 121.528C53.3771 121.451 53.3771 121.475 53.3771 121.489C53.3864 121.513 53.3977 121.535 53.4109 121.557C53.4462 121.617 53.485 121.675 53.527 121.731C53.614 121.847 53.7107 121.963 53.8074 122.079C54.2087 122.538 54.6439 122.983 55.0887 123.418C55.9735 124.294 56.8874 125.145 57.8061 125.981C57.8315 126.005 57.8518 126.035 57.8656 126.067C57.8794 126.1 57.8866 126.134 57.8866 126.17C57.8866 126.205 57.8794 126.24 57.8656 126.272C57.8518 126.305 57.8315 126.334 57.8061 126.358C57.7651 126.405 57.7081 126.434 57.6465 126.44C55.9639 126.673 54.2845 126.916 52.6083 127.171C50.9353 127.427 49.2575 127.698 47.6039 128.026C47.1881 128.109 46.7771 128.2 46.371 128.297C45.9704 128.383 45.5775 128.501 45.196 128.65C45.1322 128.674 45.072 128.706 45.0171 128.747C45.0171 128.747 45.0171 128.747 45.051 128.674C45.0556 128.646 45.0542 128.617 45.0466 128.59C45.0391 128.562 45.0258 128.537 45.0075 128.515C44.9784 128.481 45.0075 128.515 45.0365 128.515C45.2162 128.57 45.4008 128.609 45.5877 128.631C45.9938 128.684 46.4145 128.708 46.8351 128.727C48.5178 128.8 50.2197 128.776 51.9024 128.727C51.971 128.728 52.0372 128.753 52.0891 128.798C52.141 128.844 52.1752 128.906 52.1856 128.973C52.196 129.041 52.1821 129.111 52.1461 129.169C52.1102 129.228 52.0547 129.272 51.9894 129.293C50.7709 129.636 49.5718 129.989 48.3534 130.371C47.7538 130.565 47.1543 130.763 46.5692 130.981C46.2743 131.087 45.9842 131.203 45.7037 131.329C45.5667 131.388 45.4327 131.454 45.3024 131.527C45.2421 131.558 45.1839 131.594 45.1283 131.633C45.08 131.662 45.0316 131.72 45.051 131.696C45.0642 131.669 45.0711 131.639 45.0711 131.609C45.0711 131.579 45.0642 131.549 45.051 131.522C45.0123 131.464 45.0026 131.474 45.0123 131.479C45.0624 131.497 45.1142 131.51 45.167 131.517C45.3092 131.542 45.453 131.557 45.5973 131.561C45.902 131.561 46.2114 131.561 46.5257 131.561C47.1494 131.561 47.778 131.488 48.4017 131.435C49.6589 131.319 50.916 131.169 52.1683 131C52.2078 130.994 52.2481 130.996 52.2869 131.006C52.3256 131.016 52.3619 131.033 52.3935 131.058C52.4252 131.082 52.4515 131.113 52.471 131.148C52.4905 131.183 52.5026 131.221 52.5067 131.261C52.5163 131.334 52.4991 131.408 52.4582 131.47C52.4173 131.531 52.3555 131.575 52.2843 131.595C50.7613 132.006 49.243 132.421 47.7345 132.871C46.9802 133.098 46.2259 133.33 45.4861 133.582C45.1187 133.708 44.7512 133.838 44.3934 133.983C44.2193 134.056 44.0404 134.133 43.9099 134.215C43.8393 134.252 43.7715 134.294 43.7068 134.341C43.6681 134.389 43.7068 134.341 43.7068 134.341C43.721 134.311 43.7284 134.278 43.7284 134.244C43.7284 134.211 43.721 134.178 43.7068 134.148C43.6681 134.08 43.6488 134.075 43.6391 134.07C43.6294 134.065 43.7261 134.094 43.8035 134.104H44.0743H44.6448C45.0268 134.104 45.4184 134.065 45.8101 134.032C46.5885 133.969 47.3718 133.882 48.1551 133.79C49.7169 133.606 51.2786 133.389 52.8355 133.152C52.9083 133.144 52.9812 133.164 53.0409 133.206C53.1006 133.248 53.1432 133.31 53.1608 133.381C53.1784 133.452 53.1699 133.527 53.1368 133.593C53.1037 133.658 53.0483 133.709 52.9806 133.737C51.3221 134.298 49.6637 134.868 48.0342 135.492C47.6281 135.647 47.2219 135.811 46.8255 135.975C46.429 136.14 46.0277 136.323 45.6699 136.522C45.5842 136.569 45.5018 136.623 45.4233 136.681C45.3963 136.699 45.3719 136.72 45.3508 136.744C45.3508 136.744 45.3508 136.744 45.3508 136.705C45.3579 136.672 45.3573 136.637 45.3489 136.603C45.3405 136.57 45.3246 136.538 45.3024 136.512C45.2347 136.449 45.2637 136.483 45.3024 136.483C45.3426 136.486 45.3831 136.486 45.4233 136.483H45.7231C46.1389 136.483 46.574 136.425 46.9995 136.372C48.7257 136.145 50.447 135.821 52.1635 135.487C53.8799 135.153 55.5964 134.786 57.3032 134.414C57.3471 134.403 57.3929 134.403 57.4368 134.414C57.4806 134.425 57.5211 134.446 57.5546 134.476C59.9287 136.604 62.3656 138.673 64.8412 140.69C67.3168 142.706 69.8407 144.664 72.4227 146.535C74.9887 148.428 77.6835 150.138 80.4877 151.656C81.8729 152.416 83.3523 152.99 84.8876 153.362C85.6284 153.554 86.4071 153.54 87.1408 153.324C87.8402 152.996 88.4567 152.516 88.9443 151.917C89.9655 150.703 90.8659 149.393 91.6327 148.005C92.4208 146.622 93.1509 145.201 93.8375 143.76C95.2203 140.883 96.4775 137.958 97.6717 134.979C100.055 129.047 102.207 123.022 104.209 116.949C102.275 123.046 100.191 129.095 97.8748 135.061C96.7095 138.04 95.4911 140.999 94.1276 143.9C93.4458 145.351 92.7254 146.777 91.9373 148.179C91.1695 149.597 90.2625 150.935 89.2296 152.173C88.7082 152.82 88.047 153.341 87.2955 153.696C86.8962 153.841 86.473 153.91 86.0481 153.899C85.6337 153.897 85.2206 153.854 84.8151 153.769C83.2383 153.399 81.7179 152.82 80.2943 152.047C78.8437 151.322 77.4802 150.495 76.1215 149.63C74.7629 148.764 73.4477 147.865 72.1422 146.937C69.5264 145.08 66.9976 143.117 64.5076 141.101C62.0175 139.084 59.5806 137.02 57.1872 134.883L57.4338 134.95C55.7221 135.334 54.0056 135.696 52.2843 136.038C50.5582 136.377 48.8369 136.71 47.0817 136.942C46.6375 137.004 46.1905 137.042 45.7424 137.058C45.6232 137.066 45.5038 137.066 45.3846 137.058L45.1815 137.029C45.0653 137.008 44.9588 136.95 44.8769 136.865C44.8381 136.818 44.8109 136.762 44.7975 136.703C44.7841 136.643 44.7848 136.581 44.7995 136.522C44.8214 136.455 44.8541 136.393 44.8962 136.338C44.9475 136.281 45.0041 136.229 45.0655 136.183C45.1637 136.11 45.2671 136.044 45.3749 135.985C45.7695 135.768 46.1763 135.574 46.5934 135.405C46.9995 135.231 47.4105 135.066 47.8215 134.921C49.4655 134.288 51.1239 133.712 52.7872 133.147L52.9274 133.737C51.3673 133.978 49.8007 134.196 48.2277 134.389C47.4395 134.486 46.6514 134.573 45.8584 134.636C45.462 134.67 45.0655 134.699 44.6642 134.713C44.4611 134.713 44.258 134.713 44.0501 134.713C43.9437 134.713 43.8374 134.713 43.7261 134.689C43.5865 134.678 43.4503 134.64 43.3248 134.578C43.2497 134.534 43.1879 134.47 43.1459 134.394C43.122 134.342 43.1096 134.285 43.1096 134.227C43.1096 134.17 43.122 134.113 43.1459 134.061C43.1892 133.969 43.2539 133.89 43.3345 133.829C43.4291 133.758 43.5293 133.694 43.6343 133.64C43.8277 133.538 44.0114 133.461 44.2 133.384C44.5771 133.229 44.9543 133.098 45.3314 132.968C46.0857 132.712 46.8448 132.484 47.6039 132.257C49.1222 131.807 50.6452 131.392 52.1731 130.985L52.294 131.575C51.0304 131.743 49.7668 131.886 48.5033 132.006C47.865 132.064 47.2316 132.107 46.5692 132.131C46.2453 132.131 45.9261 132.131 45.6022 132.131C45.4304 132.125 45.2592 132.107 45.0897 132.078C44.9865 132.059 44.886 132.028 44.7899 131.986C44.6992 131.946 44.6232 131.878 44.5723 131.793C44.5375 131.732 44.5193 131.663 44.5193 131.592C44.5193 131.522 44.5375 131.453 44.5723 131.392C44.6384 131.286 44.7257 131.196 44.8286 131.126C44.9026 131.074 44.9802 131.027 45.0606 130.985C45.2105 130.903 45.3604 130.831 45.5103 130.763C45.8101 130.632 46.1099 130.516 46.4096 130.405C47.0092 130.183 47.6184 129.985 48.2228 129.791C49.4364 129.409 50.6404 129.056 51.8782 128.718L51.9652 129.279C50.2584 129.317 48.5806 129.337 46.8496 129.279C46.4242 129.279 45.9938 129.23 45.5587 129.172C45.3246 129.147 45.0942 129.095 44.8721 129.018C44.7776 128.986 44.6928 128.931 44.6255 128.858C44.5897 128.817 44.5638 128.768 44.5495 128.715C44.5353 128.662 44.5332 128.607 44.5433 128.553C44.5572 128.473 44.5961 128.398 44.6545 128.341C44.7599 128.244 44.883 128.168 45.0171 128.118C45.4294 127.96 45.8528 127.832 46.2839 127.736C46.6998 127.635 47.1204 127.548 47.5362 127.465C49.214 127.137 50.8918 126.871 52.5696 126.614C54.2474 126.358 55.9542 126.131 57.6175 125.894L57.4773 126.378C56.5489 125.531 55.6351 124.676 54.7454 123.786C54.3054 123.341 53.8654 122.891 53.4496 122.408C53.3432 122.282 53.2417 122.161 53.145 122.026C53.0483 121.891 53.0483 121.886 52.9999 121.804C52.9762 121.76 52.9552 121.715 52.9371 121.668C52.8969 121.584 52.8867 121.488 52.9081 121.397C52.921 121.354 52.9426 121.313 52.9717 121.278C53.0008 121.243 53.0367 121.215 53.0773 121.194C53.1284 121.169 53.1849 121.158 53.2417 121.16C53.302 121.162 53.362 121.17 53.4206 121.185C53.5075 121.211 53.5931 121.241 53.6769 121.276C53.8316 121.344 53.9766 121.417 54.1168 121.494C55.2289 122.118 56.254 122.829 57.2887 123.539C58.3234 124.25 59.334 124.99 60.3493 125.715L81.9527 138.33L81.7593 138.407L88.4801 114.754Z" fill="#54201C"/>
<path d="M84.6846 116.747C84.6846 116.747 90.9702 91.6814 102.628 93.9588C114.285 96.2361 105.761 119.029 103.769 124.154C96.7856 123.759 90.106 121.166 84.6846 116.747Z" fill="#FFA65B"/>
<path d="M102.628 93.9609L103.653 94.2075L104.62 94.5992C104.92 94.7829 105.239 94.9425 105.524 95.1504L105.935 95.4888L106.143 95.6532L106.322 95.8515C106.575 96.1012 106.803 96.3749 107.003 96.6686L107.308 97.1086L107.555 97.5921C107.724 97.9023 107.868 98.2257 107.985 98.5592C108.115 98.8886 108.223 99.2262 108.309 99.5697C108.492 100.256 108.619 100.956 108.691 101.663C108.739 102.016 108.749 102.369 108.773 102.722C108.797 103.075 108.802 103.428 108.802 103.781C108.802 104.134 108.802 104.487 108.802 104.84C108.802 105.193 108.802 105.551 108.744 105.899C108.701 106.605 108.618 107.306 108.536 108.007C108.454 108.708 108.338 109.404 108.207 110.101C108.077 110.797 107.946 111.483 107.792 112.17C107.487 113.548 107.129 114.912 106.738 116.265C105.954 118.973 105.04 121.637 104.025 124.263L103.957 124.446H103.783C102.903 124.422 102.025 124.346 101.153 124.219C100.723 124.147 100.287 124.089 99.862 124.002C99.4365 123.915 99.0014 123.847 98.5759 123.736C98.1504 123.625 97.7249 123.547 97.3042 123.421C96.8836 123.296 96.4629 123.189 96.0423 123.064L94.7996 122.653C94.3886 122.512 93.9825 122.343 93.5715 122.193C93.1605 122.043 92.764 121.865 92.3627 121.686C91.9614 121.507 91.5601 121.347 91.1733 121.144L89.9887 120.525C89.597 120.337 89.2296 120.095 88.8476 119.882C88.4656 119.669 88.0836 119.457 87.7307 119.205L86.6428 118.47C86.2753 118.233 85.9368 117.958 85.5935 117.692L84.5588 116.889L84.4573 116.812L84.4911 116.686C84.6604 116.072 84.8296 115.468 85.023 114.863C85.2164 114.259 85.4001 113.659 85.608 113.06C85.8159 112.46 86.019 111.865 86.2414 111.276C86.4639 110.686 86.6766 110.086 86.928 109.506L87.663 107.76C87.7838 107.465 87.9289 107.185 88.0594 106.9L88.4656 106.044L88.8718 105.188C89.0168 104.908 89.1715 104.632 89.3214 104.352L90.2353 102.693L89.3891 104.385L88.9685 105.232L88.5865 106.097L88.2093 106.963C88.0885 107.253 87.9482 107.538 87.837 107.833L87.1553 109.593C86.9184 110.178 86.7395 110.782 86.5219 111.372C86.3043 111.962 86.1109 112.562 85.9223 113.161C85.7337 113.761 85.5452 114.365 85.3711 114.97C85.1971 115.574 85.0278 116.178 84.8876 116.783L84.8199 116.585L85.8546 117.353C86.2028 117.61 86.5364 117.88 86.9087 118.103L87.9918 118.809C88.3447 119.05 88.7315 119.239 89.099 119.461C89.4665 119.684 89.8388 119.906 90.2304 120.09L91.3812 120.67C91.7632 120.868 92.1693 121.018 92.561 121.197C92.9526 121.376 93.3491 121.545 93.7552 121.681C94.1614 121.816 94.5579 121.99 94.964 122.13L96.1921 122.527C96.608 122.653 97.0238 122.754 97.4348 122.875C97.8458 122.996 98.2712 123.073 98.6919 123.175C99.1126 123.276 99.5332 123.344 99.9539 123.431C100.375 123.518 100.805 123.566 101.226 123.634C102.077 123.741 102.942 123.832 103.778 123.857L103.517 124.035C104.542 121.429 105.451 118.785 106.259 116.096C106.655 114.757 107.018 113.403 107.332 112.04C107.487 111.358 107.632 110.676 107.767 109.989C107.903 109.303 108.019 108.616 108.13 107.925C108.241 107.233 108.314 106.542 108.372 105.846C108.415 105.498 108.425 105.149 108.444 104.801C108.464 104.453 108.483 104.105 108.483 103.757C108.483 103.409 108.483 103.061 108.483 102.713C108.483 102.364 108.483 102.016 108.42 101.668C108.361 100.976 108.251 100.289 108.091 99.6132C108.018 99.2738 107.923 98.9395 107.806 98.6123C107.7 98.2805 107.569 97.9572 107.414 97.6453L107.182 97.1618L106.902 96.7266C106.717 96.4338 106.503 96.16 106.264 95.9095L106.09 95.7113L105.891 95.542L105.5 95.2036C105.229 94.986 104.915 94.8264 104.625 94.633C104.335 94.4396 103.986 94.3429 103.658 94.2075L102.628 93.9609Z" fill="#DD7128"/>
<path d="M22.2485 129.813C22.2485 129.813 19.6714 124.151 21.2815 122.797C22.8916 121.444 37.542 122.701 25.019 124.765C25.019 124.765 46.9125 123.45 26.4212 127.323C26.4212 127.323 43.7697 125.612 27.4608 129.17C27.4608 129.17 41.2989 128.58 27.1755 131.046L27.8476 135.398C27.8476 135.398 26.5324 136.964 22.2485 129.813Z" fill="#965450"/>
<path d="M22.2486 129.811C21.8627 128.992 21.5252 128.15 21.238 127.292C20.9382 126.424 20.7434 125.523 20.6578 124.608C20.613 124.136 20.6759 123.66 20.8415 123.216C20.9415 122.979 21.1098 122.777 21.3251 122.635C21.5365 122.513 21.7645 122.422 22.002 122.365C22.9045 122.17 23.8252 122.073 24.7483 122.075C25.6666 122.058 26.585 122.091 27.4995 122.176C27.983 122.224 28.4182 122.282 28.8727 122.374C29.105 122.42 29.3343 122.479 29.5593 122.553C29.6799 122.596 29.7978 122.646 29.9123 122.703C30.0594 122.777 30.1795 122.895 30.2556 123.042C30.2782 123.095 30.2898 123.153 30.2898 123.211C30.2898 123.269 30.2782 123.326 30.2556 123.38C30.2213 123.464 30.1703 123.539 30.1057 123.602C30.0065 123.695 29.896 123.775 29.7769 123.839C29.5638 123.952 29.3423 124.047 29.1145 124.125C28.6745 124.279 28.2296 124.4 27.78 124.511C26.8855 124.739 25.9861 124.893 25.0868 125.053L25.0239 124.511C26.6437 124.415 28.2586 124.342 29.8591 124.304C30.6714 124.304 31.4788 124.27 32.2766 124.304C32.6828 124.304 33.0889 124.304 33.4999 124.342C33.9202 124.359 34.3387 124.406 34.7522 124.482C34.8712 124.505 34.9878 124.539 35.1004 124.584L35.1971 124.632C35.2396 124.66 35.28 124.691 35.3179 124.724C35.3733 124.776 35.4149 124.841 35.4388 124.913C35.4666 124.999 35.4666 125.092 35.4388 125.179C35.368 125.336 35.245 125.464 35.0907 125.541C34.9843 125.604 34.8828 125.648 34.7812 125.696C34.3963 125.854 34.0023 125.99 33.6015 126.102C32.8133 126.334 32.0204 126.518 31.2274 126.697C29.6463 127.05 28.0556 127.355 26.46 127.664L26.3778 127.084C27.6639 126.968 28.9501 126.866 30.2459 126.789C30.889 126.75 31.5369 126.716 32.1799 126.702C32.5039 126.702 32.8278 126.702 33.147 126.702C33.4836 126.7 33.8198 126.725 34.1527 126.774C34.2546 126.789 34.3539 126.818 34.4476 126.861C34.4984 126.881 34.5446 126.911 34.5836 126.95C34.6226 126.988 34.6537 127.033 34.6749 127.084C34.6963 127.149 34.699 127.219 34.6828 127.285C34.6666 127.352 34.632 127.413 34.583 127.461C34.4343 127.593 34.2621 127.697 34.0753 127.765C33.7562 127.891 33.4467 127.988 33.1373 128.085C32.5087 128.268 31.885 128.428 31.2564 128.568C29.9993 128.868 28.7422 129.139 27.4802 129.405L27.4318 129.018C28.4956 128.989 29.5593 128.974 30.6279 128.989C31.1597 128.989 31.6964 129.013 32.2283 129.056C32.4974 129.074 32.7653 129.107 33.0309 129.153C33.1738 129.174 33.3135 129.213 33.4467 129.269C33.4917 129.291 33.5326 129.321 33.5676 129.356C33.5943 129.384 33.6125 129.419 33.6202 129.456C33.6279 129.494 33.6248 129.533 33.6111 129.569C33.5679 129.652 33.4981 129.719 33.4129 129.758C33.1676 129.88 32.9099 129.976 32.6441 130.043C32.383 130.12 32.1268 130.178 31.8657 130.241C31.3435 130.362 30.8261 130.463 30.2991 130.565C29.2547 130.763 28.2055 130.928 27.1562 131.087C28.1958 130.884 29.2402 130.667 30.2749 130.439C30.7923 130.323 31.3096 130.202 31.8221 130.067C32.0784 129.999 32.3347 129.927 32.5813 129.845C32.8292 129.775 33.0691 129.68 33.2969 129.559C33.3318 129.539 33.3629 129.513 33.3887 129.482C33.3887 129.482 33.3887 129.525 33.3887 129.516L33.3452 129.492C33.2308 129.451 33.1125 129.422 32.9922 129.405C32.736 129.371 32.4749 129.351 32.2089 129.337C31.6868 129.337 31.1549 129.313 30.6279 129.337C29.569 129.337 28.5052 129.376 27.4463 129.429C27.3998 129.427 27.3553 129.409 27.3208 129.378C27.2862 129.346 27.2638 129.304 27.2575 129.258C27.2511 129.212 27.2612 129.165 27.2861 129.125C27.3109 129.086 27.3488 129.056 27.3932 129.042C28.6455 128.752 29.8978 128.457 31.1355 128.133C31.7593 127.969 32.3733 127.799 32.9826 127.606C33.2823 127.509 33.5821 127.408 33.8626 127.287C33.9767 127.241 34.0853 127.183 34.1865 127.113C34.1865 127.113 34.1285 127.151 34.1865 127.272C34.2445 127.393 34.2494 127.345 34.23 127.345C34.177 127.325 34.1218 127.312 34.0656 127.306C33.7614 127.262 33.4543 127.241 33.147 127.243H32.1799C31.5417 127.243 30.9035 127.296 30.2459 127.34C28.9694 127.427 27.6881 127.533 26.4116 127.664C26.3393 127.666 26.2687 127.641 26.2135 127.594C26.1582 127.548 26.1221 127.482 26.1119 127.41C26.1018 127.339 26.1183 127.266 26.1584 127.206C26.1985 127.145 26.2594 127.102 26.3294 127.084C27.9153 126.779 29.4964 126.46 31.0679 126.117C31.856 125.933 32.6344 125.74 33.4032 125.527C33.7805 125.422 34.1518 125.296 34.5153 125.15C34.5966 125.116 34.6757 125.077 34.7522 125.034C34.8199 125.009 34.8876 124.918 34.8441 124.99C34.8006 125.063 34.8199 125.072 34.8441 125.111C34.8455 125.124 34.8497 125.137 34.8563 125.149C34.863 125.161 34.872 125.171 34.8828 125.179H34.8489C34.7725 125.147 34.6932 125.122 34.612 125.106C34.2302 125.037 33.8441 124.993 33.4564 124.976C33.0599 124.947 32.6586 124.937 32.2573 124.927C31.4547 124.927 30.6472 124.927 29.8397 124.927C28.2296 124.961 26.6147 125.024 25.0046 125.106C24.969 125.108 24.9334 125.103 24.8998 125.091C24.8662 125.079 24.8353 125.061 24.8088 125.037C24.7823 125.013 24.7607 124.985 24.7454 124.953C24.73 124.92 24.7212 124.885 24.7193 124.85C24.7181 124.784 24.7403 124.72 24.7818 124.668C24.8234 124.617 24.8817 124.582 24.9466 124.569C25.8411 124.424 26.7356 124.26 27.6156 124.086C28.0507 123.984 28.4907 123.873 28.9065 123.738C29.1109 123.671 29.3097 123.589 29.5013 123.491C29.5837 123.452 29.6602 123.402 29.7285 123.341C29.7487 123.326 29.7652 123.306 29.7769 123.283C29.7355 123.233 29.6845 123.192 29.627 123.162C29.5386 123.115 29.4464 123.074 29.3514 123.042C29.1467 122.966 28.9366 122.906 28.7228 122.863C28.2852 122.767 27.843 122.695 27.398 122.645C26.5005 122.545 25.5982 122.493 24.6951 122.49C23.797 122.474 22.8996 122.549 22.0165 122.713C21.8098 122.752 21.6096 122.821 21.4218 122.916C21.2439 123.033 21.1058 123.202 21.0253 123.399C20.8592 123.805 20.7897 124.244 20.8222 124.681C20.8749 125.583 21.0373 126.476 21.3057 127.34C21.5768 128.179 21.8915 129.004 22.2486 129.811Z" fill="#54201C"/>
</svg>
