<svg width="20" height="26" viewBox="0 0 20 26" fill="none" xmlns="http://www.w3.org/2000/svg">
<path d="M10.0001 16.668C12.2134 16.668 14.0001 14.8813 14.0001 12.668V4.66797C14.0001 2.45464 12.2134 0.667969 10.0001 0.667969C7.78673 0.667969 6.00006 2.45464 6.00006 4.66797V12.668C6.00006 14.8813 7.78673 16.668 10.0001 16.668ZM17.8801 12.668C17.2267 12.668 16.6801 13.148 16.5734 13.8013C16.0267 16.9346 13.2934 19.3346 10.0001 19.3346C6.70673 19.3346 3.9734 16.9346 3.42673 13.8013C3.32006 13.148 2.7734 12.668 2.12006 12.668C1.30673 12.668 0.66673 13.388 0.78673 14.188C1.44006 18.188 4.64006 21.3213 8.66673 21.8946V24.668C8.66673 25.4013 9.26673 26.0013 10.0001 26.0013C10.7334 26.0013 11.3334 25.4013 11.3334 24.668V21.8946C15.3601 21.3213 18.5601 18.188 19.2134 14.188C19.3467 13.388 18.6934 12.668 17.8801 12.668Z" fill="white"/>
</svg>
