<svg width="16" height="16" viewBox="0 0 16 16" fill="none" xmlns="http://www.w3.org/2000/svg">
<g clip-path="url(#clip0_780_333)">
<path d="M7.99984 2.66797C4.6665 2.66797 1.81984 4.7413 0.666504 7.66797C1.81984 10.5946 4.6665 12.668 7.99984 12.668C11.3332 12.668 14.1798 10.5946 15.3332 7.66797C14.1798 4.7413 11.3332 2.66797 7.99984 2.66797ZM7.99984 11.0013C6.15984 11.0013 4.6665 9.50797 4.6665 7.66797C4.6665 5.82797 6.15984 4.33464 7.99984 4.33464C9.83984 4.33464 11.3332 5.82797 11.3332 7.66797C11.3332 9.50797 9.83984 11.0013 7.99984 11.0013ZM7.99984 5.66797C6.89317 5.66797 5.99984 6.5613 5.99984 7.66797C5.99984 8.77464 6.89317 9.66797 7.99984 9.66797C9.1065 9.66797 9.99984 8.77464 9.99984 7.66797C9.99984 6.5613 9.1065 5.66797 7.99984 5.66797Z" fill="#6D747A"/>
</g>
<defs>
<clipPath id="clip0_780_333">
<rect width="16" height="16" fill="white"/>
</clipPath>
</defs>
</svg>
