<svg width="24" height="24" viewBox="0 0 24 24" fill="none" xmlns="http://www.w3.org/2000/svg">
<circle cx="12" cy="12" r="12" fill="#EBEDF0"/>
<path d="M18.8871 8.52675C18.7217 7.90428 18.2346 7.414 17.6161 7.24759C16.4951 6.94531 12 6.94531 12 6.94531C12 6.94531 7.50481 6.94531 6.38375 7.24763C5.76528 7.41403 5.27819 7.90428 5.11287 8.52678C4.8125 9.65506 4.8125 12.0092 4.8125 12.0092C4.8125 12.0092 4.8125 14.3634 5.11287 15.4917C5.27819 16.1142 5.76528 16.584 6.38375 16.7504C7.50481 17.0527 12 17.0527 12 17.0527C12 17.0527 16.4951 17.0527 17.6161 16.7504C18.2346 16.584 18.7217 16.1141 18.8871 15.4916C19.1874 14.3634 19.1874 12.0092 19.1874 12.0092C19.1874 12.0092 19.1874 9.65506 18.8871 8.52675Z" fill="#6D747A"/>
<path d="M10.5298 14.1459V9.87109L14.2869 12.0085L10.5298 14.1459Z" fill="#EBEDF0"/>
</svg>
